SplineFontDB: 3.2
FontName: Estedad-Black
FullName: Estedad Black
FamilyName: Estedad Black
Weight: Black
Copyright: Copyright (c) 2020 by Amin Abedi (@aminabedi68)-www.fontamin.com,\nwith Reserved Font Name Estedad.\n\nThis Font Software is licensed under the SIL Open Font License, Version 1.1.
Version: 5.0
ItalicAngle: 0
UnderlinePosition: -750
UnderlineWidth: 150
Ascent: 1638
Descent: 410
InvalidEm: 1
LayerCount: 2
Layer: 0 0 "Back" 1
Layer: 1 0 "Estedad" 0
StyleMap: 0x0040
FSType: 0
OS2Version: 0
OS2_WeightWidthSlopeOnly: 0
OS2_UseTypoMetrics: 1
CreationTime: 1595075592
ModificationTime: 1606680836
PfmFamily: 17
TTFWeight: 900
TTFWidth: 5
LineGap: 0
VLineGap: 0
OS2TypoAscent: 2400
OS2TypoAOffset: 0
OS2TypoDescent: -1200
OS2TypoDOffset: 0
OS2TypoLinegap: 0
OS2WinAscent: 2400
OS2WinAOffset: 0
OS2WinDescent: 1200
OS2WinDOffset: 0
HheadAscent: 2400
HheadAOffset: 0
HheadDescent: -1200
HheadDOffset: 0
OS2CapHeight: 1500
OS2XHeight: 1090
OS2Vendor: 'amin'
Lookup: 4 0 0 "'ccmp' Glyph Composition Decomposition lookup 0" { "'ccmp' Glyph Composition Decomposition lookup 0 subtable"  } ['ccmp' ('DFLT' <'dflt' > 'arab' <'FAR ' 'MLY ' 'SND ' 'URD ' 'dflt' > ) ]
Lookup: 1 1 0 "'locl' Localized Forms in Arabic lookup 5" { "'locl' Localized Forms in Arabic lookup 5 subtable"  } ['locl' ('arab' <'URD ' > ) ]
Lookup: 1 1 0 "'locl' Localized Forms in Arabic lookup 6" { "'locl' Localized Forms in Arabic lookup 6 subtable"  } ['locl' ('arab' <'FAR ' > ) ]
Lookup: 1 0 0 "Single Substitution 1" { "Single Substitution 1 subtable"  } []
Lookup: 1 0 0 "Single Substitution 2" { "Single Substitution 2 subtable"  } []
Lookup: 1 9 0 "'isol' Isolated Forms in Arabic lookup 11" { "'isol' Isolated Forms in Arabic lookup 11 subtable"  } ['isol' ('DFLT' <'dflt' > 'arab' <'FAR ' 'MLY ' 'SND ' 'URD ' 'dflt' > ) ]

StartChar: A
Encoding: 65 65 0
Width: 1480
GlyphClass: 2
Flags: HMW
LayerCount: 2
Fore
SplineSet
507 314 m 257
 407 0 l 257
 -11 0 l 257
 532 1505 l 257
 950 1505 l 257
 1491 0 l 257
 1074 0 l 257
 974 314 l 257
 507 314 l 257
604 616 m 257
 879 616 l 257
 742 1048 l 257
 604 616 l 257
EndSplineSet
Substitution2: "'c2sc' Capitals to Small Capitals in Latin lookup 0 subtable" uni1D00
EndChar

StartChar: AE
Encoding: 198 198 1
Width: 1886
GlyphClass: 2
Flags: HMW
LayerCount: 2
Fore
SplineSet
885 1171 m 257
 852 1171 l 257
 682 701 l 257
 885 701 l 257
 885 1171 l 257
628 1505 m 257
 1806 1505 l 257
 1806 1171 l 257
 1276 1171 l 257
 1276 905 l 257
 1753 905 l 257
 1753 600 l 257
 1276 600 l 257
 1276 331 l 257
 1806 331 l 257
 1806 0 l 257
 885 0 l 257
 885 399 l 257
 573 399 l 257
 428 0 l 257
 12 0 l 257
 628 1505 l 257
EndSplineSet
EndChar

StartChar: B
Encoding: 66 66 8
Width: 1438
GlyphClass: 2
Flags: HMW
LayerCount: 2
Fore
SplineSet
133 1505 m 1
 803 1505 l 2
 1103 1505 1287 1353 1287 1062 c 0
 1287 925 1229 814 1120 753 c 1
 1244 698 1330 562 1330 399 c 0
 1330 102 1157 0 833 0 c 2
 133 0 l 1
 133 1505 l 1
523 1171 m 1
 523 897 l 1
 751 897 l 2
 836 897 893 939 893 1035 c 0
 893 1130 837 1171 751 1171 c 2
 523 1171 l 1
523 605 m 1
 523 331 l 1
 801 331 l 2
 886 331 943 373 943 469 c 0
 943 564 887 605 801 605 c 2
 523 605 l 1
EndSplineSet
Substitution2: "'c2sc' Capitals to Small Capitals in Latin lookup 0 subtable" uni0299
EndChar

StartChar: C
Encoding: 67 67 9
Width: 1517
GlyphClass: 2
Flags: HMW
LayerCount: 2
Fore
SplineSet
471 752 m 0
 471 473 569 322 750 322 c 0
 894 322 991 414 1005 564 c 1
 1417 564 l 1
 1417 248 1137 -11 752 -11 c 0
 333 -11 81 299 81 752 c 0
 81 1205 333 1515 752 1515 c 0
 1137 1515 1417 1256 1417 940 c 1
 1005 940 l 1
 991 1090 894 1182 750 1182 c 0
 569 1182 471 1031 471 752 c 0
EndSplineSet
Substitution2: "'c2sc' Capitals to Small Capitals in Latin lookup 0 subtable" uni1D04
EndChar

StartChar: D
Encoding: 68 68 11
Width: 1432
GlyphClass: 2
Flags: HMW
LayerCount: 2
Fore
SplineSet
1357 752 m 256
 1357 370 1168 0 651 0 c 258
 117 0 l 257
 117 1505 l 257
 651 1505 l 258
 1168 1505 1357 1134 1357 752 c 256
966 752 m 256
 966 1068 887 1171 651 1171 c 258
 507 1171 l 257
 507 331 l 257
 651 331 l 258
 887 331 966 435 966 752 c 256
EndSplineSet
Substitution2: "'c2sc' Capitals to Small Capitals in Latin lookup 0 subtable" uni1D05
EndChar

StartChar: E
Encoding: 69 69 12
Width: 1138
GlyphClass: 2
Flags: HMW
LayerCount: 2
Fore
SplineSet
1109 331 m 257
 1109 0 l 257
 117 0 l 257
 117 1505 l 257
 1109 1505 l 257
 1109 1171 l 257
 507 1171 l 257
 507 905 l 257
 1053 905 l 257
 1053 600 l 257
 507 600 l 257
 507 331 l 257
 1109 331 l 257
EndSplineSet
Substitution2: "'c2sc' Capitals to Small Capitals in Latin lookup 0 subtable" uni1D07
EndChar

StartChar: F
Encoding: 70 70 18
Width: 1138
GlyphClass: 2
Flags: HMW
LayerCount: 2
Fore
SplineSet
507 0 m 257
 117 0 l 257
 117 1505 l 257
 1109 1505 l 257
 1109 1171 l 257
 507 1171 l 257
 507 863 l 257
 961 863 l 257
 961 558 l 257
 507 558 l 257
 507 0 l 257
EndSplineSet
Substitution2: "'c2sc' Capitals to Small Capitals in Latin lookup 0 subtable" uniA730
EndChar

StartChar: G
Encoding: 71 71 19
Width: 1606
GlyphClass: 2
Flags: HMW
LayerCount: 2
Back
SplineSet
742 863 m 257
 1491 863 l 257
 1491 549 l 258
 1491 226 1294 -12 847 -12 c 256
 348 -12 106 352 106 752 c 256
 106 1154 358 1515 818 1515 c 256
 1135 1515 1326 1337 1416 1088 c 257
 1114 968 l 257
 1063 1106 962 1182 820 1182 c 256
 642 1182 497 1058 497 752 c 256
 497 446 626 323 856 323 c 256
 1009 323 1101 364 1101 471 c 258
 1101 558 l 257
 742 558 l 257
 742 863 l 257
EndSplineSet
Fore
SplineSet
742 863 m 1
 1491 863 l 1
 1491 276 l 1
 1338 90 1149 -12 849 -12 c 0
 407 -12 106 298 106 752 c 0
 106 1199 400 1515 818 1515 c 0
 1106 1515 1316 1365 1416 1088 c 1
 1114 968 l 1
 1062 1108 960 1182 820 1182 c 0
 616 1182 497 1023 497 752 c 0
 497 462 613 323 854 323 c 0
 939 323 1051 342 1101 364 c 1
 1101 558 l 1
 742 558 l 1
 742 863 l 1
EndSplineSet
Substitution2: "'c2sc' Capitals to Small Capitals in Latin lookup 0 subtable" uni0262
EndChar

StartChar: GAFbar
Encoding: 1114112 -1 20
Width: 1063
GlyphClass: 2
Flags: HMW
LayerCount: 2
Fore
SplineSet
850 2189 m 257
 894 1999 l 257
 636 1938 361 1823 127 1683 c 257
 26 1850 l 257
 280 2001 565 2122 850 2189 c 257
EndSplineSet
EndChar

StartChar: H
Encoding: 72 72 21
Width: 1494
GlyphClass: 2
Flags: HMW
LayerCount: 2
Fore
SplineSet
987 1505 m 261
 1377 1505 l 261
 1377 0 l 261
 987 0 l 261
 987 600 l 261
 507 600 l 261
 507 0 l 261
 117 0 l 261
 117 1505 l 261
 507 1505 l 261
 507 905 l 261
 987 905 l 261
 987 1505 l 261
EndSplineSet
Substitution2: "'c2sc' Capitals to Small Capitals in Latin lookup 0 subtable" uni029C
EndChar

StartChar: I
Encoding: 73 73 24
Width: 683
GlyphClass: 2
Flags: HMW
LayerCount: 2
Fore
SplineSet
537 0 m 257
 146 0 l 257
 146 1505 l 257
 537 1505 l 257
 537 0 l 257
EndSplineSet
Substitution2: "'c2sc' Capitals to Small Capitals in Latin lookup 0 subtable" uni026A
EndChar

StartChar: J
Encoding: 74 74 29
Width: 827
GlyphClass: 2
Flags: HMW
LayerCount: 2
Fore
SplineSet
51 45 m 1
 103 297 l 1
 145 285 185 281 216 281 c 0
 283 281 322 308 322 363 c 2
 322 1505 l 1
 712 1505 l 1
 712 317 l 2
 712 77 534 -11 336 -11 c 0
 239 -11 138 10 51 45 c 1
EndSplineSet
Substitution2: "'c2sc' Capitals to Small Capitals in Latin lookup 0 subtable" uni1D0A
EndChar

StartChar: K
Encoding: 75 75 30
Width: 1475
GlyphClass: 2
Flags: HMW
LayerCount: 2
Fore
SplineSet
1009 1505 m 257
 1466 1505 l 257
 847 750 l 257
 1466 0 l 257
 1009 0 l 257
 637 495 l 257
 507 338 l 257
 507 0 l 257
 117 0 l 257
 117 1505 l 257
 507 1505 l 257
 507 879 l 257
 1009 1505 l 257
EndSplineSet
Substitution2: "'c2sc' Capitals to Small Capitals in Latin lookup 0 subtable" uni1D0B
EndChar

StartChar: L
Encoding: 76 76 31
Width: 1162
GlyphClass: 2
Flags: HMW
LayerCount: 2
Fore
SplineSet
1122 331 m 257
 1122 0 l 257
 117 0 l 257
 117 1505 l 257
 507 1505 l 257
 507 331 l 257
 1122 331 l 257
EndSplineSet
Substitution2: "'c2sc' Capitals to Small Capitals in Latin lookup 0 subtable" uni029F
EndChar

StartChar: M
Encoding: 77 77 32
Width: 1947
GlyphClass: 2
Flags: HMW
LayerCount: 2
Fore
SplineSet
507 0 m 257
 117 0 l 257
 117 1505 l 257
 560 1505 l 257
 982 391 l 257
 1386 1505 l 257
 1832 1505 l 257
 1832 0 l 257
 1441 0 l 257
 1441 847 l 257
 1161 0 l 257
 803 0 l 257
 507 848 l 257
 507 0 l 257
EndSplineSet
Substitution2: "'c2sc' Capitals to Small Capitals in Latin lookup 0 subtable" uni1D0D
EndChar

StartChar: N
Encoding: 78 78 33
Width: 1500
GlyphClass: 2
Flags: HMW
LayerCount: 2
Fore
SplineSet
995 1505 m 257
 1386 1505 l 257
 1386 0 l 257
 1024 0 l 257
 507 829 l 257
 507 0 l 257
 117 0 l 257
 117 1505 l 257
 478 1505 l 257
 995 674 l 257
 995 1505 l 257
EndSplineSet
Substitution2: "'c2sc' Capitals to Small Capitals in Latin lookup 0 subtable" uni0274
EndChar

StartChar: O
Encoding: 79 79 35
Width: 1514
GlyphClass: 2
Flags: HMW
LayerCount: 2
Fore
SplineSet
758 1515 m 256
 1252 1515 1449 1152 1449 752 c 256
 1449 352 1249 -11 758 -11 c 256
 267 -11 65 352 65 752 c 256
 65 1152 264 1515 758 1515 c 256
758 1179 m 256
 596 1179 460 1064 460 752 c 256
 460 440 593 325 758 325 c 256
 923 325 1056 440 1056 752 c 256
 1056 1064 920 1179 758 1179 c 256
EndSplineSet
Substitution2: "'c2sc' Capitals to Small Capitals in Latin lookup 0 subtable" uni1D0F
EndChar

StartChar: OE
Encoding: 338 338 36
Width: 1864
GlyphClass: 2
Flags: HMW
LayerCount: 2
Fore
SplineSet
914 1171 m 1
 799 1171 l 256
 602 1171 456 1058 456 752 c 256
 456 446 602 331 799 331 c 256
 914 331 l 1
 914 1171 l 1
1305 1171 m 257
 1305 905 l 257
 1780 905 l 257
 1780 600 l 257
 1305 600 l 257
 1305 331 l 257
 1835 331 l 257
 1835 0 l 257
 799 0 l 258
 316 0 65 350 65 752 c 256
 65 1154 316 1505 799 1505 c 258
 1835 1505 l 257
 1835 1171 l 257
 1305 1171 l 257
EndSplineSet
EndChar

StartChar: P
Encoding: 80 80 43
Width: 1418
GlyphClass: 2
Flags: HMW
LayerCount: 2
Fore
SplineSet
523 0 m 1
 133 0 l 1
 133 1505 l 1
 783 1505 l 2
 1145 1505 1334 1335 1334 1010 c 0
 1334 685 1145 514 783 514 c 2
 523 514 l 1
 523 0 l 1
523 1171 m 1
 523 848 l 1
 771 848 l 2
 885 848 944 903 944 1011 c 0
 944 1118 886 1171 771 1171 c 2
 523 1171 l 1
EndSplineSet
Substitution2: "'c2sc' Capitals to Small Capitals in Latin lookup 0 subtable" uni1D18
EndChar

StartChar: R
Encoding: 82 82 45
Width: 1415
GlyphClass: 2
Flags: HMW
LayerCount: 2
Fore
SplineSet
1044 719 m 257
 1416 0 l 257
 1034 0 l 257
 706 719 l 257
 1044 719 l 257
EndSplineSet
Refer: 43 80 N 1 0 0 1 0 0 2
Substitution2: "'c2sc' Capitals to Small Capitals in Latin lookup 0 subtable" uni0280
EndChar

StartChar: S
Encoding: 83 83 46
Width: 1299
GlyphClass: 2
Flags: HMW
LayerCount: 2
Fore
SplineSet
81 529 m 257
 464 529 l 257
 464 399 513 324 670 324 c 256
 772 324 835 363 835 439 c 256
 835 528 683 572 619 590 c 256
 403 650 118 762 118 1071 c 256
 118 1360 346 1515 622 1515 c 256
 991 1515 1203 1313 1203 1007 c 257
 820 1007 l 257
 820 1108 777 1179 650 1179 c 256
 557 1179 501 1140 501 1073 c 256
 501 980 661 938 730 920 c 256
 945 864 1219 745 1219 433 c 256
 1219 121 946 -11 685 -11 c 256
 308 -11 81 173 81 529 c 257
EndSplineSet
Substitution2: "'c2sc' Capitals to Small Capitals in Latin lookup 0 subtable" uniA731
EndChar

StartChar: T
Encoding: 84 84 47
Width: 1332
GlyphClass: 2
Flags: HMW
LayerCount: 2
Fore
SplineSet
862 0 m 257
 471 0 l 257
 471 1171 l 257
 20 1171 l 257
 20 1505 l 257
 1312 1505 l 257
 1312 1171 l 257
 862 1171 l 257
 862 0 l 257
EndSplineSet
Substitution2: "'c2sc' Capitals to Small Capitals in Latin lookup 0 subtable" uni1D1B
EndChar

StartChar: Thorn
Encoding: 222 222 54
Width: 1418
GlyphClass: 2
Flags: HMW
LayerCount: 2
Fore
SplineSet
523 598 m 257
 740 598 l 258
 860 598 944 624 944 760 c 256
 944 897 856 922 740 922 c 258
 523 922 l 257
 523 598 l 257
523 0 m 1
 133 0 l 1
 133 1505 l 1
 523 1505 l 1
 523 1253 l 1
 740 1253 l 2
 1059 1253 1334 1088 1334 760 c 0
 1334 430 1052 263 740 263 c 2
 523 263 l 1
 523 0 l 1
EndSplineSet
EndChar

StartChar: U
Encoding: 85 85 55
Width: 1524
GlyphClass: 2
Flags: HMW
LayerCount: 2
Fore
SplineSet
1014 1505 m 257
 1404 1505 l 257
 1404 557 l 258
 1404 198 1188 -11 762 -11 c 256
 336 -11 120 198 120 557 c 258
 120 1505 l 257
 510 1505 l 257
 510 558 l 258
 510 431 561 343 762 343 c 256
 963 343 1014 431 1014 558 c 258
 1014 1505 l 257
EndSplineSet
Substitution2: "'c2sc' Capitals to Small Capitals in Latin lookup 0 subtable" uni1D1C
EndChar

StartChar: V
Encoding: 86 86 60
Width: 1480
GlyphClass: 2
Flags: HMW
LayerCount: 2
Fore
SplineSet
740 456 m 261
 1074 1505 l 261
 1491 1505 l 261
 949 0 l 261
 531 0 l 261
 -11 1505 l 261
 407 1505 l 261
 740 456 l 261
EndSplineSet
Substitution2: "'c2sc' Capitals to Small Capitals in Latin lookup 0 subtable" uni1D20
EndChar

StartChar: W
Encoding: 87 87 61
Width: 2008
GlyphClass: 2
Flags: HMW
LayerCount: 2
Fore
SplineSet
1584 1505 m 257
 1989 1505 l 257
 1585 0 l 257
 1221 0 l 257
 1005 901 l 257
 786 0 l 257
 422 0 l 257
 20 1505 l 257
 424 1505 l 257
 625 590 l 257
 837 1505 l 257
 1171 1505 l 257
 1382 590 l 257
 1584 1505 l 257
EndSplineSet
Substitution2: "'c2sc' Capitals to Small Capitals in Latin lookup 0 subtable" uni1D21
EndChar

StartChar: X
Encoding: 88 88 62
Width: 1499
GlyphClass: 2
Flags: HMW
LayerCount: 2
Fore
SplineSet
1501 0 m 257
 1044 0 l 257
 750 456 l 257
 456 0 l 257
 0 0 l 257
 539 750 l 257
 0 1505 l 257
 456 1505 l 257
 750 1047 l 257
 1044 1505 l 257
 1501 1505 l 257
 961 750 l 257
 1501 0 l 257
EndSplineSet
Substitution2: "'c2sc' Capitals to Small Capitals in Latin lookup 0 subtable" uniA7EF
EndChar

StartChar: Y
Encoding: 89 89 63
Width: 1490
GlyphClass: 2
Flags: HMW
LayerCount: 2
Fore
SplineSet
1049 1505 m 257
 1501 1505 l 257
 943 654 l 257
 943 0 l 257
 551 0 l 257
 551 654 l 257
 -11 1505 l 257
 444 1505 l 257
 747 971 l 257
 1049 1505 l 257
EndSplineSet
Substitution2: "'c2sc' Capitals to Small Capitals in Latin lookup 0 subtable" uni028F
EndChar

StartChar: Z
Encoding: 90 90 65
Width: 1230
GlyphClass: 2
Flags: HMW
LayerCount: 2
Fore
SplineSet
50 1170 m 257
 50 1505 l 257
 1180 1505 l 257
 1180 1242 l 257
 501 331 l 257
 1180 331 l 257
 1180 0 l 257
 50 0 l 257
 50 261 l 257
 731 1170 l 257
 50 1170 l 257
EndSplineSet
Substitution2: "'c2sc' Capitals to Small Capitals in Latin lookup 0 subtable" uni1D22
EndChar

StartChar: a
Encoding: 97 97 66
Width: 1163
GlyphClass: 2
Flags: HMW
LayerCount: 2
Back
SplineSet
790 339 m 257
 726 124 612 -11 368 -11 c 256
 172 -11 55 105 55 303 c 256
 55 557 282 689 515 689 c 256
 632 689 723 665 813 638 c 257
 687 443 l 257
 649 452 612 457 579 457 c 0
 472 457 396 412 396 342 c 256
 396 295 428 263 494 263 c 256
 571 263 636 298 674 339 c 257
 790 339 l 257
1059 713 m 258
 1059 0 l 257
 689 0 l 257
 669 130 l 1
 669 704 l 258
 669 788 570 823 482 823 c 0
 411 823 307 791 231 743 c 1
 88 1001 l 1
 176 1070 360 1146 528 1146 c 0
 805 1146 1059 992 1059 713 c 258
EndSplineSet
Fore
SplineSet
573 1146 m 0
 923 1146 1079 973 1079 742 c 2
 1079 313 l 1
 1079 258 1098 231 1157 231 c 1
 1157 -1 l 1
 902 -46 689 35 689 317 c 2
 689 742 l 2
 689 812 654 844 553 844 c 0
 453 844 417 814 417 742 c 1
 87 742 l 1
 68 986 228 1146 573 1146 c 0
EndSplineSet
Refer: 314 57355 N 1 0 0 1 -14 0 2
Substitution2: "'smcp' Lowercase to Small Capitals in Latin lookup 0 subtable" uni1D00
EndChar

StartChar: acute
Encoding: 180 180 69
Width: 492
GlyphClass: 2
Flags: HMW
LayerCount: 2
Fore
SplineSet
177 1485 m 257
 442 1485 l 257
 278 1135 l 257
 50 1135 l 257
 177 1485 l 257
EndSplineSet
EndChar

StartChar: ae
Encoding: 230 230 71
Width: 1832
GlyphClass: 2
Flags: HMW
LayerCount: 2
Fore
SplineSet
688 317 m 25
 688 742 l 2
 688 812 653 844 552 844 c 0
 452 844 416 814 416 742 c 1
 86 742 l 1
 67 986 227 1146 572 1146 c 0
 922 1146 1078 973 1078 742 c 2
 1078 313 l 1
 688 317 l 25
65 298 m 256
 65 552 302 660 535 660 c 258
 1035 660 l 257
 1035 454 l 257
 562 454 l 258
 486 454 406 420 406 347 c 256
 406 312 434 274 504 274 c 256
 591 274 648 303 688 349 c 257
 799 349 l 257
 752 209 671 -21 376 -21 c 256
 167 -21 65 100 65 298 c 256
EndSplineSet
Refer: 102 101 N 1 0 0 1 628 0 2
Substitution2: "'c2sc' Capitals to Small Capitals in Latin lookup 0 subtable" uni1D01
Substitution2: "'smcp' Lowercase to Small Capitals in Latin lookup 0 subtable" uni1D01
EndChar

StartChar: ampersand
Encoding: 38 38 73
Width: 1534
GlyphClass: 2
Flags: HMW
LayerCount: 2
Fore
SplineSet
180 1111 m 0
 180 1344 356 1505 609 1505 c 0
 866 1505 1042 1337 1042 1091 c 0
 1042 904 941 776 697 652 c 0
 533 569 454 493 454 419 c 0
 454 352 520 306 615 306 c 0
 827 306 1023 534 1023 780 c 1
 1346 780 l 1
 1346 306 1056 -11 623 -11 c 0
 304 -11 100 161 100 428 c 0
 100 622 208 753 498 911 c 0
 655 996 707 1046 707 1109 c 0
 707 1163 669 1199 611 1199 c 0
 554 1199 516 1164 516 1110 c 0
 516 1056 554 997 633 929 c 2
 1434 236 l 1
 1212 -11 l 1
 365 736 l 2
 243 843 180 972 180 1111 c 0
EndSplineSet
EndChar

StartChar: asciicircum
Encoding: 94 94 75
Width: 746
GlyphClass: 2
Flags: HMW
LayerCount: 2
Fore
SplineSet
696 1135 m 1
 468 1135 l 1
 373 1338 l 1
 278 1135 l 1
 50 1135 l 1
 177 1485 l 1
 569 1485 l 1
 696 1135 l 1
EndSplineSet
Substitution2: "'tnum' Tabular Numbers lookup 22 subtable" asciicircum.tnum
EndChar

StartChar: asciitilde
Encoding: 126 126 76
Width: 958
GlyphClass: 2
Flags: HMW
LayerCount: 2
Fore
SplineSet
60 1205 m 257
 123 1355 221 1434 322 1434 c 256
 398 1434 441 1408 506 1365 c 0
 548 1337 587 1313 630 1313 c 256
 671 1313 716 1332 762 1434 c 257
 898 1360 l 257
 836 1200 740 1135 635 1135 c 256
 562 1135 517 1156 422 1213 c 0
 383 1237 349 1256 323 1256 c 256
 289 1256 244 1245 195 1135 c 257
 60 1205 l 257
EndSplineSet
EndChar

StartChar: asterisk
Encoding: 42 42 77
Width: 1207
GlyphClass: 2
Flags: HMW
LayerCount: 2
Fore
SplineSet
133 1064 m 257
 216 1321 l 257
 484 1220 l 257
 467 1505 l 257
 741 1505 l 257
 726 1219 l 257
 994 1321 l 257
 1077 1064 l 257
 801 990 l 257
 983 763 l 257
 761 605 l 257
 604 848 l 257
 448 605 l 257
 226 763 l 257
 409 990 l 257
 133 1064 l 257
EndSplineSet
Substitution2: "'tnum' Tabular Numbers lookup 22 subtable" asterisk.tnum
EndChar

StartChar: at
Encoding: 64 64 78
Width: 1959
GlyphClass: 2
Flags: HMW
LayerCount: 2
Fore
SplineSet
1005 742 m 0
 838 742 769 624 769 445 c 0
 769 311 816 229 943 229 c 0
 1070 229 1115 346 1127 471 c 2
 1148 713 l 1
 1112 733 1072 742 1005 742 c 0
1005 975 m 0
 1186 975 1306 895 1406 818 c 1
 1364 345 l 2
 1362 325 1360 301 1360 295 c 0
 1360 250 1383 236 1428 236 c 0
 1552 236 1603 401 1603 601 c 0
 1603 932 1375 1148 1021 1148 c 0
 625 1148 373 866 373 440 c 0
 373 27 571 -156 949 -156 c 0
 1030 -156 1106 -140 1175 -116 c 1
 1259 -329 l 1
 1165 -364 1062 -386 949 -386 c 0
 435 -386 122 -91 122 437 c 0
 122 999 484 1373 1030 1373 c 0
 1523 1373 1838 1057 1838 587 c 0
 1838 285 1724 -11 1427 -11 c 0
 1330 -11 1256 35 1215 103 c 1
 1153 26 1047 -11 943 -11 c 0
 687 -11 522 181 522 445 c 0
 522 765 690 975 1005 975 c 0
EndSplineSet
EndChar

StartChar: b
Encoding: 98 98 80
Width: 1214
GlyphClass: 2
Flags: HMW
LayerCount: 2
Fore
SplineSet
507 0 m 257
 117 0 l 257
 117 1561 l 257
 507 1561 l 257
 507 0 l 257
EndSplineSet
Refer: 318 57359 N 1 0 0 1 79 0 2
Substitution2: "'smcp' Lowercase to Small Capitals in Latin lookup 0 subtable" uni0299
EndChar

StartChar: backslash
Encoding: 92 92 81
Width: 1156
GlyphClass: 2
Flags: HMW
LayerCount: 2
Fore
SplineSet
1126 0 m 257
 658 0 l 257
 30 1505 l 257
 500 1505 l 257
 1126 0 l 257
EndSplineSet
Substitution2: "'tnum' Tabular Numbers lookup 22 subtable" backslash.tnum
EndChar

StartChar: bar
Encoding: 124 124 82
Width: 750
GlyphClass: 2
Flags: HMW
LayerCount: 2
Fore
SplineSet
180 1561 m 257
 570 1561 l 257
 570 -461 l 257
 180 -461 l 257
 180 1561 l 257
EndSplineSet
Substitution2: "'tnum' Tabular Numbers lookup 22 subtable" bar.tnum
EndChar

StartChar: braceleft
Encoding: 123 123 83
Width: 1032
GlyphClass: 2
Flags: HMW
LayerCount: 2
Fore
SplineSet
470 738 m 1
 565 685 637 547 637 418 c 2
 637 237 l 2
 637 195 668 168 710 168 c 2
 902 168 l 1
 902 -137 l 1
 662 -137 l 2
 470 -137 327 6 327 187 c 2
 327 418 l 2
 327 506 268 580 196 587 c 2
 100 596 l 1
 100 880 l 1
 196 889 l 2
 267 896 327 970 327 1058 c 2
 327 1289 l 2
 327 1470 469 1613 662 1613 c 2
 902 1613 l 1
 902 1308 l 1
 710 1308 l 2
 668 1308 637 1281 637 1239 c 2
 637 1058 l 2
 637 929 565 791 470 738 c 1
EndSplineSet
Substitution2: "'tnum' Tabular Numbers lookup 22 subtable" braceleft.tnum
EndChar

StartChar: braceright
Encoding: 125 125 84
Width: 1032
GlyphClass: 2
Flags: HMW
LayerCount: 2
Fore
SplineSet
562 738 m 1
 467 791 395 929 395 1058 c 2
 395 1239 l 2
 395 1281 364 1308 322 1308 c 2
 130 1308 l 1
 130 1613 l 1
 370 1613 l 2
 562 1613 705 1470 705 1289 c 2
 705 1058 l 2
 705 970 764 896 836 889 c 2
 932 880 l 1
 932 596 l 1
 836 587 l 2
 765 580 705 506 705 418 c 2
 705 187 l 2
 705 6 563 -137 370 -137 c 2
 130 -137 l 1
 130 168 l 1
 322 168 l 2
 364 168 395 195 395 237 c 2
 395 418 l 2
 395 547 467 685 562 738 c 1
EndSplineSet
Substitution2: "'tnum' Tabular Numbers lookup 22 subtable" braceright.tnum
EndChar

StartChar: bracketleft
Encoding: 91 91 85
Width: 715
GlyphClass: 2
Flags: HMW
LayerCount: 2
Fore
SplineSet
655 168 m 257
 655 -137 l 257
 80 -137 l 257
 80 1613 l 257
 655 1613 l 257
 655 1308 l 257
 390 1308 l 257
 390 168 l 257
 655 168 l 257
EndSplineSet
Substitution2: "'tnum' Tabular Numbers lookup 22 subtable" bracketleft.tnum
EndChar

StartChar: bracketright
Encoding: 93 93 86
Width: 715
GlyphClass: 2
Flags: HMW
LayerCount: 2
Fore
SplineSet
60 1308 m 257
 60 1613 l 257
 635 1613 l 257
 635 -137 l 257
 60 -137 l 257
 60 168 l 257
 325 168 l 257
 325 1308 l 257
 60 1308 l 257
EndSplineSet
Substitution2: "'tnum' Tabular Numbers lookup 22 subtable" bracketright.tnum
EndChar

StartChar: brokenbar
Encoding: 166 166 87
Width: 471
GlyphClass: 2
Flags: HMW
LayerCount: 2
Fore
SplineSet
431 882 m 257
 41 882 l 257
 41 1505 l 257
 431 1505 l 257
 431 882 l 257
431 0 m 257
 41 0 l 257
 41 645 l 257
 431 645 l 257
 431 0 l 257
EndSplineSet
EndChar

StartChar: c
Encoding: 99 99 88
Width: 1211
GlyphClass: 2
Flags: HMW
LayerCount: 2
Fore
SplineSet
607 1145 m 0
 935 1145 1122 954 1122 676 c 1
 745 676 l 1
 745 794 679 836 606 836 c 0
 510 836 451 764 451 571 c 0
 451 372 510 300 606 300 c 0
 679 300 745 342 745 460 c 1
 1122 460 l 1
 1122 182 935 -9 607 -9 c 0
 232 -9 60 228 60 568 c 0
 60 908 232 1145 607 1145 c 0
EndSplineSet
Substitution2: "'smcp' Lowercase to Small Capitals in Latin lookup 0 subtable" uni1D04
EndChar

StartChar: cedilla
Encoding: 184 184 90
Width: 627
GlyphClass: 2
Flags: HMW
LayerCount: 2
Fore
SplineSet
567 -265 m 0
 567 -408 453 -496 269 -496 c 0
 192 -496 123 -481 60 -449 c 1
 122 -301 l 1
 161 -318 220 -329 272 -329 c 0
 343 -329 383 -308 383 -272 c 0
 383 -231 330 -206 241 -206 c 0
 220 -206 199 -207 179 -210 c 1
 179 1 l 1
 310 1 l 1
 310 -66 l 1
 476 -66 567 -137 567 -265 c 0
EndSplineSet
EndChar

StartChar: comma
Encoding: 44 44 93
Width: 694
GlyphClass: 2
Flags: HMW
LayerCount: 2
Back
SplineSet
352 66 m 257
 228 93 167 162 167 257 c 256
 167 356 250 426 350 426 c 256
 452 426 543 357 543 205 c 256
 543 33 460 -143 268 -278 c 257
 152 -144 l 257
 229 -89 319 3 352 66 c 257
EndSplineSet
Fore
SplineSet
183 416 m 1
 528 416 l 1
 330 -188 l 1
 85 -66 l 1
 183 416 l 1
EndSplineSet
Substitution2: "'tnum' Tabular Numbers lookup 22 subtable" comma.tnum
EndChar

StartChar: copyright
Encoding: 169 169 94
Width: 1733
GlyphClass: 2
Flags: HMW
LayerCount: 2
Fore
SplineSet
383 725 m 256
 383 443 611 230 868 230 c 256
 1125 230 1353 443 1353 725 c 256
 1353 1006 1125 1218 868 1218 c 256
 611 1218 383 1006 383 725 c 256
112 725 m 256
 112 1128 442 1467 868 1467 c 256
 1294 1467 1624 1128 1624 725 c 256
 1624 323 1295 -20 868 -20 c 256
 441 -20 112 323 112 725 c 256
1130 937 m 257
 1031 851 l 257
 985 909 927 931 872 931 c 256
 769 931 692 846 692 726 c 256
 692 606 769 519 872 519 c 256
 927 519 985 541 1031 599 c 257
 1130 512 l 257
 1055 423 982 376 860 376 c 256
 655 376 531 549 531 726 c 256
 531 903 655 1075 860 1075 c 256
 982 1075 1055 1026 1130 937 c 257
EndSplineSet
EndChar

StartChar: currency
Encoding: 164 164 95
Width: 1432
GlyphClass: 2
Flags: HMW
LayerCount: 2
Fore
SplineSet
893 95 m 257
 1104 287 l 257
 1357 21 l 257
 1148 -170 l 257
 893 95 l 257
329 287 m 257
 539 95 l 257
 285 -170 l 257
 76 21 l 257
 329 287 l 257
1104 796 m 257
 893 989 l 257
 1148 1253 l 257
 1357 1062 l 257
 1104 796 l 257
539 989 m 257
 329 796 l 257
 76 1062 l 257
 285 1253 l 257
 539 989 l 257
EndSplineSet
Refer: 142 111 N 1 0 0 1 113 0 2
EndChar

StartChar: d
Encoding: 100 100 96
Width: 1202
GlyphClass: 2
Flags: HMW
LayerCount: 2
Fore
SplineSet
1086 0 m 261
 696 0 l 261
 696 1561 l 261
 1086 1561 l 261
 1086 0 l 261
EndSplineSet
Refer: 318 57359 N -1 0 0 -1 1126 1135 2
Substitution2: "'smcp' Lowercase to Small Capitals in Latin lookup 0 subtable" uni1D05
EndChar

StartChar: degree
Encoding: 176 176 97
Width: 679
GlyphClass: 2
Flags: HMW
LayerCount: 2
Fore
SplineSet
470 1414 m 256
 470 1488 413 1544 339 1544 c 256
 265 1544 211 1488 211 1414 c 256
 211 1340 265 1285 339 1285 c 256
 413 1285 470 1340 470 1414 c 256
619 1414 m 256
 619 1259 494 1135 339 1135 c 256
 184 1135 60 1259 60 1414 c 256
 60 1569 184 1693 339 1693 c 256
 494 1693 619 1569 619 1414 c 256
EndSplineSet
EndChar

StartChar: dieresis
Encoding: 168 168 98
Width: 836
GlyphClass: 2
Flags: HMW
LayerCount: 2
Fore
SplineSet
60 1286 m 256
 60 1368 131 1432 213 1432 c 256
 295 1432 365 1368 365 1286 c 256
 365 1204 295 1135 213 1135 c 256
 131 1135 60 1204 60 1286 c 256
471 1286 m 256
 471 1368 542 1432 624 1432 c 256
 706 1432 776 1368 776 1286 c 256
 776 1204 706 1135 624 1135 c 256
 542 1135 471 1204 471 1286 c 256
EndSplineSet
EndChar

StartChar: dotlessi
Encoding: 305 305 101
Width: 592
GlyphClass: 2
Flags: HMW
LayerCount: 2
Fore
SplineSet
100 1135 m 257
 492 1135 l 257
 492 0 l 257
 100 0 l 257
 100 1135 l 257
EndSplineSet
EndChar

StartChar: e
Encoding: 101 101 102
Width: 1204
GlyphClass: 2
Flags: HMW
LayerCount: 2
Fore
SplineSet
457 454 m 261
 470 354 521 300 615 300 c 256
 670 300 720 326 740 375 c 257
 1114 321 l 257
 1042 108 874 -11 600 -11 c 256
 236 -11 60 226 60 567 c 256
 60 908 240 1145 597 1145 c 256
 1042 1145 1177 839 1147 454 c 261
 457 454 l 261
460 675 m 261
 751 675 l 261
 751 807 670 836 602 836 c 256
 538 836 460 797 460 675 c 261
EndSplineSet
Substitution2: "'smcp' Lowercase to Small Capitals in Latin lookup 0 subtable" uni1D07
EndChar

StartChar: eight
Encoding: 56 56 107
Width: 1302
GlyphClass: 2
Flags: HMW
LayerCount: 2
Fore
SplineSet
651 1515 m 0
 973 1515 1160 1311 1160 1101 c 0
 1160 989 1107 875 994 789 c 1
 1135 686 1202 551 1202 421 c 0
 1202 197 1006 -11 651 -11 c 0
 296 -11 100 197 100 421 c 0
 100 551 167 686 308 789 c 1
 195 875 142 989 142 1101 c 0
 142 1311 328 1515 651 1515 c 0
651 1212 m 0
 571 1212 526 1161 526 1068 c 0
 526 973 572 921 651 921 c 0
 730 921 774 973 774 1068 c 0
 774 1162 731 1212 651 1212 c 0
647 632 m 0
 553 632 498 575 498 477 c 0
 498 376 557 312 651 312 c 0
 743 312 800 373 800 472 c 0
 800 571 744 632 647 632 c 0
EndSplineSet
Substitution2: "'sups' Superscript lookup 0 subtable" uni2078
Substitution2: "'subs' Subscript lookup 0 subtable" uni2088
Substitution2: "'sinf' Scientific Inferiors lookup 20 subtable" uni2088
Substitution2: "'tnum' Tabular Numbers lookup 22 subtable" eight.tnum
Substitution2: "'onum' Oldstyle Figures lookup 23 subtable" eight.onum
Substitution2: "'smcp' Lowercase to Small Capitals in Latin lookup 0 subtable" eight.SC
EndChar

StartChar: eth
Encoding: 240 240 109
Width: 1211
GlyphClass: 2
Flags: HMW
LayerCount: 2
Fore
SplineSet
601 836 m 256
 505 836 451 764 451 567 c 256
 451 370 503 297 601 297 c 256
 699 297 761 370 761 567 c 256
 761 764 697 836 601 836 c 256
561 1143 m 0
 638 1143 717 1127 792 1095 c 257
 753 1174 644 1303 591 1343 c 257
 473 1247 l 257
 360 1380 l 257
 454 1458 l 257
 405 1485 323 1516 264 1525 c 257
 333 1773 l 257
 438 1757 570 1692 660 1627 c 257
 773 1717 l 257
 885 1579 l 257
 797 1507 l 257
 1061 1230 1151 964 1151 650 c 256
 1151 212 978 -11 606 -11 c 256
 234 -11 60 237 60 567 c 256
 60 956 299 1143 561 1143 c 0
EndSplineSet
EndChar

StartChar: exclam
Encoding: 33 33 110
Width: 656
GlyphClass: 2
Flags: HMW
LayerCount: 2
Fore
SplineSet
483 515 m 257
 173 515 l 257
 133 1505 l 257
 523 1505 l 257
 483 515 l 257
EndSplineSet
Refer: 160 46 N 1 0 0 1 17 0 2
Substitution2: "'tnum' Tabular Numbers lookup 22 subtable" exclam.tnum
EndChar

StartChar: f
Encoding: 102 102 112
Width: 782
GlyphClass: 2
Flags: HMW
LayerCount: 2
Fore
SplineSet
819 1505 m 1
 766 1253 l 1
 724 1265 684 1269 653 1269 c 0
 586 1269 548 1242 548 1187 c 2
 548 0 l 1
 157 0 l 1
 157 1233 l 2
 157 1473 335 1560 533 1560 c 0
 630 1560 732 1540 819 1505 c 1
EndSplineSet
Refer: 313 57354 N 1 0 0 1 -59 311 2
Substitution2: "'smcp' Lowercase to Small Capitals in Latin lookup 0 subtable" uniA730
EndChar

StartChar: five
Encoding: 53 53 114
Width: 1281
GlyphClass: 2
Flags: HMW
LayerCount: 2
Fore
SplineSet
101 484 m 1
 485 484 l 1
 485 359 527 312 639 312 c 0
 755 312 798 362 798 500 c 0
 798 665 737 748 614 748 c 0
 519 748 433 699 344 594 c 1
 107 732 l 1
 179 1505 l 1
 1145 1505 l 1
 1145 1197 l 1
 500 1197 l 1
 481 1013 l 1
 559 1040 635 1053 710 1053 c 0
 999 1053 1180 851 1180 525 c 0
 1180 182 979 -11 619 -11 c 0
 280 -11 101 160 101 484 c 1
EndSplineSet
Substitution2: "'sups' Superscript lookup 0 subtable" uni2075
Substitution2: "'subs' Subscript lookup 0 subtable" uni2085
Substitution2: "'sinf' Scientific Inferiors lookup 20 subtable" uni2085
Substitution2: "'tnum' Tabular Numbers lookup 22 subtable" five.tnum
Substitution2: "'onum' Oldstyle Figures lookup 23 subtable" five.onum
Substitution2: "'smcp' Lowercase to Small Capitals in Latin lookup 0 subtable" five.SC
EndChar

StartChar: four
Encoding: 52 52 115
Width: 1322
GlyphClass: 2
Flags: HMW
LayerCount: 2
Fore
SplineSet
653 628 m 261
 653 994 l 261
 390 628 l 261
 653 628 l 261
653 329 m 261
 71 329 l 261
 71 620 l 261
 691 1505 l 261
 1045 1505 l 261
 1045 628 l 261
 1243 628 l 261
 1243 329 l 261
 1045 329 l 261
 1045 0 l 261
 653 0 l 261
 653 329 l 261
EndSplineSet
Substitution2: "'sups' Superscript lookup 0 subtable" uni2074
Substitution2: "'subs' Subscript lookup 0 subtable" uni2084
Substitution2: "'sinf' Scientific Inferiors lookup 20 subtable" uni2084
Substitution2: "'tnum' Tabular Numbers lookup 22 subtable" four.tnum
Substitution2: "'onum' Oldstyle Figures lookup 23 subtable" four.onum
Substitution2: "'smcp' Lowercase to Small Capitals in Latin lookup 0 subtable" four.SC
EndChar

StartChar: g
Encoding: 103 103 116
Width: 1213
GlyphClass: 2
Flags: HMW
LayerCount: 2
Back
SplineSet
706 1135 m 257
 1096 1135 l 257
 1096 146 l 258
 1096 -282 830 -471 498 -471 c 0
 343 -471 244 -450 91 -372 c 257
 223 -83 l 257
 292 -120 377 -140 454 -140 c 0
 590 -140 706 -81 706 41 c 258
 706 1135 l 257
EndSplineSet
Fore
SplineSet
590 -471 m 0
 245 -471 85 -301 104 -87 c 1
 434 -87 l 1
 434 -129 470 -169 570 -169 c 0
 671 -169 706 -127 706 -87 c 2
 706 1135 l 1
 1096 1135 l 1
 1096 -87 l 2
 1096 -288 940 -471 590 -471 c 0
EndSplineSet
Refer: 318 57359 N -1 0 0 -1 1135 1134 2
Substitution2: "'smcp' Lowercase to Small Capitals in Latin lookup 0 subtable" uni0262
EndChar

StartChar: germandbls
Encoding: 223 223 117
Width: 1195
GlyphClass: 2
Flags: HMW
LayerCount: 2
Fore
SplineSet
544 0 m 257
 577 325 l 257
 610 320 656 316 688 316 c 0
 756 316 758 333 758 349 c 0
 758 369 731 403 694 428 c 0
 623 477 520 549 520 695 c 256
 520 801 567 870 607 926 c 256
 638 969 654 1024 654 1064 c 256
 654 1111 622 1146 561 1146 c 256
 492 1146 467 1096 467 1021 c 258
 467 0 l 257
 112 0 l 257
 112 1021 l 258
 112 1229 262 1453 561 1453 c 256
 851 1453 1010 1234 1010 1021 c 256
 1010 873 965 793 900 729 c 256
 884 713 877 703 877 694 c 0
 877 680 893 670 927 650 c 256
 1001 604 1125 491 1125 314 c 256
 1125 58 978 -11 735 -11 c 0
 676 -11 612 -6 544 0 c 257
EndSplineSet
EndChar

StartChar: grave
Encoding: 96 96 118
Width: 492
GlyphClass: 2
Flags: HMW
LayerCount: 2
Back
SplineSet
432 1226 m 257
 314 1135 l 257
 60 1460 l 257
 175 1552 l 257
 432 1226 l 257
EndSplineSet
Fore
SplineSet
442 1135 m 257
 214 1135 l 257
 50 1485 l 257
 315 1485 l 257
 442 1135 l 257
EndSplineSet
EndChar

StartChar: greater
Encoding: 62 62 119
Width: 783
VWidth: 2150
GlyphClass: 2
Flags: HMW
LayerCount: 2
Back
SplineSet
722 762 m 0
 722 492 475 293 289 160 c 1
 142 360 l 1
 256 435 465 599 465 762 c 0
 465 925 256 1088 142 1163 c 1
 289 1363 l 1
 475 1230 722 1032 722 762 c 0
EndSplineSet
Fore
SplineSet
191 236 m 257
 40 390 l 257
 441 754 l 257
 40 1118 l 257
 191 1273 l 257
 743 754 l 257
 191 236 l 257
EndSplineSet
EndChar

StartChar: h
Encoding: 104 104 122
Width: 1274
GlyphClass: 2
Flags: HMW
LayerCount: 2
Fore
SplineSet
492 0 m 257
 101 0 l 257
 101 1561 l 257
 492 1561 l 257
 492 0 l 257
EndSplineSet
Refer: 316 57357 N 1 0 0 1 79 0 2
Substitution2: "'smcp' Lowercase to Small Capitals in Latin lookup 0 subtable" uni029C
EndChar

StartChar: hyphen
Encoding: 45 45 123
Width: 1057
GlyphClass: 2
Flags: HMW
LayerCount: 2
Fore
SplineSet
997 782 m 257
 997 505 l 257
 60 505 l 257
 60 782 l 257
 997 782 l 257
EndSplineSet
Substitution2: "'tnum' Tabular Numbers lookup 22 subtable" hyphen.tnum
EndChar

StartChar: k
Encoding: 107 107 130
Width: 1325
GlyphClass: 2
Flags: HMW
LayerCount: 2
Fore
SplineSet
789 1135 m 257
 1277 1135 l 257
 870 620 l 257
 1317 0 l 257
 829 0 l 257
 650 374 l 257
 505 227 l 257
 505 0 l 257
 117 0 l 257
 117 1561 l 257
 505 1561 l 257
 505 709 l 257
 789 1135 l 257
EndSplineSet
Substitution2: "'smcp' Lowercase to Small Capitals in Latin lookup 0 subtable" uni1D0B
EndChar

StartChar: l
Encoding: 108 108 131
Width: 652
GlyphClass: 2
Flags: HMW
LayerCount: 2
Fore
SplineSet
521 0 m 257
 131 0 l 257
 131 1561 l 257
 521 1561 l 257
 521 0 l 257
EndSplineSet
Substitution2: "'smcp' Lowercase to Small Capitals in Latin lookup 0 subtable" uni029F
EndChar

StartChar: less
Encoding: 60 60 132
Width: 783
VWidth: 2150
GlyphClass: 2
Flags: HMW
LayerCount: 2
Back
SplineSet
101 762 m 0
 101 1032 347 1230 533 1363 c 1
 681 1163 l 1
 567 1088 357 925 357 762 c 0
 357 599 567 435 681 360 c 1
 533 160 l 1
 347 293 101 492 101 762 c 0
EndSplineSet
Fore
SplineSet
592 1272 m 257
 743 1118 l 257
 342 754 l 257
 743 390 l 257
 592 235 l 257
 40 754 l 257
 592 1272 l 257
EndSplineSet
EndChar

StartChar: logicalnot
Encoding: 172 172 133
Width: 1085
GlyphClass: 2
Flags: HMW
LayerCount: 2
Fore
SplineSet
65 505 m 257
 65 782 l 257
 934 782 l 257
 934 254 l 257
 657 254 l 257
 657 505 l 257
 65 505 l 257
EndSplineSet
EndChar

StartChar: m
Encoding: 109 109 134
Width: 1976
GlyphClass: 2
Flags: HMW
LayerCount: 2
Fore
SplineSet
122 1135 m 257
 492 1135 l 257
 512 885 l 1
 512 0 l 257
 122 0 l 257
 122 1135 l 257
EndSplineSet
Refer: 315 57356 N 1 0 0 1 -492 0 2
Refer: 315 57356 N 1 0 0 1 180 0 2
Substitution2: "'smcp' Lowercase to Small Capitals in Latin lookup 0 subtable" uni1D0D
EndChar

StartChar: macron
Encoding: 175 175 135
Width: 928
GlyphClass: 2
Flags: HMW
LayerCount: 2
Fore
SplineSet
868 1362 m 257
 868 1135 l 257
 60 1135 l 257
 60 1362 l 257
 868 1362 l 257
EndSplineSet
EndChar

StartChar: mu
Encoding: 181 181 136
Width: 1272
GlyphClass: 2
Flags: HMW
LayerCount: 2
Fore
SplineSet
110 1135 m 257
 500 1135 l 257
 500 -426 l 257
 110 -426 l 257
 110 1135 l 257
EndSplineSet
Refer: 188 117 N 1 0 0 1 0 0 2
EndChar

StartChar: multiply
Encoding: 215 215 137
Width: 1119
GlyphClass: 2
Flags: HMW
LayerCount: 2
Fore
SplineSet
798 1073 m 257
 994 877 l 257
 755 640 l 257
 994 401 l 257
 800 205 l 257
 559 444 l 257
 322 205 l 257
 127 401 l 257
 365 640 l 257
 127 875 l 257
 323 1072 l 257
 559 834 l 257
 798 1073 l 257
EndSplineSet
Substitution2: "'tnum' Tabular Numbers lookup 22 subtable" multiply.tnum
EndChar

StartChar: n
Encoding: 110 110 138
Width: 1274
GlyphClass: 2
Flags: HMW
LayerCount: 2
Fore
SplineSet
492 0 m 257
 101 0 l 257
 101 1135 l 257
 472 1135 l 257
 492 885 l 1
 492 0 l 257
EndSplineSet
Refer: 316 57357 N 1 0 0 1 79 0 2
Substitution2: "'smcp' Lowercase to Small Capitals in Latin lookup 0 subtable" uni0274
EndChar

StartChar: nine
Encoding: 57 57 139
Width: 1260
GlyphClass: 2
Flags: HMW
LayerCount: 2
Fore
SplineSet
612 828 m 0
 658 828 726 839 783 871 c 1
 783 1131 721 1183 619 1183 c 0
 533 1183 466 1120 466 996 c 0
 466 878 528 828 612 828 c 0
573 -11 m 0
 313 -11 91 137 91 437 c 1
 412 437 l 1
 412 351 471 311 586 311 c 0
 722 311 793 383 793 570 c 1
 703 498 635 487 527 487 c 0
 279 487 81 672 81 967 c 0
 81 1289 276 1515 612 1515 c 0
 1024 1515 1160 1242 1160 799 c 0
 1160 245 944 -11 573 -11 c 0
EndSplineSet
Substitution2: "'sups' Superscript lookup 0 subtable" uni2079
Substitution2: "'subs' Subscript lookup 0 subtable" uni2089
Substitution2: "'sinf' Scientific Inferiors lookup 20 subtable" uni2089
Substitution2: "'tnum' Tabular Numbers lookup 22 subtable" nine.tnum
Substitution2: "'onum' Oldstyle Figures lookup 23 subtable" nine.onum
Substitution2: "'smcp' Lowercase to Small Capitals in Latin lookup 0 subtable" nine.SC
EndChar

StartChar: numbersign
Encoding: 35 35 141
Width: 1940
GlyphClass: 2
Flags: HMW
LayerCount: 2
Fore
SplineSet
1135 884 m 257
 874 884 l 257
 802 621 l 257
 1063 621 l 257
 1135 884 l 257
630 0 m 257
 296 0 l 257
 396 360 l 257
 162 360 l 257
 162 621 l 257
 468 621 l 257
 541 884 l 257
 253 884 l 257
 253 1144 l 257
 612 1144 l 257
 707 1482 l 257
 1039 1482 l 257
 946 1144 l 257
 1208 1144 l 257
 1303 1482 l 257
 1635 1482 l 257
 1540 1144 l 257
 1779 1144 l 257
 1779 884 l 257
 1469 884 l 257
 1397 621 l 257
 1689 621 l 257
 1689 360 l 257
 1325 360 l 257
 1226 0 l 257
 892 0 l 257
 992 360 l 257
 729 360 l 257
 630 0 l 257
EndSplineSet
Substitution2: "'tnum' Tabular Numbers lookup 22 subtable" numbersign.tnum
EndChar

StartChar: o
Encoding: 111 111 142
Width: 1211
GlyphClass: 2
Flags: HMW
LayerCount: 2
Fore
SplineSet
606 836 m 256
 510 836 451 764 451 567 c 256
 451 370 508 297 606 297 c 256
 704 297 761 370 761 567 c 256
 761 764 702 836 606 836 c 256
606 1145 m 256
 980 1145 1151 908 1151 567 c 256
 1151 226 978 -11 606 -11 c 256
 234 -11 60 226 60 567 c 256
 60 908 232 1145 606 1145 c 256
EndSplineSet
Substitution2: "'smcp' Lowercase to Small Capitals in Latin lookup 0 subtable" uni1D0F
EndChar

StartChar: one
Encoding: 49 49 148
Width: 952
GlyphClass: 2
Flags: HMW
LayerCount: 2
Fore
SplineSet
414 1031 m 1
 370 985 233 940 50 940 c 1
 50 1242 l 1
 319 1242 414 1287 414 1505 c 1
 802 1505 l 1
 802 0 l 1
 414 0 l 1
 414 1031 l 1
EndSplineSet
Substitution2: "'sups' Superscript lookup 0 subtable" uni00B9
Substitution2: "'subs' Subscript lookup 0 subtable" uni2081
Substitution2: "'sinf' Scientific Inferiors lookup 20 subtable" uni2081
Substitution2: "'tnum' Tabular Numbers lookup 22 subtable" one.tnum
Substitution2: "'onum' Oldstyle Figures lookup 23 subtable" one.onum
Substitution2: "'smcp' Lowercase to Small Capitals in Latin lookup 0 subtable" one.SC
EndChar

StartChar: ordfeminine
Encoding: 170 170 151
Width: 789
GlyphClass: 2
Flags: HMW
LayerCount: 2
Fore
SplineSet
463 1544 m 1
 463 1593 l 2
 463 1636 441 1655 379 1655 c 0
 318 1655 296 1637 296 1593 c 1
 94 1593 l 1
 82 1743 180 1840 391 1840 c 0
 606 1840 701 1735 701 1593 c 2
 701 1323 l 2
 701 1290 713 1273 749 1273 c 1
 749 1131 l 1
 630 1109 526 1133 484 1222 c 1
 441 1160 376 1125 278 1125 c 0
 158 1125 80 1196 80 1317 c 0
 80 1473 222 1554 365 1554 c 0
 400 1554 433 1549 463 1544 c 1
463 1405 m 1
 442 1410 421 1412 404 1412 c 0
 338 1412 289 1384 289 1341 c 0
 289 1312 311 1292 352 1292 c 0
 397 1292 439 1313 463 1337 c 1
 463 1405 l 1
EndSplineSet
EndChar

StartChar: p
Encoding: 112 112 155
Width: 1204
GlyphClass: 2
Flags: HMW
LayerCount: 2
Fore
SplineSet
117 1135 m 257
 507 1135 l 257
 507 -429 l 257
 117 -429 l 257
 117 1135 l 257
EndSplineSet
Refer: 318 57359 N 1 0 0 1 79 0 2
Substitution2: "'smcp' Lowercase to Small Capitals in Latin lookup 0 subtable" uni1D18
EndChar

StartChar: paragraph
Encoding: 182 182 156
Width: 1484
GlyphClass: 2
Flags: HMW
LayerCount: 2
Fore
SplineSet
1364 -461 m 257
 1088 -461 l 257
 1088 1171 l 257
 976 1171 l 257
 976 -461 l 257
 698 -461 l 257
 698 304 l 257
 635 304 l 258
 294 304 100 578 100 903 c 256
 100 1228 293 1506 635 1506 c 258
 1364 1506 l 257
 1364 -461 l 257
EndSplineSet
EndChar

StartChar: parenleft
Encoding: 40 40 157
Width: 696
GlyphClass: 2
Flags: HMW
LayerCount: 2
Fore
SplineSet
410 1631 m 1
 656 1495 l 1
 516 1249 437 904 437 525 c 0
 437 146 516 -199 656 -445 c 1
 410 -582 l 1
 194 -212 80 124 80 525 c 0
 80 925 194 1261 410 1631 c 1
EndSplineSet
Substitution2: "'tnum' Tabular Numbers lookup 22 subtable" parenleft.tnum
EndChar

StartChar: parenright
Encoding: 41 41 158
Width: 696
GlyphClass: 2
Flags: HMW
LayerCount: 2
Fore
SplineSet
286 -582 m 1
 40 -446 l 1
 180 -200 259 145 259 524 c 0
 259 903 180 1248 40 1494 c 1
 286 1631 l 1
 502 1261 616 925 616 524 c 0
 616 124 502 -212 286 -582 c 1
EndSplineSet
Substitution2: "'tnum' Tabular Numbers lookup 22 subtable" parenright.tnum
EndChar

StartChar: period
Encoding: 46 46 160
Width: 622
GlyphClass: 2
Flags: HMW
LayerCount: 2
Fore
SplineSet
120 177 m 256
 120 280 208 360 311 360 c 256
 414 360 502 280 502 177 c 256
 502 74 414 -11 311 -11 c 256
 208 -11 120 74 120 177 c 256
EndSplineSet
Substitution2: "'tnum' Tabular Numbers lookup 22 subtable" period.tnum
EndChar

StartChar: periodcentered
Encoding: 183 183 161
Width: 582
GlyphClass: 2
Flags: HMW
LayerCount: 2
Fore
SplineSet
100 755 m 256
 100 858 188 938 291 938 c 256
 394 938 482 858 482 755 c 256
 482 652 394 567 291 567 c 256
 188 567 100 652 100 755 c 256
EndSplineSet
EndChar

StartChar: plus
Encoding: 43 43 162
Width: 1005
GlyphClass: 2
Flags: HMW
LayerCount: 2
Fore
SplineSet
947 728 m 257
 947 450 l 257
 656 450 l 257
 656 145 l 257
 350 145 l 257
 350 450 l 257
 60 450 l 257
 60 728 l 257
 350 728 l 257
 350 1032 l 257
 656 1032 l 257
 656 728 l 257
 947 728 l 257
EndSplineSet
Substitution2: "'tnum' Tabular Numbers lookup 22 subtable" plus.tnum
EndChar

StartChar: q
Encoding: 113 113 164
Width: 1202
GlyphClass: 2
Flags: HMW
LayerCount: 2
Fore
SplineSet
696 1135 m 257
 1086 1135 l 257
 1086 -438 l 257
 696 -438 l 257
 696 1135 l 257
EndSplineSet
Refer: 318 57359 N -1 0 0 -1 1126 1135 2
Substitution2: "'smcp' Lowercase to Small Capitals in Latin lookup 0 subtable" uniA7EE
EndChar

StartChar: question
Encoding: 63 63 165
Width: 1166
GlyphClass: 2
Flags: HMW
LayerCount: 2
Fore
SplineSet
563 -11 m 256
 460 -11 372 74 372 177 c 256
 372 280 460 360 563 360 c 256
 666 360 753 280 753 177 c 256
 753 74 666 -11 563 -11 c 256
451 931 m 257
 133 931 l 257
 119 988 112 1058 112 1108 c 0
 112 1367 291 1525 580 1525 c 0
 883 1525 1055 1309 1055 1111 c 256
 1055 906 966 826 882 751 c 0
 811 688 745 629 745 505 c 257
 389 505 l 257
 389 672 460 741 567 835 c 0
 660 915 700 973 700 1072 c 256
 700 1156 657 1219 567 1219 c 256
 468 1219 441 1140 441 1050 c 0
 441 1012 445 968 451 931 c 257
EndSplineSet
Substitution2: "'tnum' Tabular Numbers lookup 22 subtable" question.tnum
EndChar

StartChar: quoteleft
Encoding: 8216 8216 170
Width: 663
GlyphClass: 2
Flags: HMW
LayerCount: 2
Back
SplineSet
547 1406 m 256
 547 1268 436 1205 311 1193 c 257
 339 1120 422 1027 491 954 c 257
 371 842 l 257
 225 973 119 1132 119 1341 c 256
 119 1509 218 1611 342 1611 c 256
 469 1611 547 1516 547 1406 c 256
EndSplineSet
Fore
SplineSet
455 1600 m 1
 553 1118 l 1
 308 996 l 1
 110 1600 l 1
 455 1600 l 1
EndSplineSet
EndChar

StartChar: quoteright
Encoding: 8217 8217 171
Width: 663
GlyphClass: 2
Flags: HMW
LayerCount: 2
Back
SplineSet
119 1406 m 256
 119 1516 198 1611 325 1611 c 256
 449 1611 547 1509 547 1341 c 256
 547 1132 441 973 295 842 c 257
 174 954 l 257
 243 1027 326 1120 354 1193 c 257
 229 1205 119 1268 119 1406 c 256
EndSplineSet
Fore
SplineSet
208 1600 m 1
 553 1600 l 1
 355 996 l 1
 110 1118 l 1
 208 1600 l 1
EndSplineSet
EndChar

StartChar: quotesingle
Encoding: 39 39 172
Width: 400
GlyphClass: 2
Flags: HMW
LayerCount: 2
Fore
SplineSet
100 1505 m 257
 300 1505 l 257
 280 987 l 257
 120 987 l 257
 100 1505 l 257
EndSplineSet
EndChar

StartChar: r
Encoding: 114 114 173
Width: 939
GlyphClass: 2
Flags: HMW
LayerCount: 2
Fore
SplineSet
117 1135 m 257
 487 1135 l 257
 507 885 l 1
 507 0 l 257
 117 0 l 257
 117 1135 l 257
EndSplineSet
Refer: 317 57358 N 1 0 0 1 0 0 2
Substitution2: "'smcp' Lowercase to Small Capitals in Latin lookup 0 subtable" uni0280
EndChar

StartChar: registered
Encoding: 174 174 174
Width: 1733
GlyphClass: 2
Flags: HMW
LayerCount: 2
Fore
SplineSet
383 725 m 256
 383 443 611 230 868 230 c 256
 1125 230 1353 443 1353 725 c 256
 1353 1006 1125 1218 868 1218 c 256
 611 1218 383 1006 383 725 c 256
112 725 m 256
 112 1128 442 1467 868 1467 c 256
 1294 1467 1624 1128 1624 725 c 256
 1624 323 1295 -20 868 -20 c 256
 441 -20 112 323 112 725 c 256
1172 408 m 257
 971 408 l 257
 840 571 l 257
 835 571 830 571 823 571 c 1
 776 571 l 257
 776 406 l 257
 631 406 l 257
 631 1071 l 257
 881 1071 l 258
 1036 1071 1167 967 1167 821 c 256
 1167 720 1103 640 1016 600 c 257
 1172 408 l 257
776 713 m 257
 881 713 l 258
 950 713 1004 755 1004 821 c 256
 1004 888 950 930 881 930 c 258
 776 930 l 257
 776 713 l 257
EndSplineSet
EndChar

StartChar: s
Encoding: 115 115 175
Width: 1091
GlyphClass: 2
Flags: HMW
LayerCount: 2
Back
SplineSet
935 1048 m 1
 827 790 l 1
 748 822 666 842 599 842 c 0
 508 842 452 812 452 769 c 0
 452 728 502 717 593 698 c 0
 830.943359375 648.319335938 994 594 994 369 c 0
 994 126 759 -10 525 -10 c 0
 308 -10 149 50 71 100 c 1
 205 383 l 1
 267 344 402 291 520 291 c 0
 637 291 662 313 662 342 c 0
 662 376 633.92578125 398.639648438 516 423 c 0
 303 467 118 537 118 754 c 0
 118 993 326 1145 563 1145 c 0
 711 1145 847 1100 935 1048 c 1
EndSplineSet
Fore
SplineSet
548 1146 m 0
 862 1146 1035 991 1013 728 c 1
 707 738 l 1
 707 805 649 844 551 844 c 0
 470 844 417 818 417 777 c 0
 417 739 462 715 588 688 c 0
 890 623 1027 515 1027 340 c 0
 1027 130 830 -10 534 -10 c 0
 215 -10 29 153 54 410 c 1
 360 398 l 1
 360 326 421 292 546 292 c 0
 634 292 677 309 677 344 c 0
 677 386 617 417 479 447 c 0
 193 509 70 613 70 792 c 0
 70 1010 254 1146 548 1146 c 0
EndSplineSet
Substitution2: "'smcp' Lowercase to Small Capitals in Latin lookup 0 subtable" uniA731
EndChar

StartChar: section
Encoding: 167 167 176
Width: 1043
GlyphClass: 2
Flags: HMW
LayerCount: 2
Fore
SplineSet
964 330 m 0
 964 87 739 -29 505 -29 c 0
 288 -29 129 31 51 81 c 1
 185 378 l 1
 247 339 382 286 508 286 c 0
 583 286 632 295 632 326 c 0
 632 351 614 374 496 398 c 0
 283 442 118 508 118 725 c 0
 118 813 144 887 191 945 c 1
 138 993 108 1057 108 1151 c 0
 108 1390 308 1521 545 1521 c 0
 693 1521 818 1478 906 1426 c 1
 799 1174 l 1
 731 1202 633 1226 562 1226 c 0
 495 1226 444 1211 444 1167 c 0
 444 1131 478 1122 565 1102 c 0
 802 1048 954 981 954 756 c 0
 954 671 928 602 881 547 c 1
 935 497 964 429 964 330 c 0
540 680 m 256
 603 680 628 719 628 746 c 256
 628 772 608 807 549 807 c 256
 492 807 457 768 457 736 c 256
 457 710 481 680 540 680 c 256
EndSplineSet
EndChar

StartChar: seven
Encoding: 55 55 178
Width: 1140
GlyphClass: 2
Flags: HMW
LayerCount: 2
Fore
SplineSet
1081 1171 m 257
 748 829 589 455 589 0 c 257
 219 0 l 257
 219 420 362 844 632 1162 c 257
 51 1162 l 257
 51 1505 l 257
 1014 1505 l 257
 1081 1171 l 257
EndSplineSet
Substitution2: "'sups' Superscript lookup 0 subtable" uni2077
Substitution2: "'subs' Subscript lookup 0 subtable" uni2087
Substitution2: "'sinf' Scientific Inferiors lookup 20 subtable" uni2087
Substitution2: "'tnum' Tabular Numbers lookup 22 subtable" seven.tnum
Substitution2: "'onum' Oldstyle Figures lookup 23 subtable" seven.onum
Substitution2: "'smcp' Lowercase to Small Capitals in Latin lookup 0 subtable" seven.SC
EndChar

StartChar: six
Encoding: 54 54 179
Width: 1260
GlyphClass: 2
Flags: HMW
LayerCount: 2
Back
SplineSet
647.650390625 676.349609375 m 0
 601.75 676.349609375 533.25 665.549804688 476.549804688 633.150390625 c 1
 476.549804688 398 539.650390625 320.650390625 641.349609375 320.650390625 c 0
 727.75 320.650390625 794.450195312 384 794.450195312 507.950195312 c 0
 794.450195312 625.849609375 731.349609375 676.349609375 647.650390625 676.349609375 c 0
733 1017 m 0
 981 1017 1179 832 1179 537 c 0
 1179 215 984 -11 663 -11 c 0
 236 -11 100 262 100 705 c 0
 100 1253 316 1515 719 1515 c 0
 908 1515 1039 1465 1137.96679688 1406.55566406 c 1
 1010.91015625 1101.94628906 l 1
 926 1147 820 1168 736 1168 c 0
 586 1168 447 1129 447 934 c 1
 537 1006 625 1017 733 1017 c 0
EndSplineSet
Fore
SplineSet
648 676 m 0
 602 676 534 665 477 633 c 1
 477 373 539 321 641 321 c 0
 727 321 794 384 794 508 c 0
 794 626 732 676 648 676 c 0
687 1515 m 0
 947 1515 1169 1367 1169 1067 c 1
 848 1067 l 1
 848 1153 789 1193 674 1193 c 0
 538 1193 467 1121 467 934 c 1
 557 1006 625 1017 733 1017 c 0
 981 1017 1179 832 1179 537 c 0
 1179 215 984 -11 648 -11 c 0
 236 -11 100 262 100 705 c 0
 100 1259 316 1515 687 1515 c 0
EndSplineSet
Substitution2: "'sups' Superscript lookup 0 subtable" uni2076
Substitution2: "'subs' Subscript lookup 0 subtable" uni2086
Substitution2: "'sinf' Scientific Inferiors lookup 20 subtable" uni2086
Substitution2: "'tnum' Tabular Numbers lookup 22 subtable" six.tnum
Substitution2: "'onum' Oldstyle Figures lookup 23 subtable" six.onum
Substitution2: "'smcp' Lowercase to Small Capitals in Latin lookup 0 subtable" six.SC
EndChar

StartChar: slash
Encoding: 47 47 180
Width: 1156
GlyphClass: 2
Flags: HMW
LayerCount: 2
Fore
SplineSet
656 1505 m 257
 1126 1505 l 257
 498 0 l 257
 30 0 l 257
 656 1505 l 257
EndSplineSet
Substitution2: "'tnum' Tabular Numbers lookup 22 subtable" slash.tnum
Substitution2: "'smcp' Lowercase to Small Capitals in Latin lookup 0 subtable" slash.sc
EndChar

StartChar: sterling
Encoding: 163 163 182
Width: 1328
GlyphClass: 2
Flags: HMW
LayerCount: 2
Fore
SplineSet
707 1180 m 256
 642 1180 621 1141 621 1065 c 258
 621 382 l 258
 621 364 618 347 604 331 c 257
 1229 331 l 257
 1229 0 l 257
 101 0 l 257
 101 331 l 257
 182 331 230 333 230 382 c 258
 230 1065 l 258
 230 1292 363 1515 707 1515 c 256
 1029 1515 1197 1343 1182 1065 c 257
 796 1065 l 257
 796 1145 771 1180 707 1180 c 256
EndSplineSet
Refer: 313 57354 N 1 0 0 1 39 20 2
EndChar

StartChar: t
Encoding: 116 116 183
Width: 793
GlyphClass: 2
Flags: HMW
LayerCount: 2
Fore
SplineSet
771 297 m 1
 825 45 l 1
 738 10 637 -11 540 -11 c 0
 342 -11 163 77 163 317 c 2
 163 1425 l 1
 553 1425 l 1
 553 363 l 2
 553 308 593 281 660 281 c 0
 691 281 729 285 771 297 c 1
EndSplineSet
Refer: 313 57354 N 1 0 0 1 -45 311 2
Substitution2: "'smcp' Lowercase to Small Capitals in Latin lookup 0 subtable" uni1D1B
EndChar

StartChar: three
Encoding: 51 51 185
Width: 1223
GlyphClass: 2
Flags: HMW
LayerCount: 2
Fore
SplineSet
51 525 m 257
 435 525 l 257
 417 386 492 312 588 312 c 256
 690 312 752 370 752 467 c 256
 752 557 696 627 579 627 c 258
 427 627 l 257
 427 896 l 257
 579 896 l 258
 667 896 709 967 709 1041 c 256
 709 1116 661 1177 587 1177 c 256
 492 1177 449 1097 464 1001 c 257
 116 1001 l 257
 93 1332 280 1515 600 1515 c 256
 819 1515 1081 1359 1081 1049 c 256
 1081 967 1032 835 928 769 c 257
 1028 718 1114 564 1114 439 c 256
 1114 138 880 -11 585 -11 c 256
 243 -11 22 166 51 525 c 257
EndSplineSet
Substitution2: "'sups' Superscript lookup 0 subtable" uni00B3
Substitution2: "'subs' Subscript lookup 0 subtable" uni2083
Substitution2: "'sinf' Scientific Inferiors lookup 20 subtable" uni2083
Substitution2: "'tnum' Tabular Numbers lookup 22 subtable" three.tnum
Substitution2: "'onum' Oldstyle Figures lookup 23 subtable" three.onum
Substitution2: "'smcp' Lowercase to Small Capitals in Latin lookup 0 subtable" three.SC
EndChar

StartChar: two
Encoding: 50 50 187
Width: 1151
GlyphClass: 2
Flags: HMW
LayerCount: 2
Fore
SplineSet
81 992 m 257
 52 1296 261 1515 579 1515 c 256
 906 1515 1091 1330 1091 1072 c 256
 1091 790 905 647 733 544 c 0
 616 474 529 413 509 331 c 257
 1091 331 l 257
 1091 0 l 257
 80 0 l 257
 70 57 66 110 66 158 c 0
 66 479 263 604 496 750 c 0
 637 838 749 916 749 1020 c 0
 749 1110 698 1194 586 1194 c 0
 475 1194 408 1126 419 992 c 257
 81 992 l 257
EndSplineSet
Substitution2: "'sups' Superscript lookup 0 subtable" uni00B2
Substitution2: "'subs' Subscript lookup 0 subtable" uni2082
Substitution2: "'sinf' Scientific Inferiors lookup 20 subtable" uni2082
Substitution2: "'tnum' Tabular Numbers lookup 22 subtable" two.tnum
Substitution2: "'onum' Oldstyle Figures lookup 23 subtable" two.onum
Substitution2: "'smcp' Lowercase to Small Capitals in Latin lookup 0 subtable" two.SC
EndChar

StartChar: u
Encoding: 117 117 188
Width: 1272
GlyphClass: 2
Flags: HMW
LayerCount: 2
Fore
SplineSet
782 1135 m 257
 1172 1135 l 257
 1172 0 l 257
 802 0 l 257
 782 250 l 1
 782 1135 l 257
EndSplineSet
Refer: 316 57357 N -1 0 0 -1 1195 1135 2
Substitution2: "'smcp' Lowercase to Small Capitals in Latin lookup 0 subtable" uni1D1C
EndChar

StartChar: underscore
Encoding: 95 95 193
Width: 1200
GlyphClass: 2
Flags: HMW
LayerCount: 2
Fore
SplineSet
1100 0 m 257
 1100 -390 l 257
 100 -390 l 257
 100 0 l 257
 1100 0 l 257
EndSplineSet
EndChar

StartChar: uni00AD
Encoding: 173 173 195
Width: 1005
GlyphClass: 2
Flags: HMW
LayerCount: 2
Fore
SplineSet
947 782 m 257
 947 505 l 257
 60 505 l 257
 60 782 l 257
 947 782 l 257
EndSplineSet
EndChar

StartChar: uni00B2
Encoding: 178 178 196
Width: 648
GlyphClass: 2
Flags: HMW
LayerCount: 2
Fore
SplineSet
80 1135 m 257
 80 1277 l 257
 363 1507 l 258
 401 1538 418 1560 418 1604 c 256
 418 1655 380 1691 323 1691 c 256
 259 1691 228 1650 228 1589 c 257
 80 1589 l 257
 80 1759 201 1840 323 1840 c 256
 437 1840 568 1763 568 1604 c 256
 568 1519 524 1445 463 1399 c 258
 319 1284 l 257
 564 1284 l 257
 564 1135 l 257
 80 1135 l 257
EndSplineSet
EndChar

StartChar: uni00B3
Encoding: 179 179 197
Width: 655
GlyphClass: 2
Flags: HMW
LayerCount: 2
Fore
SplineSet
249 1619 m 9
 102 1619 l 17
 102 1759 187 1840 330 1840 c 0
 433 1840 561 1767 561 1622 c 0
 561 1578 535 1514 476 1488 c 1
 540 1465 575 1400 575 1336 c 0
 575 1195 468 1125 328 1125 c 0
 176 1125 80 1203 80 1352 c 9
 245 1352 l 17
 245 1295 279 1270 328 1270 c 0
 385 1270 415 1298 415 1347 c 0
 415 1393 384 1425 325 1425 c 2
 257 1425 l 1
 257 1545 l 1
 325 1545 l 2
 371 1545 392 1579 392 1617 c 0
 392 1655 366 1689 322 1689 c 0
 274 1689 249 1659 249 1619 c 9
EndSplineSet
EndChar

StartChar: uni00B9
Encoding: 185 185 198
Width: 502
GlyphClass: 2
Flags: HMW
LayerCount: 2
Fore
SplineSet
80 1539 m 257
 80 1688 l 257
 273 1688 l 257
 273 1830 l 257
 422 1830 l 257
 422 1135 l 257
 273 1135 l 257
 273 1539 l 257
 80 1539 l 257
EndSplineSet
EndChar

StartChar: uni0237
Encoding: 567 567 199
Width: 592
GlyphClass: 2
Flags: HMW
LayerCount: 2
Fore
SplineSet
-169 -382 m 1
 -117 -130 l 1
 -75 -142 -36 -146 -5 -146 c 0
 62 -146 100 -118 100 -63 c 2
 100 1135 l 1
 492 1135 l 1
 492 -110 l 2
 492 -350 314 -438 116 -438 c 0
 19 -438 -82 -417 -169 -382 c 1
EndSplineSet
EndChar

StartChar: uni060C
Encoding: 1548 1548 200
Width: 590
GlyphClass: 2
Flags: HMW
LayerCount: 2
Back
SplineSet
330 442.76171875 m 0
 330 387.875976562 372.377266616 372.91015625 525 372.91015625 c 1
 501 0 l 1
 356 0 l 2
 189.797439165 0 107 91.529296875 107 275.88671875 c 0
 107 472.106445312 200.794894497 665.796487045 349 775 c 1
 452 651 l 1
 382.146068754 593.072738797 330 503.645507812 330 442.76171875 c 0
EndSplineSet
Fore
SplineSet
300 372 m 1
 412 372 499 289 499 184 c 0
 499 80 414 0 319 0 c 0
 189 0 107 93 107 244 c 0
 107 417 189 596 328 721 c 1
 441 610 l 1
 373 534 326 461 300 372 c 1
EndSplineSet
EndChar

StartChar: uni061F
Encoding: 1567 1567 203
Width: 1166
GlyphClass: 2
Flags: HMW
LayerCount: 2
Fore
SplineSet
605 -11 m 256
 502 -11 414 74 414 177 c 256
 414 280 502 360 605 360 c 256
 708 360 795 280 795 177 c 256
 795 74 708 -11 605 -11 c 256
716 931 m 257
 722 968 728 1012 728 1050 c 0
 728 1140 700 1219 601 1219 c 256
 511 1219 467 1156 467 1072 c 256
 467 973 508 915 601 835 c 0
 708 741 778 672 778 505 c 257
 423 505 l 257
 423 629 357 688 286 751 c 0
 202 826 112 907 112 1111 c 256
 112 1309 284 1525 587 1525 c 0
 876 1525 1055 1367 1055 1108 c 0
 1055 1058 1050 988 1036 931 c 257
 716 931 l 257
EndSplineSet
Substitution2: "'tnum' Tabular Numbers lookup 22 subtable" uni061F.tnum
EndChar

StartChar: uni0660
Encoding: 1632 1632 255
Width: 802
VWidth: 2847
GlyphClass: 2
Flags: HMW
LayerCount: 2
Fore
SplineSet
400 751 m 256
 100 449 l 256
 400 146 l 256
 702 449 l 256
 400 751 l 256
EndSplineSet
Substitution2: "'tnum' Tabular Numbers lookup 22 subtable" uni0660.tnum
PairPos2: "'kern' Horizontal Kerning in Arabic lookup 7 subtable" uni0661 dx=45 dy=0 dh=45 dv=0 dx=0 dy=0 dh=0 dv=0
PairPos2: "'kern' Horizontal Kerning in Arabic lookup 7 subtable" uni0667 dx=-89 dy=0 dh=-89 dv=0 dx=0 dy=0 dh=0 dv=0
PairPos2: "'kern' Horizontal Kerning in Arabic lookup 7 subtable" uni0662 dx=-111 dy=0 dh=-111 dv=0 dx=0 dy=0 dh=0 dv=0
EndChar

StartChar: uni0661
Encoding: 1633 1633 256
Width: 786
GlyphClass: 2
Flags: HMW
LayerCount: 2
Fore
SplineSet
686 0 m 257
 295 0 l 257
 295 567 215 913 41 1394 c 257
 409 1525 l 257
 594 1015 686 608 686 0 c 257
EndSplineSet
Substitution2: "'tnum' Tabular Numbers lookup 22 subtable" uni0661.tnum
PairPos2: "'kern' Horizontal Kerning in Arabic lookup 7 subtable" uni0665 dx=-56 dy=0 dh=-56 dv=0 dx=0 dy=0 dh=0 dv=0
EndChar

StartChar: uni0662
Encoding: 1634 1634 257
Width: 1311
GlyphClass: 2
Flags: HMW
LayerCount: 2
Fore
SplineSet
654 1088 m 0
 746 1088 774 1146 803 1345 c 2
 829 1520 l 1
 1211 1459 l 1
 1168 1110 1106 704 726 704 c 0
 695 704 659 707 632 711 c 1
 669 486 685 259 685 0 c 1
 294 0 l 1
 294 520 231 866 40 1394 c 1
 408 1525 l 1
 471 1345 l 2
 546 1129 582 1088 654 1088 c 0
EndSplineSet
Substitution2: "'tnum' Tabular Numbers lookup 22 subtable" uni0662.tnum
EndChar

StartChar: uni0663
Encoding: 1635 1635 258
Width: 1588
GlyphClass: 2
Flags: HMW
LayerCount: 2
Fore
SplineSet
587 1072 m 0
 642 1072 669 1109 669 1224 c 0
 669 1358 668 1401 666 1453 c 1
 949 1453 l 1
 946 1386 944 1341 944 1191 c 0
 944 1095 976 1072 1023 1072 c 0
 1073 1072 1095 1095 1095 1190 c 0
 1095 1269 1085 1356 1069 1460 c 1
 1454 1525 l 1
 1476 1426 1488 1326 1488 1230 c 0
 1488 929 1366 682 1068 682 c 0
 943 682 855 725 799 803 c 1
 775 722 711 684 638 682 c 0
 636 682 633 682 631 682 c 1
 666 452 671 244 671 0 c 1
 281 0 l 1
 281 586 185 991 40 1399 c 1
 408 1525 l 1
 491 1189 l 2
 510 1110 536 1072 587 1072 c 0
EndSplineSet
Substitution2: "'tnum' Tabular Numbers lookup 22 subtable" uni0663.tnum
PairPos2: "'kern' Horizontal Kerning in Arabic lookup 7 subtable" uni0668 dx=-56 dy=0 dh=-56 dv=0 dx=0 dy=0 dh=0 dv=0
EndChar

StartChar: uni0664
Encoding: 1636 1636 259
Width: 1021
GlyphClass: 2
Flags: HMW
LayerCount: 2
Fore
SplineSet
298 751 m 257
 176 788 129 901 129 1002 c 256
 129 1356 498 1482 828 1525 c 257
 865 1149 l 257
 595 1124 528 1073 528 1012 c 256
 528 949 580 925 868 925 c 257
 868 603 l 257
 604 603 462 602 462 481 c 256
 462 414 524 377 608 377 c 258
 951 377 l 257
 951 0 l 257
 625 0 l 258
 275 0 71 138 71 419 c 256
 71 567 142 690 298 751 c 257
EndSplineSet
Substitution2: "'tnum' Tabular Numbers lookup 22 subtable" uni0664.tnum
PairPos2: "'kern' Horizontal Kerning in Arabic lookup 7 subtable" uni0666 dx=56 dy=0 dh=56 dv=0 dx=0 dy=0 dh=0 dv=0
EndChar

StartChar: uni0665
Encoding: 1637 1637 260
Width: 1334
GlyphClass: 2
Flags: HMW
LayerCount: 2
Fore
SplineSet
563 1525 m 257
 902 1275 1264 982 1264 520 c 256
 1264 143 991 -11 668 -11 c 256
 360 -11 71 137 71 486 c 256
 71 762 226 959 445 1119 c 257
 421 1141 354 1198 317 1227 c 257
 563 1525 l 257
665 889 m 257
 501 747 461 632 461 537 c 256
 461 442 519 380 668 380 c 256
 812 380 873 433 873 539 c 256
 873 622 828 726 665 889 c 257
EndSplineSet
Substitution2: "'tnum' Tabular Numbers lookup 22 subtable" uni0665.tnum
PairPos2: "'kern' Horizontal Kerning in Arabic lookup 7 subtable" uni0661 dx=56 dy=0 dh=56 dv=0 dx=0 dy=0 dh=0 dv=0
PairPos2: "'kern' Horizontal Kerning in Arabic lookup 7 subtable" uni0667 dx=-111 dy=0 dh=-111 dv=0 dx=0 dy=0 dh=0 dv=0
EndChar

StartChar: uni0666
Encoding: 1638 1638 261
Width: 1235
GlyphClass: 2
Flags: HMW
LayerCount: 2
Fore
SplineSet
71 1104 m 257
 71 1505 l 257
 828 1505 l 257
 1048 1251 l 257
 1045 1186 1044 1129 1044 1015 c 256
 1044 596 1081 461 1186 74 c 257
 806 -20 l 257
 698 392 652 566 652 1015 c 256
 652 1039 652 1082 652 1104 c 257
 71 1104 l 257
EndSplineSet
Substitution2: "'tnum' Tabular Numbers lookup 22 subtable" uni0666.tnum
PairPos2: "'kern' Horizontal Kerning in Arabic lookup 7 subtable" uni0664 dx=-56 dy=0 dh=-56 dv=0 dx=0 dy=0 dh=0 dv=0
PairPos2: "'kern' Horizontal Kerning in Arabic lookup 7 subtable" uni0665 dx=-195 dy=0 dh=-195 dv=0 dx=0 dy=0 dh=0 dv=0
PairPos2: "'kern' Horizontal Kerning in Arabic lookup 7 subtable" uni0660 dx=-222 dy=0 dh=-222 dv=0 dx=0 dy=0 dh=0 dv=0
PairPos2: "'kern' Horizontal Kerning in Arabic lookup 7 subtable" uni066B dx=-167 dy=0 dh=-167 dv=0 dx=0 dy=0 dh=0 dv=0
PairPos2: "'kern' Horizontal Kerning in Arabic lookup 7 subtable" uni0668 dx=-222 dy=0 dh=-222 dv=0 dx=0 dy=0 dh=0 dv=0
EndChar

StartChar: uni0667
Encoding: 1639 1639 262
Width: 1471
GlyphClass: 2
Flags: HMW
LayerCount: 2
Fore
SplineSet
1133 1575 m 257
 1442 1337 l 257
 1125 925 960 641 907 0 c 257
 566 0 l 257
 513 641 348 925 31 1337 c 257
 340 1575 l 257
 525 1338 669 1051 736 747 c 257
 803 1051 948 1338 1133 1575 c 257
EndSplineSet
Substitution2: "'tnum' Tabular Numbers lookup 22 subtable" uni0667.tnum
Substitution2: "'locl' Localized Forms in Arabic lookup 5 subtable" uni0667.urdu
PairPos2: "'kern' Horizontal Kerning in Arabic lookup 7 subtable" uni0660 dx=-111 dy=0 dh=-111 dv=0 dx=0 dy=0 dh=0 dv=0
PairPos2: "'kern' Horizontal Kerning in Arabic lookup 7 subtable" uni0665 dx=-111 dy=0 dh=-111 dv=0 dx=0 dy=0 dh=0 dv=0
PairPos2: "'kern' Horizontal Kerning in Arabic lookup 7 subtable" uni0668 dx=-167 dy=0 dh=-167 dv=0 dx=0 dy=0 dh=0 dv=0
PairPos2: "'kern' Horizontal Kerning in Arabic lookup 7 subtable" uni066B dx=-139 dy=0 dh=-139 dv=0 dx=0 dy=0 dh=0 dv=0
EndChar

StartChar: uni0668
Encoding: 1640 1640 263
Width: 1471
GlyphClass: 2
Flags: HMW
LayerCount: 2
Fore
SplineSet
340 -51 m 257
 31 187 l 257
 348 599 513 884 566 1525 c 257
 907 1525 l 257
 960 884 1125 599 1442 187 c 257
 1133 -51 l 257
 948 186 803 474 736 778 c 257
 669 474 525 186 340 -51 c 257
EndSplineSet
Substitution2: "'tnum' Tabular Numbers lookup 22 subtable" uni0668.tnum
PairPos2: "'kern' Horizontal Kerning in Arabic lookup 7 subtable" uni0663 dx=-222 dy=0 dh=-222 dv=0 dx=0 dy=0 dh=0 dv=0
PairPos2: "'kern' Horizontal Kerning in Arabic lookup 7 subtable" uni0662 dx=-195 dy=0 dh=-195 dv=0 dx=0 dy=0 dh=0 dv=0
PairPos2: "'kern' Horizontal Kerning in Arabic lookup 7 subtable" uni0667 dx=-167 dy=0 dh=-167 dv=0 dx=0 dy=0 dh=0 dv=0
EndChar

StartChar: uni0669
Encoding: 1641 1641 264
Width: 1203
GlyphClass: 2
Flags: HMW
LayerCount: 2
Fore
SplineSet
635 554 m 257
 593 539 545 532 492 532 c 0
 301 532 71 641 71 963 c 256
 71 1209 183 1528 525 1528 c 256
 889 1528 973 1261 986 893 c 256
 998 578 1037 350 1134 137 c 257
 773 -20 l 257
 702 189 656 378 635 554 c 257
608 916 m 257
 608 933 l 258
 608 1091 567 1137 517 1137 c 256
 481 1137 433 1107 433 994 c 256
 433 935 457 914 531 914 c 256
 557 914 587 915 608 916 c 257
EndSplineSet
Substitution2: "'tnum' Tabular Numbers lookup 22 subtable" uni0669.tnum
PairPos2: "'kern' Horizontal Kerning in Arabic lookup 7 subtable" uni0668 dx=-167 dy=0 dh=-167 dv=0 dx=0 dy=0 dh=0 dv=0
PairPos2: "'kern' Horizontal Kerning in Arabic lookup 7 subtable" uni0665 dx=-56 dy=0 dh=-56 dv=0 dx=0 dy=0 dh=0 dv=0
EndChar

StartChar: uni066B
Encoding: 1643 1643 266
Width: 889
GlyphClass: 2
Flags: HMW
LayerCount: 2
Fore
SplineSet
282 -614 m 257
 -135 -613 l 257
 392 739 l 257
 808 738 l 257
 282 -614 l 257
EndSplineSet
Substitution2: "'tnum' Tabular Numbers lookup 22 subtable" uni066B.tnum
PairPos2: "'kern' Horizontal Kerning in Arabic lookup 7 subtable" uni06F7 dx=-111 dy=0 dh=-111 dv=0 dx=0 dy=0 dh=0 dv=0
PairPos2: "'kern' Horizontal Kerning in Arabic lookup 7 subtable" uni06F0 dx=-56 dy=0 dh=-56 dv=0 dx=0 dy=0 dh=0 dv=0
PairPos2: "'kern' Horizontal Kerning in Arabic lookup 7 subtable" uni06F3 dx=-84 dy=0 dh=-84 dv=0 dx=0 dy=0 dh=0 dv=0
PairPos2: "'kern' Horizontal Kerning in Arabic lookup 7 subtable" uni06F2 dx=-111 dy=0 dh=-111 dv=0 dx=0 dy=0 dh=0 dv=0
PairPos2: "'kern' Horizontal Kerning in Arabic lookup 7 subtable" uni066B dx=-56 dy=0 dh=-56 dv=0 dx=0 dy=0 dh=0 dv=0
PairPos2: "'kern' Horizontal Kerning in Arabic lookup 7 subtable" uni0663 dx=-167 dy=0 dh=-167 dv=0 dx=0 dy=0 dh=0 dv=0
PairPos2: "'kern' Horizontal Kerning in Arabic lookup 7 subtable" uni0662 dx=-111 dy=0 dh=-111 dv=0 dx=0 dy=0 dh=0 dv=0
PairPos2: "'kern' Horizontal Kerning in Arabic lookup 7 subtable" uni0667 dx=-111 dy=0 dh=-111 dv=0 dx=0 dy=0 dh=0 dv=0
EndChar

StartChar: uni066C
Encoding: 1644 1644 267
Width: 623
GlyphClass: 2
Flags: HMW
LayerCount: 2
Fore
SplineSet
321 0 m 257
 197 27 136 96 136 191 c 256
 136 290 219 360 319 360 c 256
 421 360 512 291 512 139 c 256
 512 -33 429 -209 237 -344 c 257
 121 -210 l 257
 198 -155 288 -63 321 0 c 257
EndSplineSet
Substitution2: "'tnum' Tabular Numbers lookup 22 subtable" uni066C.tnum
EndChar

StartChar: uni066D
Encoding: 1645 1645 268
Width: 967
GlyphClass: 2
Flags: HMW
LayerCount: 2
Fore
SplineSet
621 768 m 257
 349 768 l 257
 363 1034 l 257
 144 889 l 257
 6 1125 l 257
 243 1244 l 257
 6 1364 l 257
 144 1599 l 257
 363 1455 l 257
 349 1717 l 257
 621 1717 l 257
 607 1455 l 257
 826 1599 l 257
 963 1364 l 257
 727 1244 l 257
 963 1125 l 257
 826 889 l 257
 607 1034 l 257
 621 768 l 257
EndSplineSet
Substitution2: "'tnum' Tabular Numbers lookup 22 subtable" uni066D.tnum
EndChar

StartChar: uni06F0
Encoding: 1776 1776 290
Width: 1004
GlyphClass: 2
Flags: HMW
LayerCount: 2
Fore
SplineSet
501 634 m 256
 432 634 402 592 402 536 c 256
 402 480 432 436 501 436 c 256
 570 436 601 480 601 536 c 256
 601 592 570 634 501 634 c 256
501 924 m 256
 732 924 891 752 891 536 c 256
 891 321 735 144 501 144 c 256
 267 144 113 322 113 536 c 256
 113 751 269 924 501 924 c 256
EndSplineSet
Substitution2: "'tnum' Tabular Numbers lookup 22 subtable" uni06F0.tnum
PairPos2: "'kern' Horizontal Kerning in Arabic lookup 7 subtable" uni06F1 dx=56 dy=0 dh=56 dv=0 dx=0 dy=0 dh=0 dv=0
PairPos2: "'kern' Horizontal Kerning in Arabic lookup 7 subtable" uni06F2 dx=-111 dy=0 dh=-111 dv=0 dx=0 dy=0 dh=0 dv=0
PairPos2: "'kern' Horizontal Kerning in Arabic lookup 7 subtable" uni06F3 dx=-111 dy=0 dh=-111 dv=0 dx=0 dy=0 dh=0 dv=0
PairPos2: "'kern' Horizontal Kerning in Arabic lookup 7 subtable" uni06F7 dx=-167 dy=0 dh=-167 dv=0 dx=0 dy=0 dh=0 dv=0
EndChar

StartChar: uni06F4
Encoding: 1780 1780 294
Width: 1287
GlyphClass: 2
Flags: HMW
LayerCount: 2
Fore
SplineSet
992 1535 m 0
 1077 1535 1170 1516 1268 1474 c 1
 1164 1112 l 1
 1106 1138 1018 1157 935 1157 c 0
 821 1157 720 1103 720 1014 c 0
 720 933 837 906 960 906 c 0
 1044 906 1131 917 1182 935 c 1
 1258 582 l 1
 1160 550 1065 534 975 534 c 0
 857 534 748 563 647 622 c 1
 682 347 682 259 682 0 c 1
 291 0 l 1
 291 545 215 946 51 1404 c 1
 435 1525 l 1
 473 1401 500 1313 550 1207 c 1
 607 1425 783 1535 992 1535 c 0
EndSplineSet
Substitution2: "'tnum' Tabular Numbers lookup 22 subtable" uni06F4.tnum
Substitution2: "'locl' Localized Forms in Arabic lookup 5 subtable" uni0664.urdu
PairPos2: "'kern' Horizontal Kerning in Arabic lookup 7 subtable" uni06F8 dx=-56 dy=0 dh=-56 dv=0 dx=0 dy=0 dh=0 dv=0
EndChar

StartChar: uni06F5
Encoding: 1781 1781 295
Width: 1382
GlyphClass: 2
Flags: HMW
LayerCount: 2
Fore
SplineSet
704 119 m 257
 657 29 584 -11 446 -11 c 256
 228 -11 71 158 71 419 c 256
 71 696 208 944 484 1131 c 257
 465 1150 382 1216 358 1235 c 257
 570 1525 l 257
 655 1466 726 1415 820 1336 c 256
 1119 1082 1313 771 1313 459 c 256
 1313 154 1165 -11 948 -11 c 256
 829 -11 745 29 704 119 c 257
579 554 m 257
 814 554 l 257
 820 467 l 258
 824 407 845 381 891 381 c 256
 927 381 961 396 961 469 c 256
 961 578 892 734 699 907 c 257
 472 728 432 586 432 484 c 256
 432 400 463 381 507 381 c 256
 555 381 572 413 574 463 c 258
 579 554 l 257
EndSplineSet
Substitution2: "'tnum' Tabular Numbers lookup 22 subtable" uni06F5.tnum
PairPos2: "'kern' Horizontal Kerning in Arabic lookup 7 subtable" uni06F1 dx=56 dy=0 dh=56 dv=0 dx=0 dy=0 dh=0 dv=0
PairPos2: "'kern' Horizontal Kerning in Arabic lookup 7 subtable" uni06F2 dx=-56 dy=0 dh=-56 dv=0 dx=0 dy=0 dh=0 dv=0
PairPos2: "'kern' Horizontal Kerning in Arabic lookup 7 subtable" uni06F3 dx=-56 dy=0 dh=-56 dv=0 dx=0 dy=0 dh=0 dv=0
PairPos2: "'kern' Horizontal Kerning in Arabic lookup 7 subtable" uni06F7 dx=-111 dy=0 dh=-111 dv=0 dx=0 dy=0 dh=0 dv=0
EndChar

StartChar: uni06F6
Encoding: 1782 1782 296
Width: 1219
GlyphClass: 2
Flags: HMW
LayerCount: 2
Fore
SplineSet
392 576 m 1
 200 656 101 806 101 986 c 0
 101 1318 364 1515 637 1515 c 0
 794 1515 919 1470 1048 1387 c 1
 879 1080 l 1
 821 1113 752 1133 672 1133 c 0
 572 1133 477 1094 477 997 c 0
 477 917 576 881 684 881 c 0
 792 881 888 923 966 962 c 2
 1010 984 l 1
 1169 620 l 1
 1149 612 l 2
 823 483 668 293 381 -77 c 1
 71 161 l 1
 180 317 272 441 392 576 c 1
EndSplineSet
Substitution2: "'tnum' Tabular Numbers lookup 22 subtable" uni0666.tnum
Substitution2: "'locl' Localized Forms in Arabic lookup 5 subtable" uni0666
EndChar

StartChar: uni200C
Encoding: 8204 8204 301
Width: 0
GlyphClass: 2
Flags: HMW
LayerCount: 2
Fore
SplineSet
60 1366 m 1
 60 -291 l 1
 -60 -291 l 1
 -60 1366 l 1
 60 1366 l 1
EndSplineSet
EndChar

StartChar: uni200D
Encoding: 8205 8205 302
Width: 0
GlyphClass: 2
Flags: HMW
LayerCount: 2
Fore
SplineSet
163 -302 m 1
 44 -183 l 1
 130 -97 l 1
 249 -216 l 1
 163 -302 l 1
-130 -9 m 1
 -249 110 l 1
 -163 196 l 1
 -44 77 l 1
 -130 -9 l 1
249 110 m 1
 -163 -302 l 1
 -249 -216 l 1
 163 196 l 1
 249 110 l 1
163 1011 m 1
 44 1130 l 1
 130 1216 l 1
 249 1097 l 1
 163 1011 l 1
-130 1304 m 1
 -249 1423 l 1
 -163 1509 l 1
 -44 1390 l 1
 -130 1304 l 1
249 1423 m 1
 -163 1011 l 1
 -249 1097 l 1
 163 1509 l 1
 249 1423 l 1
-60 1018 m 1
 60 1018 l 1
 60 189 l 1
 -60 189 l 1
 -60 1018 l 1
EndSplineSet
EndChar

StartChar: uniE000
Encoding: 57344 57344 303
Width: 98
GlyphClass: 2
Flags: HMW
LayerCount: 2
Fore
SplineSet
0 390 m 258
 99 390 l 257
 99 0 l 257
 0 0 l 258
 -107 0 -196 89 -196 196 c 256
 -196 303 -107 390 0 390 c 258
EndSplineSet
EndChar

StartChar: uniE001
Encoding: 57345 57345 304
Width: 311
GlyphClass: 2
Flags: HMW
LayerCount: 2
Fore
SplineSet
0 390 m 258
 312 390 l 257
 312 0 l 257
 0 0 l 258
 -107 0 -196 89 -196 196 c 256
 -196 303 -107 390 0 390 c 258
EndSplineSet
EndChar

StartChar: uniE002
Encoding: 57346 57346 305
Width: 434
GlyphClass: 2
Flags: HMW
LayerCount: 2
Fore
SplineSet
0 390 m 258
 437 390 l 257
 437 0 l 257
 0 0 l 258
 -107 0 -196 89 -196 196 c 256
 -196 303 -107 390 0 390 c 258
EndSplineSet
EndChar

StartChar: uniE003
Encoding: 57347 57347 306
Width: 1875
GlyphClass: 2
Flags: HMW
LayerCount: 2
Fore
SplineSet
1505 1512 m 257
 1691 1316 l 257
 222 -17 l 257
 36 179 l 257
 1505 1512 l 257
EndSplineSet
EndChar

StartChar: uniE004
Encoding: 57348 57348 307
Width: 1157
GlyphClass: 2
Flags: HMW
LayerCount: 2
Fore
SplineSet
114 -138 m 257
 -71 1 l 257
 880 1242 l 257
 1065 1103 l 257
 114 -138 l 257
EndSplineSet
EndChar

StartChar: uniE005
Encoding: 57349 57349 308
Width: 1514
GlyphClass: 2
Flags: HMW
LayerCount: 2
Fore
SplineSet
1354 -129 m 257
 978 -129 l 257
 655 498 l 257
 878 626 l 257
 1354 -129 l 257
EndSplineSet
EndChar

StartChar: uniE006
Encoding: 57350 57350 309
Width: 1493
GlyphClass: 2
Flags: HMW
LayerCount: 2
Fore
SplineSet
345 127 m 257
 345 346 l 257
 1148 346 l 257
 1148 127 l 257
 345 127 l 257
345 408 m 257
 345 627 l 257
 1148 627 l 257
 1148 408 l 257
 345 408 l 257
EndSplineSet
EndChar

StartChar: uniE007
Encoding: 57351 57351 310
Width: 923
GlyphClass: 2
Flags: HMW
LayerCount: 2
Fore
SplineSet
332 1239 m 0
 285 1239 239 1243 194 1255 c 1
 234 1392 l 1
 265 1384 318 1376 371 1376 c 0
 442 1376 509 1390 509 1435 c 0
 509 1457 482 1465 435 1472 c 0
 349 1486 261 1518 261 1632 c 0
 261 1769 349 1863 482 1863 c 0
 527 1863 575 1851 622 1829 c 1
 580 1722 l 1
 555 1733 525 1740 493 1740 c 0
 435 1740 384 1716 384 1654 c 0
 384 1613 431 1605 477 1598 c 0
 563 1583 631 1552 631 1444 c 0
 631 1304 486 1239 332 1239 c 0
EndSplineSet
EndChar

StartChar: uniE008
Encoding: 57352 57352 311
Width: 836
GlyphClass: 2
Flags: HMW
LayerCount: 2
Fore
SplineSet
498 1323 m 256
 498 1372 468 1409 418 1409 c 256
 368 1409 338 1372 338 1323 c 256
 338 1274 368 1237 418 1237 c 256
 468 1237 498 1274 498 1323 c 256
758 1323 m 256
 758 1145 629 975 418 975 c 256
 207 975 78 1145 78 1323 c 256
 78 1501 207 1670 418 1670 c 256
 629 1670 758 1501 758 1323 c 256
EndSplineSet
EndChar

StartChar: uniE009
Encoding: 57353 57353 312
Width: 1219
GlyphClass: 2
Flags: HMW
LayerCount: 2
Fore
SplineSet
543 1688 m 257
 700 1688 l 257
 700 -183 l 257
 543 -183 l 257
 543 1688 l 257
EndSplineSet
EndChar

StartChar: uniE00A
Encoding: 57354 57354 313
Width: 1293
GlyphClass: 2
Flags: HMW
LayerCount: 2
Fore
SplineSet
64 532 m 257
 64 754 l 257
 823 754 l 1
 823 532 l 1
 64 532 l 257
EndSplineSet
EndChar

StartChar: uniE00B
Encoding: 57355 57355 314
Width: 1179
GlyphClass: 2
Flags: HMW
LayerCount: 2
Fore
SplineSet
824 339 m 257
 760 124 646 -11 402 -11 c 256
 206 -11 79 105 79 303 c 256
 79 557 311 689 544 689 c 256
 661 689 757 665 847 638 c 257
 721 463 l 257
 683 472 641 477 608 477 c 0
 501 477 420 432 420 362 c 256
 420 315 457 283 523 283 c 256
 600 283 670 318 708 359 c 257
 824 339 l 257
EndSplineSet
EndChar

StartChar: uniE00C
Encoding: 57356 57356 315
Width: 1635
GlyphClass: 2
Flags: HMW
LayerCount: 2
Fore
SplineSet
1676 785 m 258
 1676 0 l 257
 1286 0 l 1
 1286 639 l 258
 1286 702 1236 756 1145 756 c 0
 1055 756 1004 703 1004 639 c 1
 954 785 l 1
 954 988 1089 1146 1315 1146 c 0
 1541 1146 1676 986 1676 785 c 258
EndSplineSet
EndChar

StartChar: uniE00D
Encoding: 57357 57357 316
Width: 1087
GlyphClass: 2
Flags: HMW
LayerCount: 2
Fore
SplineSet
1085 785 m 258
 1085 0 l 257
 695 0 l 1
 695 639 l 258
 695 702 645 756 554 756 c 0
 464 756 413 703 413 639 c 1
 363 785 l 1
 363 988 498 1146 724 1146 c 0
 950 1146 1085 986 1085 785 c 258
EndSplineSet
EndChar

StartChar: uniE00E
Encoding: 57358 57358 317
Width: 852
GlyphClass: 2
Flags: HMW
LayerCount: 2
Fore
SplineSet
912 787 m 257
 888 792 864 794 841 794 c 0
 642 794 507 615 507 388 c 257
 411 388 l 257
 411 745 497 1148 868 1148 c 0
 882 1148 897 1147 912 1146 c 257
 912 787 l 257
EndSplineSet
EndChar

StartChar: uniE00F
Encoding: 57359 57359 318
Width: 1176
GlyphClass: 2
Flags: HMW
LayerCount: 2
Fore
SplineSet
1080 568 m 256
 1080 258 962 -10 685 -10 c 256
 503 -10 393 100 308 271 c 1
 410 377 l 1
 443 322 487 299 538 299 c 256
 623 299 691 391 691 568 c 256
 691 745 623 835 538 835 c 256
 487 835 443 813 410 758 c 1
 308 863 l 1
 393 1034 503 1145 685 1145 c 256
 962 1145 1080 878 1080 568 c 256
EndSplineSet
EndChar

StartChar: uniE020
Encoding: 57376 57376 319
Width: 867
GlyphClass: 2
Flags: HMW
LayerCount: 2
Fore
SplineSet
105 504 m 0
 105 749 279 868 461 868 c 0
 566 868 674 828 754 750 c 1
 649 586 l 1
 604 619 537 641 478 641 c 0
 399 641 329 603 329 507 c 0
 329 430 387 381 487 381 c 0
 559 381 627 392 750 431 c 1
 827 221 l 1
 107 -11 l 1
 40 203 l 1
 237 268 l 1
 163 312 105 406 105 504 c 0
EndSplineSet
Colour: ff00ff
EndChar

StartChar: uniE021
Encoding: 57377 57377 320
Width: 590
GlyphClass: 2
Flags: HMW
LayerCount: 2
Fore
SplineSet
557 1943 m 257
 700 1869 l 257
 627 1714 561 1638 439 1638 c 256
 374 1638 310 1661 259 1683 c 0
 222 1700 191 1712 166 1712 c 256
 109 1712 79 1672 26 1596 c 257
 -110 1677 l 257
 -39 1820 63 1914 188 1914 c 256
 237 1914 282 1897 326 1877 c 0
 368 1858 407 1843 447 1843 c 256
 486 1843 513 1869 557 1943 c 257
490 1505 m 257
 490 0 l 257
 100 0 l 257
 100 1505 l 257
 490 1505 l 257
EndSplineSet
Colour: ff00ff
EndChar

StartChar: uniE022
Encoding: 57378 57378 321
Width: 590
GlyphClass: 2
Flags: HMW
LayerCount: 2
Fore
SplineSet
490 0 m 257
 100 0 l 257
 100 1505 l 257
 490 1505 l 257
 490 0 l 257
EndSplineSet
Colour: ff00ff
EndChar

StartChar: uniE023
Encoding: 57379 57379 322
Width: 1534
GlyphClass: 2
Flags: HMW
LayerCount: 2
Back
SplineSet
524 1128 m 0
 628 1128 736 1088 829 1053 c 2
 1407 836 l 1
 1407 467 l 1
 793 329 429 108 429 -120 c 0
 429 -281 612 -332 818 -332 c 0
 1027 -332 1258 -280 1352 -237 c 1
 1494 -601 l 1
 1312 -697 1068 -752 831 -752 c 0
 423 -752 40 -584 40 -156 c 0
 40 275 451 531 838 654 c 1
 630 726 l 2
 597 738 569 741 544 741 c 0
 478 741 426 696 403 583 c 2
 394 539 l 1
 94 592 l 1
 103 650 l 2
 156 955 268 1128 524 1128 c 0
EndSplineSet
Fore
SplineSet
522 1128 m 0
 618 1128 706 1102 910 1015 c 0
 1119 925 1262 876 1407 846 c 1
 1407 467 l 1
 802 354 429 136 429 -104 c 0
 429 -260 586 -348 861 -348 c 0
 1037 -348 1242 -312 1372 -257 c 1
 1514 -621 l 1
 1335 -715 1100 -769 865 -769 c 0
 364 -769 40 -527 40 -153 c 0
 40 200 330 493 840 655 c 1
 802 667 767 679 722 697 c 0
 640 730 598 741 561 741 c 0
 483 741 435 690 413 584 c 2
 404 539 l 1
 104 592 l 1
 113 651 l 1
 171 982 295 1128 522 1128 c 0
EndSplineSet
Colour: ff00ff
EndChar

StartChar: uniE024
Encoding: 57380 57380 323
Width: 1056
GlyphClass: 2
Flags: HMW
LayerCount: 2
Fore
SplineSet
1016 454 m 256
 1016 129 721 -5 424 -5 c 256
 282 -5 139 18 30 49 c 257
 117 418 l 257
 174 405 294 384 409 384 c 256
 510 384 631 396 631 488 c 256
 631 565 511 738 301 915 c 257
 552 1213 l 257
 808 996 1016 752 1016 454 c 256
EndSplineSet
Colour: ff00ff
EndChar

StartChar: uniE025
Encoding: 57381 57381 324
Width: 851
GlyphClass: 2
Flags: HMW
LayerCount: 2
Back
SplineSet
388 714 m 257
 773 860 l 257
 856 634 901 421 901 240 c 0
 901 -136 669 -438 191 -601 c 257
 20 -249 l 257
 369 -131 500 47 500 256 c 0
 500 383 463 533 388 714 c 257
EndSplineSet
Fore
SplineSet
300 719 m 257
 669 847 l 257
 749 601 801 390 801 206 c 0
 801 -164 591 -422 91 -601 c 257
 -80 -251 l 257
 272 -132 411 -16 411 206 c 0
 411 334 370 519 300 719 c 257
EndSplineSet
Colour: ff00ff
EndChar

StartChar: uniE026
Encoding: 57382 57382 325
Width: 2613
GlyphClass: 2
Flags: HMW
LayerCount: 2
Fore
SplineSet
1653 0 m 0
 1618 0 1574 6 1546 15 c 1
 1477 -349 1141 -512 791 -512 c 0
 279 -512 40 -258 40 165 c 0
 40 343 81 553 164 784 c 1
 518 678 l 1
 467 513 419 344 419 204 c 0
 419 15 506 -122 791 -122 c 0
 1071 -122 1161 3 1161 178 c 0
 1161 325 1091 519 1030 674 c 1
 1413 828 l 1
 1514 503 l 2
 1542 407 1568 390 1613 390 c 0
 1664 390 1693 424 1699 488 c 2
 1717 732 l 1
 2054 710 l 1
 2040 490 l 2
 2035 422 2061 390 2122 390 c 0
 2180 390 2204 418 2204 485 c 0
 2204 530 2193 617 2166 777 c 1
 2544 867 l 1
 2575 728 2590 603 2590 490 c 0
 2590 159 2461 0 2194 0 c 0
 2032 0 1930 59 1882 164 c 1
 1855 62 1753 0 1653 0 c 0
EndSplineSet
Colour: ff00ff
EndChar

StartChar: uniE027
Encoding: 57383 57383 326
Width: 2601
GlyphClass: 2
Flags: HMW
LayerCount: 2
Fore
SplineSet
2034 593 m 0
 1958 593 1865 528 1778 414 c 1
 1815 399 1866 390 1921 390 c 0
 2048 390 2132 436 2132 507 c 0
 2132 556 2091 593 2034 593 c 0
2109 976 m 0
 2383 976 2561 769 2561 502 c 0
 2561 137 2276 0 1881 0 c 0
 1755 0 1645 19 1551 47 c 1
 1494 -334 1163 -492 791 -492 c 0
 279 -492 40 -238 40 185 c 0
 40 363 81 573 164 804 c 1
 518 698 l 1
 467 533 419 364 419 224 c 0
 419 35 506 -102 791 -102 c 0
 1071 -102 1161 23 1161 198 c 0
 1161 345 1096 526 1030 694 c 1
 1411 874 l 1
 1444 787 1483 656 1509 556 c 1
 1675 785 1844 976 2109 976 c 0
EndSplineSet
Colour: ff00ff
EndChar

StartChar: uniE028
Encoding: 57384 57384 327
Width: 1611
GlyphClass: 2
Flags: HMW
LayerCount: 2
Fore
SplineSet
768 390 m 1
 940 390 l 2
 1083 390 1141 419 1141 492 c 0
 1141 552 1101 593 1043 593 c 0
 965 593 865 519 768 390 c 1
308 390 m 2
 309 391 312 394 313 395 c 2
 313 1505 l 1
 704 1505 l 1
 704 976 l 2
 704 899 696 811 674 736 c 1
 794 894 951 976 1121 976 c 0
 1395 976 1571 763 1571 502 c 0
 1571 230 1436 0 847 0 c 2
 40 0 l 1
 40 390 l 1
 308 390 l 2
EndSplineSet
Colour: ff00ff
EndChar

StartChar: uniE029
Encoding: 57385 57385 328
Width: 1469
GlyphClass: 2
Flags: HMW
LayerCount: 2
Fore
SplineSet
1190 1174 m 1
 993 889 l 1
 928 944 820 983 733 983 c 0
 622 983 544 921 544 831 c 0
 544 726 651 681 898 681 c 0
 1002 681 1097 688 1202 697 c 1
 1219 320 l 1
 735 302 432 147 432 -84 c 0
 432 -245 580 -332 853 -332 c 0
 1003 -332 1186 -306 1304 -267 c 1
 1429 -641 l 1
 1278 -704 1056 -743 843 -743 c 0
 336 -743 40 -523 40 -145 c 0
 40 75 140 269 336 430 c 1
 204 522 149 622 149 775 c 0
 149 1104 404 1372 718 1372 c 0
 885 1372 1065 1297 1190 1174 c 1
EndSplineSet
Colour: ff00ff
EndChar

StartChar: uniE02A
Encoding: 57386 57386 329
Width: 862
GlyphClass: 2
Flags: HMW
LayerCount: 2
Fore
SplineSet
0 390 m 265
 862 390 l 257
 862 0 l 257
 0 0 l 273
 -31 0 -50 38 -50 196 c 256
 -50 354 -31 390 0 390 c 265
EndSplineSet
Colour: ff00ff
EndChar

StartChar: uniE02B
Encoding: 57387 57387 330
Width: 1738
GlyphClass: 2
Flags: HMW
LayerCount: 2
Fore
SplineSet
808 390 m 0
 1149 390 1247 424 1247 666 c 2
 1247 1496 l 1
 1638 1496 l 1
 1638 666 l 2
 1638 201 1346 0 787 0 c 0
 272 0 40 170 40 546 c 0
 40 645 56 765 85 882 c 1
 440 805 l 1
 419 696 410 624 410 569 c 0
 410 421 478 390 808 390 c 0
EndSplineSet
Colour: ff00ff
EndChar

StartChar: uniE02C
Encoding: 57388 57388 331
Width: 1523
GlyphClass: 2
Flags: HMW
LayerCount: 2
Fore
SplineSet
714 -149 m 256
 935 -149 1032 -47 1032 160 c 258
 1032 1505 l 257
 1423 1505 l 257
 1423 160 l 258
 1423 -284 1127 -540 697 -540 c 256
 248 -540 40 -294 40 45 c 0
 40 194 78 372 146 545 c 257
 489 424 l 257
 450 311 422 192 422 99 c 0
 422 -47 503 -149 714 -149 c 256
EndSplineSet
Colour: ff00ff
EndChar

StartChar: uniE02D
Encoding: 57389 57389 332
Width: 1350
GlyphClass: 2
Flags: HMW
LayerCount: 2
Fore
SplineSet
840 581 m 0
 782 581 736 492 723 414 c 1
 734 411 754 406 766 403 c 0
 811 390 861 381 892 381 c 0
 919 381 930 392 930 423 c 0
 930 488 915 581 840 581 c 0
851 964 m 0
 1110 964 1280 746 1280 414 c 0
 1280 135 1160 -11 930 -11 c 0
 855 -11 749 5 604 37 c 0
 533 53 501 59 479 59 c 0
 445 59 431 41 431 14 c 2
 431 -685 l 1
 40 -685 l 1
 40 60 l 2
 40 299 183 475 385 475 c 1
 437 792 624 964 851 964 c 0
EndSplineSet
Colour: ff00ff
EndChar

StartChar: uniE02E
Encoding: 57390 57390 333
Width: 970
GlyphClass: 2
Flags: HMW
LayerCount: 2
Fore
SplineSet
477 380 m 0
 536 380 567 410 567 451 c 0
 567 494 551 557 477 625 c 1
 403 557 385 492 385 451 c 0
 385 411 415 380 477 380 c 0
477 -11 m 0
 203 -11 40 166 40 365 c 0
 40 542 110 693 266 850 c 1
 238 876 201 910 164 943 c 1
 397 1220 l 1
 616 1047 930 740 930 400 c 0
 930 175 735 -11 477 -11 c 0
EndSplineSet
Colour: ff00ff
EndChar

StartChar: uniE02F
Encoding: 57391 57391 334
Width: 981
GlyphClass: 2
Flags: HMW
LayerCount: 2
Fore
SplineSet
525 0 m 1
 492 0 462 0 432 0 c 0
 193 0 59 149 59 409 c 0
 59 660 190 964 485 964 c 0
 851 964 941 632 941 203 c 0
 941 -187 714 -430 211 -601 c 1
 40 -249 l 1
 260 -175 443 -88 525 0 c 1
579 395 m 1
 561 551 529 588 477 588 c 0
 424 588 398 528 398 448 c 0
 398 410 416 390 485 390 c 0
 517 390 557 392 579 395 c 1
EndSplineSet
Colour: ff00ff
EndChar

StartChar: uniE030
Encoding: 57392 57392 335
Width: 0
GlyphClass: 2
Flags: HMW
LayerCount: 2
Fore
SplineSet
69 1519 m 0
 32 1519 -10 1485 -10 1447 c 0
 -10 1401 39 1376 79 1362 c 1
 106 1392 114 1424 114 1457 c 0
 114 1492 99 1519 69 1519 c 0
84 1648 m 0
 179 1648 243 1570 243 1465 c 0
 243 1254 -18 1127 -208 1076 c 1
 -244 1176 -292 1245 -375 1296 c 1
 -305 1403 l 1
 -234 1364 -180 1308 -135 1234 c 1
 -104 1246 -58 1268 -21 1286 c 1
 -72 1309 -134 1359 -134 1445 c 0
 -134 1546 -29 1648 84 1648 c 0
EndSplineSet
Colour: ff00ff
EndChar

StartChar: uniE031
Encoding: 57393 57393 336
Width: 0
GlyphClass: 2
Flags: HMW
LayerCount: 2
Fore
SplineSet
213 1365 m 261
 250 1243 l 257
 -213 1095 l 257
 -250 1219 l 261
 213 1365 l 261
EndSplineSet
Colour: ff00ff
EndChar

StartChar: uniE032
Encoding: 57394 57394 337
Width: 0
GlyphClass: 2
Flags: HMW
LayerCount: 2
Fore
SplineSet
69 1519 m 0
 32 1519 -10 1485 -10 1447 c 0
 -10 1401 39 1376 79 1362 c 1
 106 1392 114 1424 114 1457 c 0
 114 1492 99 1519 69 1519 c 0
85 1648 m 0
 180 1648 243 1570 243 1465 c 0
 243 1254 -18 1127 -208 1076 c 1
 -242 1197 l 1
 -175 1216 -57 1269 -21 1287 c 1
 -75 1311 -134 1363 -134 1444 c 0
 -134 1551 -25 1648 85 1648 c 0
EndSplineSet
Colour: ff00ff
EndChar

StartChar: uniE033
Encoding: 57395 57395 338
Width: 0
GlyphClass: 2
Flags: HMW
LayerCount: 2
Fore
SplineSet
167 1283 m 0
 167 1324 152 1382 141 1411 c 1
 261 1450 l 1
 276 1410 295 1354 295 1267 c 0
 295 1165 236 1095 133 1095 c 0
 80 1095 20 1121 0 1170 c 1
 -20 1121 -80 1095 -133 1095 c 0
 -236 1095 -295 1165 -295 1267 c 0
 -295 1354 -276 1410 -261 1450 c 1
 -141 1411 l 1
 -152 1382 -167 1324 -167 1283 c 0
 -167 1245 -155 1224 -115 1224 c 0
 -70 1224 -54 1261 -54 1334 c 2
 -54 1374 l 1
 54 1374 l 1
 54 1334 l 2
 54 1261 70 1224 115 1224 c 0
 155 1224 167 1245 167 1283 c 0
EndSplineSet
Colour: ff00ff
EndChar

StartChar: uniE034
Encoding: 57396 57396 339
Width: 0
GlyphClass: 2
Flags: HMW
LayerCount: 2
Fore
SplineSet
0 1335 m 256
 -46 1335 -65 1308 -65 1270 c 256
 -65 1232 -45 1203 0 1203 c 256
 44 1203 65 1234 65 1270 c 256
 65 1306 46 1335 0 1335 c 256
0 1443 m 256
 105 1443 175 1367 175 1270 c 256
 175 1173 105 1095 0 1095 c 256
 -106 1095 -175 1174 -175 1270 c 256
 -175 1366 -106 1443 0 1443 c 256
EndSplineSet
Colour: ff00ff
EndChar

StartChar: uniE035
Encoding: 57397 57397 340
Width: 0
GlyphClass: 2
Flags: HMW
LayerCount: 2
Fore
SplineSet
-296 1142 m 257
 -261 1209 -199 1293 -103 1293 c 260
 -50 1293 -12 1271 21 1251 c 4
 46 1236 70 1223 92 1223 c 260
 133 1223 156 1256 177 1305 c 261
 295 1256 l 257
 262 1178 198 1095 102 1095 c 256
 56 1095 20 1115 -11 1137 c 0
 -35 1154 -59 1165 -82 1165 c 256
 -125 1165 -159 1130 -181 1085 c 257
 -296 1142 l 257
EndSplineSet
Colour: ff00ff
EndChar

StartChar: uniE036
Encoding: 57398 57398 341
Width: 0
GlyphClass: 2
Flags: HMW
LayerCount: 2
Fore
SplineSet
156 1600 m 1
 124 1485 l 1
 105 1490 62 1495 40 1495 c 0
 -18 1495 -56 1459 -56 1405 c 0
 -56 1353 -20 1311 26 1311 c 0
 37 1311 52 1314 64 1318 c 2
 213 1365 l 1
 250 1243 l 1
 -213 1095 l 1
 -250 1219 l 1
 -119 1261 l 1
 -152 1296 -172 1352 -172 1410 c 0
 -172 1532 -81 1618 48 1618 c 0
 81 1618 115 1612 156 1600 c 1
EndSplineSet
Colour: ff00ff
EndChar

StartChar: uniE037
Encoding: 57399 57399 342
Width: 0
GlyphClass: 2
Flags: HMW
LayerCount: 2
Fore
SplineSet
55 1095 m 1
 -55 1095 l 1
 -266 1371 l 257
 -164 1449 l 261
 0 1226 l 261
 164 1449 l 257
 266 1371 l 257
 55 1095 l 1
EndSplineSet
Colour: ff00ff
EndChar

StartChar: uniE038
Encoding: 57400 57400 343
Width: 1824
GlyphClass: 2
Flags: HMW
LayerCount: 2
Fore
SplineSet
1731 940 m 257
 1767 797 1784 671 1784 565 c 0
 1784 157 1543 0 912 0 c 256
 281 0 40 157 40 565 c 0
 40 671 58 797 94 940 c 257
 441 865 l 257
 421 760 410 675 410 612 c 0
 410 408 516 390 912 390 c 0
 1308 390 1414 408 1414 612 c 0
 1414 675 1404 760 1384 865 c 257
 1731 940 l 257
EndSplineSet
Colour: ff00ff
EndChar

StartChar: uniE039
Encoding: 57401 57401 344
Width: 1587
GlyphClass: 2
Flags: HMW
LayerCount: 2
Fore
SplineSet
1178 377 m 1
 1160 533 1129 570 1077 570 c 0
 1024 570 999 510 999 430 c 0
 999 392 1016 372 1085 372 c 0
 1117 372 1156 374 1178 377 c 1
1086 964 m 0
 1400 964 1547 695 1547 241 c 0
 1547 -248 1279 -541 782 -541 c 0
 325 -541 40 -285 40 116 c 0
 40 281 83 472 175 679 c 1
 526 516 l 1
 467 358 430 223 430 118 c 0
 430 -56 558 -150 814 -150 c 0
 976 -150 1108 -84 1136 18 c 1
 1107 7 1063 0 1032 0 c 0
 794 0 660 149 660 408 c 0
 660 659 791 964 1086 964 c 0
EndSplineSet
Colour: ff00ff
EndChar

StartChar: uniE03A
Encoding: 57402 57402 345
Width: 0
GlyphClass: 2
Flags: HMW
LayerCount: 2
Fore
SplineSet
-74 1462 m 257
 74 1462 l 261
 74 1065 l 261
 -74 1065 l 257
 -74 1462 l 257
EndSplineSet
Colour: ff00ff
EndChar

StartChar: uniE03B
Encoding: 57403 57403 346
Width: 1847
GlyphClass: 2
Flags: HMW
LayerCount: 2
Fore
SplineSet
1465 512 m 261
 1398 492 1335 487 1267 487 c 260
 1041 487 895 572 895 828 c 260
 895 1071 1004 1403 1316 1403 c 260
 1783 1403 1807 772 1807 598 c 260
 1807 56 1408 0 907 0 c 260
 324 0 40 136 40 552 c 0
 40 653 56 782 85 912 c 257
 440 835 l 257
 422 738 410 653 410 594 c 0
 410 417 542 390 939 390 c 260
 1422 390 1465 390 1465 512 c 261
1408 827 m 261
 1390 983 1359 1020 1307 1020 c 260
 1254 1020 1228 960 1228 880 c 260
 1228 842 1246 822 1315 822 c 260
 1347 822 1386 824 1408 827 c 261
EndSplineSet
Colour: ff00ff
EndChar

StartChar: uniE03C
Encoding: 57404 57404 347
Width: 1707
GlyphClass: 2
Flags: HMW
LayerCount: 2
Fore
SplineSet
85 912 m 1
 440 835 l 1
 420 727 410 648 410 596 c 0
 410 438 502 390 808 390 c 0
 1100 390 1261 434 1261 513 c 0
 1261 591 1103 746 800 964 c 1
 800 1268 l 1
 1126 1482 1439 1615 1760 1678 c 1
 1837 1295 l 1
 1646 1256 1470 1193 1270 1095 c 1
 1270 1085 l 1
 1550 819 1651 659 1651 482 c 0
 1651 175 1346 0 808 0 c 0
 277 0 40 170 40 553 c 0
 40 653 56 783 85 912 c 1
EndSplineSet
Colour: ff00ff
EndChar

StartChar: uniE03D
Encoding: 57405 57405 348
Width: 1666
GlyphClass: 2
Flags: HMW
LayerCount: 2
Fore
SplineSet
1086 690 m 257
 1457 871 l 257
 1557 652 1626 500 1626 215 c 256
 1626 -278 1258 -521 836 -521 c 256
 298 -521 40 -259 40 186 c 0
 40 373 83 593 162 813 c 257
 519 697 l 257
 477 559 424 377 424 225 c 0
 424 19 525 -131 834 -131 c 256
 1129 -131 1233 9 1233 198 c 0
 1233 346 1169 524 1086 690 c 257
EndSplineSet
Colour: ff00ff
EndChar

StartChar: uniE03E
Encoding: 57406 57406 349
Width: 1638
GlyphClass: 2
Flags: HMW
LayerCount: 2
Fore
SplineSet
1543 975 m 1
 1425 626 l 1
 1377 646 1279 665 1208 665 c 0
 1075 665 977 611 977 489 c 0
 977 415 1045 408 1195 402 c 0
 1389 395 1598 356 1598 41 c 0
 1598 -407 1214 -542 800 -542 c 0
 312 -542 60 -338 60 139 c 0
 60 300 78 443 109 587 c 1
 471 521 l 1
 449 379 434 278 434 136 c 0
 434 -100 549 -150 805 -150 c 0
 949 -150 1227 -127 1227 -32 c 0
 1227 11 1207 18 1104 22 c 0
 780 37 601 125 601 429 c 0
 601 778 820 1050 1179 1050 c 0
 1306 1050 1445 1020 1543 975 c 1
EndSplineSet
Colour: ff00ff
EndChar

StartChar: uniE03F
Encoding: 57407 57407 350
Width: 1958
GlyphClass: 2
Flags: HMW
LayerCount: 2
Fore
SplineSet
85 912 m 1
 440 835 l 1
 420 727 410 648 410 595 c 0
 410 437 499 390 807 390 c 0
 1099 390 1251 431 1251 512 c 0
 1251 589 1113 727 800 964 c 1
 800 1268 l 1
 1126 1482 1439 1615 1760 1678 c 1
 1837 1295 l 1
 1646 1256 1470 1193 1270 1095 c 1
 1270 1085 l 1
 1430 925 1512 825 1601 676 c 0
 1732 459 1817 390 1956 390 c 2
 1958 390 l 1
 1958 0 l 1
 1956 0 l 2
 1796 0 1627 73 1530 184 c 1
 1402 65 1152 0 818 0 c 0
 277 0 40 168 40 553 c 0
 40 654 56 783 85 912 c 1
EndSplineSet
Colour: ff00ff
EndChar

StartChar: uniE040
Encoding: 57408 57408 351
Width: 1890
GlyphClass: 2
Flags: HMW
LayerCount: 2
Fore
SplineSet
162 813 m 257
 519 697 l 257
 477 559 424 377 424 225 c 0
 424 19 523 -131 832 -131 c 256
 1151 -131 1232 18 1232 231 c 256
 1232 346 1166 514 1087 690 c 257
 1457 871 l 257
 1589 541 l 257
 1635 431 1732 389 1889 389 c 257
 1890 389 l 257
 1890 0 l 257
 1889 0 l 257
 1774 0 1668 41 1605 109 c 257
 1605 -291 1235 -521 836 -521 c 256
 298 -521 40 -259 40 186 c 0
 40 373 83 593 162 813 c 257
EndSplineSet
Colour: ff00ff
EndChar

StartChar: uniE041
Encoding: 57409 57409 352
Width: 619
GlyphClass: 2
Flags: HMW
LayerCount: 2
Back
SplineSet
513 948 m 257
 554 779 579 626 579 496 c 0
 579 196 420 0 0 0 c 256
 -31 0 -50 38 -50 196 c 256
 -50 354 -31 390 0 390 c 256
 143 390 196 433 196 549 c 0
 196 618 177 718 146 847 c 257
 513 948 l 257
EndSplineSet
Fore
SplineSet
513 948 m 257
 554 779 579 626 579 496 c 0
 579 196 420 0 31 0 c 0
 0 0 l 256
 -31 0 -50 38 -50 196 c 256
 -50 354 -31 390 0 390 c 256
 31 390 l 0
 143 390 196 433 196 549 c 0
 196 618 177 718 146 847 c 257
 513 948 l 257
EndSplineSet
Colour: ff00ff
EndChar

StartChar: uniE042
Encoding: 57410 57410 353
Width: 815
GlyphClass: 2
Flags: HMW
LayerCount: 2
Back
SplineSet
605 581 m 2
 605 406.560096154 623.034031414 390 813 390 c 2
 815 390 l 1
 815 0 l 1
 813 0 l 2
 626.756097561 0 465.44133853 65.4842091117 409 164 c 1
 352.719746065 65.7653749504 188.707317073 0 0 0 c 0
 -31 0 -50 38 -50 196 c 0
 -50 354 -31 390 0 390 c 0
 193.683246073 390 215 408.937209302 215 581 c 2
 215 784 l 1
 605 784 l 1
 605 581 l 2
EndSplineSet
Fore
SplineSet
605 581 m 2
 605 408 622 390 793 390 c 2
 815 390 l 1
 815 0 l 1
 791 0 l 2
 627 0 465 65 409 164 c 1
 353 66 189 0 31 0 c 2
 0 0 l 2
 -31 0 -50 38 -50 196 c 0
 -50 354 -31 390 0 390 c 2
 31 390 l 2
 194 390 215 409 215 581 c 2
 215 784 l 1
 605 784 l 1
 605 581 l 2
EndSplineSet
Colour: ff00ff
EndChar

StartChar: uniE043
Encoding: 57411 57411 354
Width: 1535
GlyphClass: 2
Flags: HMW
LayerCount: 2
Fore
SplineSet
1535 390 m 1
 1535 0 l 1
 1415 0 l 1
 1455 -67 1474 -132 1474 -198 c 0
 1474 -453 1184 -627 761 -627 c 0
 281 -627 40 -403 40 44 c 0
 40 223 79 443 159 725 c 1
 518 627 l 1
 446 351 416 182 416 61 c 0
 416 -158 517 -237 796 -237 c 0
 1005 -237 1133 -193 1133 -121 c 0
 1133 -64 1051 -40 711 0 c 1
 768 390 l 1
 1535 390 l 1
EndSplineSet
Colour: ff00ff
EndChar

StartChar: uniE044
Encoding: 57412 57412 355
Width: 670
GlyphClass: 2
Flags: HMW
LayerCount: 2
Fore
SplineSet
100 1505 m 257
 491 1505 l 257
 491 540 l 258
 491 427 526 390 669 390 c 258
 670 390 l 257
 670 0 l 257
 669 0 l 258
 318 0 100 182 100 532 c 258
 100 1505 l 257
EndSplineSet
Colour: ff00ff
EndChar

StartChar: uniE045
Encoding: 57413 57413 356
Width: 1518
GlyphClass: 2
Flags: HMW
LayerCount: 2
Fore
SplineSet
522 1128 m 0
 618 1128 706 1102 910 1015 c 0
 1119 925 1262 876 1407 846 c 1
 1407 467 l 1
 1371 460 1336 453 1302 446 c 1
 1323 399 1395 390 1516 390 c 2
 1518 390 l 1
 1518 0 l 1
 1516 0 l 2
 1231 0 1065 125 1044 379 c 1
 656 258 429 83 429 -104 c 0
 429 -260 586 -348 861 -348 c 0
 1037 -348 1242 -312 1372 -257 c 1
 1514 -621 l 1
 1335 -715 1100 -769 865 -769 c 0
 364 -769 40 -527 40 -153 c 0
 40 200 330 493 840 655 c 1
 802 667 767 679 722 697 c 0
 640 730 598 741 561 741 c 0
 483 741 435 690 413 584 c 2
 404 539 l 1
 104 592 l 1
 113 651 l 1
 171 982 295 1128 522 1128 c 0
EndSplineSet
Colour: ff00ff
EndChar

StartChar: uniE046
Encoding: 57414 57414 357
Width: 1399
GlyphClass: 2
Flags: HMW
LayerCount: 2
Fore
SplineSet
486 1090 m 0
 596 1090 715 1040 857 979 c 0
 997 919 1159 850 1359 808 c 1
 1359 505 l 1
 881 186 l 2
 672 47 467 0 213 0 c 2
 0 0 l 2
 -31 0 -50 38 -50 196 c 0
 -50 354 -31 390 0 390 c 2
 291 390 l 2
 457 390 565 404 712 487 c 2
 895 590 l 1
 800 610 730 637 671 660 c 0
 610 684 560 703 506 703 c 0
 440 703 388 659 365 546 c 2
 356 501 l 1
 56 554 l 1
 65 613 l 2
 118 918 230 1090 486 1090 c 0
EndSplineSet
Colour: ff00ff
EndChar

StartChar: uniE047
Encoding: 57415 57415 358
Width: 1449
GlyphClass: 2
Flags: HMW
LayerCount: 2
Fore
SplineSet
486 1090 m 0
 596 1090 715 1040 857 979 c 0
 997 919 1159 850 1359 808 c 1
 1359 505 l 1
 1262 441 l 1
 1291 400 1328 390 1447 390 c 2
 1449 390 l 1
 1449 0 l 1
 1447 0 l 2
 1225 0 1070 79 1015 276 c 1
 881 186 l 2
 672 47 467 0 213 0 c 2
 0 0 l 2
 -31 0 -50 38 -50 196 c 0
 -50 354 -31 390 0 390 c 2
 291 390 l 2
 457 390 565 404 712 487 c 2
 895 590 l 1
 800 610 730 637 671 660 c 0
 610 684 560 703 506 703 c 0
 440 703 388 659 365 546 c 2
 356 501 l 1
 56 554 l 1
 65 613 l 1
 118 918 230 1090 486 1090 c 0
EndSplineSet
Colour: ff00ff
EndChar

StartChar: uniE048
Encoding: 57416 57416 359
Width: 1337
GlyphClass: 2
Flags: HMW
LayerCount: 2
Fore
SplineSet
828 1195 m 257
 1086 590 l 258
 1153 432 1209 390 1329 390 c 258
 1337 390 l 257
 1337 0 l 257
 1324 0 l 258
 1154 0 1006 52 910 188 c 1
 825 50 655 -10 476 -10 c 0
 317 -10 152 41 30 142 c 1
 193 453 l 1
 279 404 379 380 468 380 c 0
 570 380 651 401 719 460 c 1
 469 1023 l 257
 828 1195 l 257
EndSplineSet
Colour: ff00ff
EndChar

StartChar: uniE049
Encoding: 57417 57417 360
Width: 975
GlyphClass: 2
Flags: HMW
LayerCount: 2
Fore
SplineSet
300 719 m 1
 669 847 l 1
 745 608 l 2
 808 410 825 390 974 390 c 2
 975 390 l 1
 975 0 l 1
 974 0 l 2
 900 0 840 10 785 40 c 1
 728 -243 513 -450 91 -601 c 1
 -80 -251 l 1
 272 -132 411 -16 411 206 c 0
 411 334 370 519 300 719 c 1
EndSplineSet
Colour: ff00ff
EndChar

StartChar: uniE04A
Encoding: 57418 57418 361
Width: 2796
GlyphClass: 2
Flags: HMW
LayerCount: 2
Fore
SplineSet
164 784 m 1
 518 678 l 1
 467 513 419 344 419 204 c 0
 419 15 506 -122 791 -122 c 0
 1071 -122 1161 3 1161 178 c 0
 1161 325 1091 519 1030 674 c 1
 1413 828 l 1
 1514 503 l 2
 1542 407 1568 390 1613 390 c 0
 1664 390 1693 424 1699 488 c 2
 1717 732 l 1
 2054 710 l 1
 2040 490 l 2
 2035 422 2061 390 2122 390 c 0
 2181 390 2207 419 2207 487 c 0
 2207 532 2196 617 2169 779 c 1
 2545 858 l 1
 2568 692 l 1
 2607 425 2634 390 2795 390 c 2
 2796 390 l 1
 2796 0 l 1
 2795 0 l 2
 2616 0 2503 57 2470 164 c 1
 2438 66 2322 0 2178 0 c 0
 2016 0 1930 59 1882 164 c 1
 1855 62 1753 0 1653 0 c 0
 1618 0 1574 6 1546 15 c 1
 1477 -349 1141 -512 791 -512 c 0
 279 -512 40 -258 40 165 c 0
 40 343 81 553 164 784 c 1
EndSplineSet
Colour: ff00ff
EndChar

StartChar: uniE04B
Encoding: 57419 57419 362
Width: 1699
GlyphClass: 2
Flags: HMW
LayerCount: 2
Fore
SplineSet
671 391 m 0
 729 386 762 419 768 488 c 2
 786 732 l 1
 1123 710 l 1
 1109 490 l 2
 1104 422 1130 390 1191 390 c 0
 1249 390 1273 418 1273 485 c 0
 1273 535 1260 641 1235 787 c 1
 1613 877 l 1
 1643 743 1659 607 1659 490 c 0
 1659 159 1530 0 1263 0 c 0
 1101 0 999 59 951 164 c 1
 905 54 810 0 660 -0 c 0
 511 0 417 52 372 160 c 1
 307 61 177 0 31 0 c 2
 0 0 l 2
 -35 0 -50 60 -50 200 c 0
 -50 336 -36 390 0 390 c 2
 31 390 l 2
 148 390 199 428 208 534 c 2
 229 790 l 1
 619 762 l 1
 598 499 l 2
 592 431 615 396 671 391 c 0
EndSplineSet
Colour: ff00ff
EndChar

StartChar: uniE04C
Encoding: 57420 57420 363
Width: 1865
GlyphClass: 2
Flags: HMW
LayerCount: 2
Fore
SplineSet
1191 390 m 0
 1250 390 1276 419 1276 487 c 0
 1276 532 1265 617 1238 779 c 1
 1614 858 l 1
 1637 692 l 1
 1676 425 1703 390 1864 390 c 2
 1865 390 l 1
 1865 0 l 1
 1864 0 l 2
 1685 0 1572 57 1539 164 c 1
 1507 66 1391 0 1247 0 c 0
 1099 0 997 62 951 164 c 1
 905 54 810 0 660 0 c 0
 511 0 417 52 372 160 c 1
 307 61 177 0 31 0 c 2
 0 0 l 2
 -35 0 -50 60 -50 200 c 0
 -50 336 -36 390 0 390 c 2
 31 390 l 2
 148 390 199 428 208 534 c 2
 229 790 l 1
 619 762 l 1
 598 499 l 2
 592 431 615 396 671 391 c 0
 729 386 762 419 768 488 c 2
 786 732 l 1
 1123 710 l 1
 1109 490 l 2
 1104 422 1130 390 1191 390 c 0
EndSplineSet
Colour: ff00ff
EndChar

StartChar: uniE04D
Encoding: 57421 57421 364
Width: 2634
GlyphClass: 2
Flags: HMW
LayerCount: 2
Fore
SplineSet
2034 593 m 0
 1958 593 1865 528 1778 414 c 1
 1815 399 1866 390 1921 390 c 0
 2048 390 2132 436 2132 507 c 0
 2132 556 2091 593 2034 593 c 0
2109 976 m 0
 2383 976 2561 769 2561 502 c 0
 2561 462 2556 425 2550 390 c 1
 2572 390 2612 390 2632 390 c 1
 2634 390 l 1
 2634 0 l 1
 2632 0 l 2
 2496 0 2406 47 2362 109 c 1
 2242 32 2075 0 1881 0 c 0
 1755 0 1645 19 1551 47 c 1
 1494 -334 1163 -492 791 -492 c 0
 279 -492 40 -238 40 185 c 0
 40 363 81 573 164 804 c 1
 518 698 l 1
 467 533 419 364 419 224 c 0
 419 35 506 -102 791 -102 c 0
 1071 -102 1161 23 1161 198 c 0
 1161 345 1096 526 1030 694 c 1
 1411 874 l 1
 1444 787 1483 656 1509 556 c 1
 1675 785 1844 976 2109 976 c 0
EndSplineSet
Colour: ff00ff
EndChar

StartChar: uniE04E
Encoding: 57422 57422 365
Width: 1693
GlyphClass: 2
Flags: HMW
LayerCount: 2
Fore
SplineSet
1126 593 m 0
 1050 593 957 528 870 414 c 1
 907 399 958 390 1013 390 c 0
 1140 390 1224 436 1224 507 c 0
 1224 556 1183 593 1126 593 c 0
215 784 m 1
 605 784 l 1
 606 547 l 1
 611 545 616 542 621 539 c 1
 739 788 946 976 1201 976 c 0
 1475 976 1653 769 1653 502 c 0
 1653 137 1368 0 973 0 c 0
 717 0 515 72 409 164 c 1
 353 66 189 0 31 0 c 2
 0 0 l 2
 -31 0 -50 38 -50 196 c 0
 -50 354 -31 390 0 390 c 2
 31 390 l 2
 194 390 215 409 215 581 c 2
 215 784 l 1
EndSplineSet
Colour: ff00ff
EndChar

StartChar: uniE04F
Encoding: 57423 57423 366
Width: 1724
GlyphClass: 2
Flags: HMW
LayerCount: 2
Fore
SplineSet
215 784 m 1
 605 784 l 1
 606 547 l 1
 611 545 616 542 621 539 c 1
 739 788 946 976 1201 976 c 0
 1475 976 1653 769 1653 502 c 0
 1653 462 1649 425 1643 390 c 1
 1672 390 1696 390 1723 390 c 1
 1724 390 l 1
 1724 0 l 1
 1723 0 l 2
 1611 0 1509 32 1454 109 c 1
 1334 33 1167 0 973 0 c 0
 717 0 515 72 409 164 c 1
 353 66 189 0 31 0 c 2
 0 0 l 2
 -31 0 -50 38 -50 196 c 0
 -50 354 -31 390 0 390 c 2
 31 390 l 2
 194 390 215 409 215 581 c 2
 215 784 l 1
1126 593 m 0
 1050 593 957 528 870 414 c 1
 907 399 958 390 1013 390 c 0
 1140 390 1224 436 1224 507 c 0
 1224 556 1183 593 1126 593 c 0
EndSplineSet
Colour: ff00ff
EndChar

StartChar: uniE050
Encoding: 57424 57424 367
Width: 1638
GlyphClass: 2
Flags: HMW
LayerCount: 2
Back
SplineSet
768 390 m 1
 940 390 l 2
 1083.12129778 390 1141 419.39453125 1141 492.068359375 c 0
 1141 552.154296875 1101.43492393 593 1043.24121094 593 c 0
 964.996615754 593 864.858462698 519.14461693 768 390 c 1
308 390 m 2
 309 391 312 394 313 395 c 2
 313 1505 l 1
 704 1505 l 1
 704 778 l 1
 839 919 973 976 1121 976 c 0
 1395 976 1571 763 1571 502 c 0
 1571 462 1567 425 1560 390 c 1
 1587 390 1612 390 1637 390 c 1
 1638 390 l 1
 1638 0 l 1
 1637 0 l 2
 1508 0 1433 43 1385 117 c 1
 1254 25 1065 0 847 0 c 2
 40 0 l 1
 40 390 l 1
 308 390 l 2
EndSplineSet
Fore
SplineSet
768 390 m 1
 940 390 l 2
 1083 390 1141 419 1141 492 c 0
 1141 552 1101 593 1043 593 c 0
 965 593 865 519 768 390 c 1
308 390 m 2
 309 391 312 394 313 395 c 2
 313 1505 l 1
 704 1505 l 1
 704 976 l 2
 704 899 696 811 674 736 c 1
 794 894 951 976 1121 976 c 0
 1395 976 1571 763 1571 502 c 0
 1571 462 1567 425 1560 390 c 1
 1587 390 1612 390 1637 390 c 1
 1638 390 l 1
 1638 0 l 1
 1637 0 l 2
 1508 0 1433 43 1385 117 c 1
 1254 25 1065 0 847 0 c 2
 40 0 l 1
 40 390 l 1
 308 390 l 2
EndSplineSet
Colour: ff00ff
EndChar

StartChar: uniE051
Encoding: 57425 57425 368
Width: 1399
GlyphClass: 2
Flags: HMW
LayerCount: 2
Fore
SplineSet
0 0 m 273
 -31 0 -50 38 -50 196 c 256
 -50 354 -31 390 0 390 c 257
 96 390 l 2
 97 391 100 394 101 395 c 2
 101 1505 l 1
 492 1505 l 1
 492 976 l 2
 492 899 484 811 462 736 c 1
 582 894 739 976 909 976 c 0
 1183 976 1359 763 1359 502 c 0
 1359 230 1224 0 635 0 c 2
 0 0 l 273
556 390 m 1
 728 390 l 2
 871 390 929 419 929 492 c 0
 929 552 889 593 831 593 c 0
 753 593 653 519 556 390 c 1
EndSplineSet
Colour: ff00ff
EndChar

StartChar: uniE052
Encoding: 57426 57426 369
Width: 1425
GlyphClass: 2
Flags: HMW
LayerCount: 2
Fore
SplineSet
0 0 m 2
 -31 0 -50 38 -50 196 c 0
 -50 354 -31 390 0 390 c 2
 95 390 l 2
 96 391 99 394 100 395 c 2
 100 1505 l 1
 491 1505 l 1
 491 976 l 2
 491 899 483 811 461 736 c 1
 581 894 738 976 908 976 c 0
 1182 976 1358 763 1358 502 c 0
 1358 462 1354 425 1347 390 c 1
 1374 390 1399 390 1424 390 c 1
 1425 390 l 1
 1425 0 l 1
 1424 0 l 2
 1295 0 1220 43 1172 117 c 1
 1041 25 852 0 634 0 c 2
 0 0 l 2
555 390 m 1
 727 390 l 2
 870 390 928 419 928 492 c 0
 928 552 888 593 830 593 c 0
 752 593 652 519 555 390 c 1
EndSplineSet
Colour: ff00ff
EndChar

StartChar: uniE053
Encoding: 57427 57427 370
Width: 1324
GlyphClass: 2
Flags: HMW
LayerCount: 2
Fore
SplineSet
893 620 m 0
 893 647 872 684 771 684 c 0
 728 684 688 678 639 662 c 1
 639 653 l 1
 789 497 l 1
 849 536 893 598 893 620 c 0
1247 650 m 0
 1247 552 1195 448 1127 390 c 1
 1165 390 1247 390 1286 390 c 2
 1324 390 l 1
 1324 0 l 1
 1238 0 l 2
 1068 0 883 56 773 124 c 1
 527 36 430 -97 430 -214 c 0
 430 -351 611 -402 807 -402 c 0
 975 -402 1134 -369 1232 -322 c 1
 1364 -672 l 1
 1212 -743 1006 -788 803 -788 c 0
 409 -788 40 -625 40 -217 c 0
 40 54 223 253 464 363 c 1
 219 609 l 1
 227 831 l 1
 389 991 585 1049 781 1049 c 0
 989 1049 1247 918 1247 650 c 0
EndSplineSet
Colour: ff00ff
EndChar

StartChar: uniE054
Encoding: 57428 57428 371
Width: 1156
GlyphClass: 2
Flags: HMW
LayerCount: 2
Fore
SplineSet
451 586 m 0
 451 502 504 457 601 457 c 0
 625 457 652 460 678 465 c 2
 1043 536 l 1
 1116 150 l 1
 543 42 l 1
 399 16 206 0 36 0 c 2
 0 0 l 2
 -36 0 -50 56 -50 196 c 0
 -50 335 -36 390 0 390 c 2
 19 390 l 2
 48 390 70 390 96 390 c 1
 72 444 60 506 60 576 c 0
 60 890 300 1125 617 1125 c 0
 778 1125 908 1065 1049 927 c 1
 852 643 l 1
 775 708 710 735 631 735 c 0
 518 735 451 680 451 586 c 0
EndSplineSet
Colour: ff00ff
EndChar

StartChar: uniE055
Encoding: 57429 57429 372
Width: 1182
GlyphClass: 2
Flags: HMW
LayerCount: 2
Fore
SplineSet
639 684 m 0
 600 684 554 678 511 662 c 1
 511 653 l 1
 660 497 l 1
 721 539 764 595 764 621 c 0
 764 641 752 684 639 684 c 0
653 1049 m 0
 867 1049 1122 917 1122 652 c 0
 1122 552 1067 449 1000 390 c 1
 1039 390 1088 390 1132 390 c 2
 1182 390 l 1
 1182 0 l 1
 1089 0 l 2
 911 0 785 41 663 125 c 1
 511 41 318 0 110 0 c 2
 0 0 l 257
 -31 0 -50 38 -50 196 c 256
 -50 354 -31 390 0 390 c 257
 98 390 l 2
 170 390 238 390 306 390 c 1
 91 609 l 1
 98 831 l 1
 256 988 458 1049 653 1049 c 0
EndSplineSet
Colour: ff00ff
EndChar

StartChar: uniE056
Encoding: 57430 57430 373
Width: 1850
GlyphClass: 2
Flags: HMW
LayerCount: 2
Fore
SplineSet
1638 666 m 2
 1638 418 1659 390 1849 390 c 2
 1850 390 l 1
 1850 0 l 1
 1849 0 l 2
 1644 0 1507 57 1443 169 c 1
 1348 54 1154 0 832 0 c 0
 274 0 40 160 40 544 c 0
 40 644 56 765 85 882 c 1
 440 805 l 1
 419 696 410 623 410 568 c 0
 410 426 476 390 813 390 c 0
 1167 390 1247 438 1247 666 c 2
 1247 1496 l 1
 1638 1496 l 1
 1638 666 l 2
EndSplineSet
Colour: ff00ff
EndChar

StartChar: uniE057
Encoding: 57431 57431 374
Width: 928
GlyphClass: 2
Flags: HMW
LayerCount: 2
Back
SplineSet
961 1678 m 1
 1038 1295 l 1
 854 1257 678 1197 471 1095 c 1
 471 1085 l 1
 666 909 852 726 852 482.7890625 c 0
 852 97 384 0 159 0 c 2
 0 0 l 2
 -31 0 -50 38 -50 196 c 0
 -50 354 -31 390 0 390 c 2
 150 390 l 2
 387 390 462 448 462 506.555664062 c 0
 462 616 200 815 3 964 c 1
 3 1268 l 1
 313 1471 624 1612 961 1678 c 1
EndSplineSet
Fore
SplineSet
961 1678 m 1
 1038 1295 l 1
 847 1256 671 1193 471 1095 c 1
 471 1085 l 1
 740 842 852 664 852 479 c 0
 852 189 578 0 159 0 c 2
 0 0 l 2
 -36 0 -50 56 -50 196 c 0
 -50 335 -36 390 0 390 c 2
 150 390 l 2
 347 390 462 433 462 506 c 0
 462 585 329 717 3 964 c 1
 3 1268 l 1
 330 1482 641 1615 961 1678 c 1
EndSplineSet
Colour: ff00ff
EndChar

StartChar: uniE058
Encoding: 57432 57432 375
Width: 1156
GlyphClass: 2
Flags: HMW
LayerCount: 2
Fore
SplineSet
961 1678 m 1
 1038 1295 l 1
 847 1256 671 1193 471 1095 c 1
 471 1085 l 1
 641 926 750 789 828 638 c 0
 920 458 1010 390 1155 390 c 2
 1156 390 l 1
 1156 0 l 1
 1155 0 l 2
 993 0 811 77 711 189 c 1
 599 71 400 0 179 0 c 2
 0 0 l 2
 -36 0 -50 56 -50 196 c 0
 -50 335 -36 390 0 390 c 2
 170 390 l 2
 348 390 462 436 462 507 c 0
 462 585 328 718 3 964 c 1
 3 1268 l 1
 330 1482 641 1615 961 1678 c 1
EndSplineSet
Colour: ff00ff
EndChar

StartChar: uniE059
Encoding: 57433 57433 376
Width: 1652
GlyphClass: 2
Flags: HMW
LayerCount: 2
Fore
SplineSet
1652 390 m 1
 1652 0 l 1
 1600 0 l 2
 1525 0 1456 22 1412 72 c 1
 1412 66 l 2
 1412 -279 1118 -540 697 -540 c 0
 248 -540 40 -294 40 45 c 0
 40 194 78 372 146 545 c 1
 489 424 l 1
 450 311 422 192 422 99 c 0
 422 -47 503 -149 714 -149 c 0
 935 -149 1032 -47 1032 160 c 2
 1032 1505 l 1
 1423 1505 l 1
 1423 556 l 2
 1423 416 1460 390 1600 390 c 2
 1652 390 l 1
EndSplineSet
Colour: ff00ff
EndChar

StartChar: uniE05A
Encoding: 57434 57434 377
Width: 665
GlyphClass: 2
Flags: HMW
LayerCount: 2
Fore
SplineSet
0 390 m 0
 163 390 174 399 174 525 c 2
 174 1505 l 1
 565 1505 l 1
 565 525 l 2
 565 189 362 0 0 0 c 0
 -31 0 -51 38 -51 196 c 0
 -51 354 -31 390 0 390 c 0
EndSplineSet
Colour: ff00ff
EndChar

StartChar: uniE05B
Encoding: 57435 57435 378
Width: 744
GlyphClass: 2
Flags: HMW
LayerCount: 2
Fore
SplineSet
564 542 m 2
 564 422 602 390 743 390 c 2
 744 390 l 1
 744 0 l 1
 743 0 l 2
 574 0 418 70 369 169 c 1
 319 69 169 0 0 0 c 0
 -31 0 -50 38 -50 196 c 0
 -50 354 -31 390 0 390 c 0
 163 390 174 399 174 525 c 2
 174 1505 l 1
 564 1505 l 1
 564 542 l 2
EndSplineSet
Colour: ff00ff
EndChar

StartChar: uniE05C
Encoding: 57436 57436 379
Width: 1516
GlyphClass: 2
Flags: HMW
LayerCount: 2
Fore
SplineSet
840 581 m 0
 782 581 736 492 723 414 c 1
 734 411 754 406 766 403 c 0
 811 390 861 381 892 381 c 0
 919 381 930 392 930 423 c 0
 930 488 915 581 840 581 c 0
850 964 m 0
 1089 964 1169 798 1243 644 c 0
 1306 512 1365 390 1515 390 c 2
 1516 390 l 1
 1516 0 l 1
 1515 0 l 2
 1361 0 1281 47 1220 162 c 1
 1163 64 1079 -11 941 -11 c 0
 841 -11 714 14 623 34 c 0
 562 48 500 59 471 59 c 0
 445 59 431 45 431 18 c 2
 431 -685 l 1
 40 -685 l 1
 40 60 l 2
 40 284 172 475 385 475 c 1
 430 753 596 964 850 964 c 0
EndSplineSet
Colour: ff00ff
EndChar

StartChar: uniE05D
Encoding: 57437 57437 380
Width: 1129
GlyphClass: 2
Flags: HMW
LayerCount: 2
Fore
SplineSet
0 390 m 0
 120 390 179 502 243 626 c 0
 330 794 419 964 653 964 c 0
 912 964 1089 718 1089 445 c 0
 1089 167 940 -10 669 -10 c 0
 534 -10 387 46 326 134 c 1
 243 45 143 0 0 0 c 0
 -31 0 -50 38 -50 196 c 0
 -50 354 -31 390 0 390 c 0
524 432 m 1
 572 396 632 380 669 380 c 0
 690 380 734 393 734 445 c 0
 734 541 683 581 650 581 c 0
 622 581 577 578 530 450 c 1
 524 432 l 1
EndSplineSet
Colour: ff00ff
EndChar

StartChar: uniE05E
Encoding: 57438 57438 381
Width: 1319
GlyphClass: 2
Flags: HMW
LayerCount: 2
Fore
SplineSet
524 432 m 1
 572 396 632 380 669 380 c 0
 690 380 734 393 734 445 c 0
 734 541 683 581 650 581 c 0
 622 581 577 578 530 450 c 1
 524 432 l 1
0 390 m 0
 119 390 179 504 244 629 c 0
 331 796 424 964 642 964 c 0
 877 964 971 801 1046 644 c 0
 1109 512 1169 390 1318 390 c 2
 1319 390 l 1
 1319 0 l 1
 1318 0 l 2
 1177 0 1042 37 1000 183 c 1
 957 62 824 -11 669 -11 c 0
 534 -11 387 46 326 134 c 1
 243 45 143 0 0 0 c 0
 -31 0 -50 38 -50 196 c 0
 -50 354 -31 390 0 390 c 0
EndSplineSet
Colour: ff00ff
EndChar

StartChar: uniE05F
Encoding: 57439 57439 382
Width: 1211
GlyphClass: 2
Flags: HMW
LayerCount: 2
Fore
SplineSet
622 1030 m 1
 609 1206 l 1
 1001 1230 l 1
 1039 553 l 2
 1045 446 1071 390 1210 390 c 2
 1211 390 l 1
 1211 0 l 1
 1210 0 l 2
 974 0 827 59 746 177 c 1
 688 154 622 141 557 141 c 0
 334 141 100 240 100 490 c 0
 100 806 348 973 622 1030 c 1
648 677 m 1
 496 674 457 604 457 562 c 0
 457 528 493 491 589 491 c 0
 606 491 642 494 662 498 c 1
 660 510 659 518 658 534 c 2
 648 677 l 1
EndSplineSet
Colour: ff00ff
EndChar

StartChar: uniE060
Encoding: 57440 57440 383
Width: 1476
GlyphClass: 2
Flags: HMW
LayerCount: 2
Fore
SplineSet
0 390 m 257
 98 390 l 2
 118 390 133 390 150 390 c 257
 112 459 89 533 89 605 c 0
 89 703 124 801 197 896 c 257
 107 936 l 257
 261 1295 l 257
 899 1021 l 258
 1280 857 1436 687 1436 425 c 256
 1436 202 1274 -11 962 -11 c 256
 785 -11 651 38 520 104 c 257
 416 41 245 0 115 0 c 2
 0 0 l 257
 -31 0 -50 38 -50 196 c 256
 -50 354 -31 390 0 390 c 257
527 462 m 1
 593 493 639 538 639 617 c 0
 639 674 610 722 545 722 c 0
 483 722 450 666 450 597 c 0
 450 542 477 497 527 462 c 1
863 391 m 1
 897 385 934 382 970 382 c 0
 1017 382 1057 397 1057 450 c 0
 1057 498 1017 552 940 583 c 1
 937 519 905 438 863 391 c 1
EndSplineSet
Colour: ff00ff
EndChar

StartChar: uniE061
Encoding: 57441 57441 384
Width: 1154
GlyphClass: 2
Flags: HMW
LayerCount: 2
Fore
SplineSet
582 1044 m 0
 798 1044 937 891 937 654 c 0
 937 392 772 181 473 59 c 1
 494 -13 526 -64 585 -122 c 1
 624 -105 l 1
 751 206 940 390 1132 390 c 2
 1154 390 l 1
 1154 0 l 1
 1128 0 l 2
 1017 0 943 -111 840 -432 c 1
 588 -539 l 1
 356 -432 204 -248 140 0 c 1
 0 0 l 2
 -36 0 -50 56 -50 196 c 0
 -50 335 -36 390 0 390 c 2
 109 390 l 1
 134 799 311 1044 582 1044 c 0
441 411 m 1
 551 421 624 490 624 582 c 0
 624 629 605 653 567 653 c 0
 491 653 441 558 441 411 c 1
EndSplineSet
Colour: ff00ff
EndChar

StartChar: uniE062
Encoding: 57442 57442 385
Width: 994
GlyphClass: 2
Flags: HMW
LayerCount: 2
Fore
SplineSet
579 395 m 1
 561 551 529 588 477 588 c 0
 424 588 398 528 398 448 c 0
 398 410 416 390 485 390 c 0
 517 390 557 392 579 395 c 1
525 0 m 1
 493 0 462 0 432 0 c 0
 193 0 59 149 59 409 c 0
 59 660 190 964 485 964 c 0
 796 964 907 725 934 390 c 1
 994 390 l 1
 994 0 l 1
 917 0 l 1
 847 -275 620 -462 211 -601 c 1
 40 -249 l 1
 260 -175 443 -88 525 0 c 1
EndSplineSet
Colour: ff00ff
EndChar

StartChar: uniE063
Encoding: 57443 57443 386
Width: 1335
GlyphClass: 2
Flags: HMW
LayerCount: 2
Back
SplineSet
665 557 m 257
 289 496 l 257
 255 781 170 1099 50 1387 c 257
 416 1525 l 257
 541 1224 630 887 665 557 c 257
844 1505 m 1
 1235 1505 l 1
 1235 888 l 2
 1235 206 1071 0 313 0 c 0
 60 0 l 1
 60 390 l 1
 345 390 l 0
 817 390 844 424 844 854 c 2
 844 1505 l 1
EndSplineSet
Fore
SplineSet
50 1387 m 1
 416 1525 l 1
 533 1244 628 877 659 588 c 1
 281 534 l 1
 251 781 156 1132 50 1387 c 1
844 1505 m 1
 1235 1505 l 1
 1235 888 l 2
 1235 182 1046 0 313 0 c 2
 60 0 l 1
 60 390 l 1
 345 390 l 2
 812 390 844 420 844 854 c 2
 844 1505 l 1
EndSplineSet
Colour: ff00ff
EndChar

StartChar: uniE064
Encoding: 57444 57444 387
Width: 1414
GlyphClass: 2
Flags: HMW
LayerCount: 2
Back
SplineSet
665 557 m 257
 289 496 l 257
 255 781 170 1099 50 1387 c 257
 416 1525 l 257
 541 1224 630 887 665 557 c 257
844 1505 m 1
 1235 1505 l 1
 1235 540 l 2
 1235 427 1270 390 1412 390 c 2
 1414 390 l 1
 1414 0 l 1
 1412 0 l 2
 1219 0 1023.2 46.4 950 266 c 2
 949 269 l 1
 795 57 502 0 60 0 c 1
 60 390 l 1
 653 390 844 451 844 1038 c 2
 844 1505 l 1
EndSplineSet
Fore
SplineSet
50 1387 m 1
 416 1525 l 1
 531 1248 617 912 649 617 c 1
 271 564 l 1
 241 816 155 1134 50 1387 c 1
844 1505 m 1
 1235 1505 l 1
 1235 540 l 2
 1235 423 1274 390 1412 390 c 2
 1414 390 l 1
 1414 0 l 1
 1412 0 l 2
 1164 0 1009 89 950 266 c 2
 949 269 l 1
 811 78 553 0 60 0 c 1
 60 390 l 1
 655 390 844 474 844 738 c 9
 844 1505 l 1
EndSplineSet
Colour: ff00ff
EndChar

StartChar: uniE065
Encoding: 57445 57445 388
Width: 1975
GlyphClass: 2
Flags: HMW
LayerCount: 2
Fore
SplineSet
1843 801 m 257
 1823 696 1809 608 1809 544 c 0
 1809 443 1847 390 1973 390 c 258
 1975 390 l 257
 1975 0 l 257
 1973 0 l 258
 1759 0 1629 61 1510 216 c 257
 1328 53 1089 0 792 0 c 256
 250 0 40 227 40 586 c 0
 40 705 61 839 102 983 c 257
 442 892 l 257
 415 792 403 705 403 640 c 0
 403 450 512 390 847 390 c 256
 1251 390 1420 525 1487 860 c 257
 1843 801 l 257
EndSplineSet
Colour: ff00ff
EndChar

StartChar: uniE066
Encoding: 57446 57446 389
Width: 965
GlyphClass: 2
Flags: HMW
LayerCount: 2
Fore
SplineSet
526 827 m 257
 508 983 476 1020 424 1020 c 256
 371 1020 345 960 345 880 c 256
 345 842 363 822 432 822 c 256
 464 822 504 824 526 827 c 257
0 390 m 257
 45 390 l 2
 559 390 582 395 582 512 c 257
 515 492 452 487 384 487 c 256
 158 487 14 572 14 828 c 256
 14 1071 121 1403 433 1403 c 256
 900 1403 925 772 925 598 c 256
 925 193 793 0 68 0 c 2
 0 0 l 257
 -31 0 -50 38 -50 196 c 256
 -50 354 -31 390 0 390 c 257
EndSplineSet
Colour: ff00ff
EndChar

StartChar: uniE067
Encoding: 57447 57447 390
Width: 1958
GlyphClass: 2
Flags: HMW
LayerCount: 2
Fore
SplineSet
1447 85 m 257
 1290 39 1073 0 870 0 c 256
 275 0 40 172 40 519 c 0
 40 652 75 808 136 990 c 257
 476 881 l 257
 436 756 414 660 414 591 c 0
 414 426 555 390 870 390 c 256
 932 390 1030 390 1093 390 c 257
 1025 452 981 536 981 654 c 256
 981 920 1186 1122 1452 1122 c 256
 1712 1122 1925 922 1925 660 c 256
 1925 547 1882 455 1815 390 c 257
 1848 390 1872 390 1911 390 c 258
 1958 390 l 257
 1958 0 l 257
 1877 0 l 258
 1725 0 1565 31 1447 85 c 257
1450 471 m 257
 1507 507 1535 571 1535 632 c 256
 1535 672 1515 731 1452 731 c 256
 1387 731 1371 675 1371 632 c 256
 1371 573 1400 507 1450 471 c 257
EndSplineSet
Colour: ff00ff
EndChar

StartChar: uniE068
Encoding: 57448 57448 391
Width: 1066
GlyphClass: 2
Flags: HMW
LayerCount: 2
Fore
SplineSet
60 654 m 256
 60 920 267 1122 533 1122 c 256
 793 1122 1005 922 1005 660 c 256
 1005 547 961 455 893 390 c 257
 926 390 953 390 991 390 c 258
 1066 390 l 257
 1066 0 l 257
 957 0 l 258
 805 0 642 31 524 85 c 257
 406 31 248 0 96 0 c 258
 0 0 l 257
 -31 0 -51 38 -51 196 c 256
 -51 354 -31 390 0 390 c 257
 61 390 l 258
 101 390 134 390 171 390 c 257
 104 452 60 537 60 654 c 256
531 472 m 257
 590 508 614 570 614 632 c 256
 614 672 596 731 533 731 c 256
 468 731 451 675 451 632 c 256
 451 573 482 508 531 472 c 257
EndSplineSet
Colour: ff00ff
EndChar

StartChar: uniE069
Encoding: 57449 57449 392
Width: 1591
GlyphClass: 2
Flags: HMW
LayerCount: 2
Fore
SplineSet
1178 377 m 257
 1160 533 1129 570 1077 570 c 256
 1024 570 999 510 999 430 c 256
 999 392 1016 372 1085 372 c 257
 1117 372 1156 374 1178 377 c 257
1136 18 m 257
 1115 10 1066 0 1032 0 c 257
 794 0 660 149 660 408 c 256
 660 659 791 964 1086 964 c 256
 1362 964 1512 768 1540 390 c 257
 1591 390 l 257
 1591 0 l 257
 1519 0 l 257
 1459 -348 1131 -541 782 -541 c 0
 325 -541 40 -285 40 116 c 0
 40 281 83 472 175 679 c 257
 526 516 l 257
 467 358 430 223 430 118 c 0
 430 -56 558 -150 814 -150 c 0
 976 -150 1108 -84 1136 18 c 257
EndSplineSet
Colour: ff00ff
EndChar

StartChar: uniFD3E
Encoding: 64830 64830 421
Width: 802
GlyphClass: 2
Flags: HMW
LayerCount: 2
Fore
SplineSet
229 742 m 256
 229 649 285 579 380 579 c 256
 475 579 532 649 532 742 c 256
 532 835 475 904 380 904 c 256
 285 904 229 835 229 742 c 256
764 -1 m 1
 538 -148 l 1
 402 48 305 215 255 417 c 1
 119 469 41 602 41 742 c 0
 41 881 118 1013 253 1065 c 1
 303 1275 401 1454 538 1651 c 1
 764 1505 l 1
 660 1343 599 1188 570 1033 c 1
 666 970 721 858 721 742 c 0
 721 626 667 514 571 451 c 1
 602 304 661 159 764 -1 c 1
EndSplineSet
EndChar

StartChar: uniFD3F
Encoding: 64831 64831 422
Width: 802
GlyphClass: 2
Flags: HMW
LayerCount: 2
Fore
SplineSet
574 742 m 256
 574 835 519 904 424 904 c 256
 329 904 273 835 273 742 c 256
 273 649 329 579 424 579 c 256
 519 579 574 649 574 742 c 256
41 -1 m 1
 144 159 203 304 234 451 c 1
 138 514 84 626 84 742 c 0
 84 858 139 970 235 1033 c 1
 206 1188 145 1343 41 1505 c 1
 266 1651 l 1
 403 1454 501 1275 551 1065 c 1
 686 1013 764 881 764 742 c 0
 764 602 685 469 549 417 c 1
 499 215 402 48 266 -148 c 1
 41 -1 l 1
EndSplineSet
EndChar

StartChar: v
Encoding: 118 118 520
Width: 1220
GlyphClass: 2
Flags: HMW
LayerCount: 2
Fore
SplineSet
813 1135 m 257
 1231 1135 l 257
 835 0 l 257
 391 0 l 257
 -11 1135 l 257
 407 1135 l 257
 612 428 l 257
 813 1135 l 257
EndSplineSet
Substitution2: "'smcp' Lowercase to Small Capitals in Latin lookup 0 subtable" uni1D20
EndChar

StartChar: w
Encoding: 119 119 521
Width: 1691
GlyphClass: 2
Flags: HMW
LayerCount: 2
Fore
SplineSet
20 1135 m 1
 384 1135 l 1
 551 489 l 1
 704 1135 l 1
 987 1135 l 1
 1142 489 l 1
 1308 1135 l 1
 1672 1135 l 1
 1377 0 l 1
 993 0 l 1
 846 558 l 1
 699 0 l 1
 315 0 l 1
 20 1135 l 1
EndSplineSet
Substitution2: "'smcp' Lowercase to Small Capitals in Latin lookup 0 subtable" uni1D21
EndChar

StartChar: x
Encoding: 120 120 522
Width: 1188
GlyphClass: 2
Flags: HMW
LayerCount: 2
Fore
SplineSet
740 1135 m 257
 1188 1135 l 257
 838 545 l 257
 1188 0 l 257
 740 0 l 257
 595 267 l 257
 450 0 l 257
 0 0 l 257
 352 545 l 257
 0 1135 l 257
 450 1135 l 257
 595 826 l 257
 740 1135 l 257
EndSplineSet
Substitution2: "'smcp' Lowercase to Small Capitals in Latin lookup 0 subtable" uniA7EF
EndChar

StartChar: y
Encoding: 121 121 523
Width: 1220
GlyphClass: 2
Flags: HMW
LayerCount: 2
Fore
SplineSet
813 1135 m 257
 1231 1135 l 257
 672 -461 l 257
 233 -461 l 257
 421 0 l 257
 -11 1135 l 257
 409 1135 l 257
 612 428 l 257
 813 1135 l 257
EndSplineSet
Substitution2: "'smcp' Lowercase to Small Capitals in Latin lookup 0 subtable" uni028F
EndChar

StartChar: z
Encoding: 122 122 527
Width: 1113
GlyphClass: 2
Flags: HMW
LayerCount: 2
Fore
SplineSet
86 802 m 257
 86 1135 l 257
 1017 1135 l 257
 1017 871 l 257
 547 331 l 257
 1017 331 l 257
 1017 0 l 257
 86 0 l 257
 86 264 l 257
 556 802 l 257
 86 802 l 257
EndSplineSet
Substitution2: "'smcp' Lowercase to Small Capitals in Latin lookup 0 subtable" uni1D22
EndChar

StartChar: zero
Encoding: 48 48 528
Width: 1442
GlyphClass: 2
Flags: HMW
LayerCount: 2
Fore
SplineSet
724 1515 m 256
 1297 1515 1332 1022 1332 752 c 256
 1332 482 1297 -11 724 -11 c 256
 151 -11 112 482 112 752 c 256
 112 1022 151 1515 724 1515 c 256
724 1152 m 256
 582 1152 502 1085 502 752 c 256
 502 419 582 349 724 349 c 256
 866 349 942 417 942 752 c 256
 942 1087 866 1152 724 1152 c 256
EndSplineSet
Substitution2: "'sups' Superscript lookup 0 subtable" uni2070
Substitution2: "'subs' Subscript lookup 0 subtable" uni2080
Substitution2: "'zero' Slashed Zero lookup 19 subtable" zero.slashed
Substitution2: "'sinf' Scientific Inferiors lookup 20 subtable" uni2080
Substitution2: "'tnum' Tabular Numbers lookup 22 subtable" zero.tnum
Substitution2: "'onum' Oldstyle Figures lookup 23 subtable" zero.onum
Substitution2: "'smcp' Lowercase to Small Capitals in Latin lookup 0 subtable" zero.SC
EndChar

StartChar: uniFBE8.Extended_1
Encoding: 1114122 -1 529
Width: 671
Flags: HMW
LayerCount: 2
Fore
SplineSet
565 948 m 257
 606 779 631 626 631 496 c 0
 631 196 472 0 52 0 c 2
 0 0 l 258
 -31 0 -51 38 -51 196 c 256
 -51 354 -31 390 0 390 c 258
 52 390 l 2
 195 390 248 433 248 549 c 0
 248 618 229 718 198 847 c 257
 565 948 l 257
EndSplineSet
Colour: ff00ff
EndChar

StartChar: uniFBE9.Extended_1
Encoding: 1114123 -1 530
Width: 867
Flags: HMW
LayerCount: 2
Fore
SplineSet
657 784 m 1
 657 581 l 2
 657 402 680 390 865 390 c 2
 867 390 l 1
 867 0 l 1
 865 0 l 2
 674 0 516 68 461 164 c 1
 406 68 244 0 51 0 c 2
 0 0 l 258
 -31 0 -51 38 -51 196 c 256
 -51 354 -31 390 0 390 c 258
 51 390 l 2
 238 390 267 403 267 581 c 2
 267 784 l 1
 657 784 l 1
EndSplineSet
Colour: ff00ff
EndChar

StartChar: uniFBE8.Extended_2
Encoding: 1114132 -1 539
Width: 874
Flags: HMW
LayerCount: 2
Fore
SplineSet
768 948 m 257
 809 779 834 626 834 496 c 0
 834 196 675 0 255 0 c 2
 1 0 l 258
 -30 0 -50 38 -50 196 c 256
 -50 354 -30 390 1 390 c 258
 255 390 l 2
 398 390 451 433 451 549 c 0
 451 618 432 718 401 847 c 257
 768 948 l 257
EndSplineSet
Colour: ff00ff
EndChar

StartChar: uniFBE9.Extended_2
Encoding: 1114133 -1 540
Width: 1070
Flags: HMW
LayerCount: 2
Fore
SplineSet
860 784 m 1
 860 581 l 2
 860 402 883 390 1068 390 c 2
 1070 390 l 1
 1070 0 l 1
 1068 0 l 2
 877 0 719 68 664 164 c 1
 609 68 447 0 254 0 c 2
 0 0 l 258
 -31 0 -51 38 -51 196 c 256
 -51 354 -31 390 0 390 c 258
 254 390 l 2
 441 390 470 403 470 581 c 2
 470 784 l 1
 860 784 l 1
EndSplineSet
Colour: ff00ff
EndChar

StartChar: uniE019
Encoding: 57369 57369 553
Width: 1556
Flags: HMW
LayerCount: 2
Fore
SplineSet
605 55 m 257
 755 205 l 257
 905 55 l 257
 755 -95 l 257
 605 55 l 257
873 55 m 257
 1023 205 l 257
 1173 55 l 257
 1023 -95 l 257
 873 55 l 257
749 -168 m 257
 889 -28 l 257
 1029 -168 l 257
 889 -308 l 257
 749 -168 l 257
EndSplineSet
EndChar

StartChar: dollar.alt
Encoding: 1114146 -1 554
Width: 1299
Flags: HMW
LayerCount: 2
Fore
SplineSet
729 168 m 1
 729 -183 l 257
 572 -183 l 257
 572 168 l 1
 729 168 l 1
572 1370 m 1
 572 1688 l 257
 729 1688 l 257
 729 1370 l 1
 572 1370 l 1
EndSplineSet
Refer: 46 83 N 1 0 0 1 0 0 2
EndChar

StartChar: uniFEE0.alt
Encoding: 1114147 -1 555
Width: 742
Flags: HMW
LayerCount: 2
Fore
SplineSet
564 542 m 258
 564 424 600 390 743 390 c 258
 744 390 l 257
 744 0 l 257
 743 0 l 2
 572 0 418 71 369 169 c 1
 320 71 173 0 0 0 c 256
 -31 0 -51 38 -51 196 c 256
 -51 354 -31 390 0 390 c 256
 168 390 174 415 174 633 c 258
 174 1352 l 257
 564 1352 l 257
 564 542 l 258
EndSplineSet
EndChar

StartChar: uniFBE8.Extended_3
Encoding: 1114148 -1 556
Width: 752
Flags: HMW
LayerCount: 2
Fore
SplineSet
646 948 m 257
 687 779 712 626 712 496 c 0
 712 196 553 0 133 0 c 2
 1 0 l 258
 -30 0 -50 38 -50 196 c 256
 -50 354 -30 390 1 390 c 258
 133 390 l 2
 276 390 329 433 329 549 c 0
 329 618 310 718 279 847 c 257
 646 948 l 257
EndSplineSet
Colour: ff00ff
EndChar

StartChar: uniFBE9.Extended_3
Encoding: 1114149 -1 557
Width: 949
Flags: HMW
LayerCount: 2
Fore
SplineSet
739 784 m 1
 739 581 l 2
 739 402 762 390 947 390 c 2
 949 390 l 1
 949 0 l 1
 947 0 l 2
 756 0 598 68 543 164 c 1
 488 68 326 0 133 0 c 2
 0 0 l 258
 -31 0 -51 38 -51 196 c 256
 -51 354 -31 390 0 390 c 258
 133 390 l 2
 320 390 349 403 349 581 c 2
 349 784 l 1
 739 784 l 1
EndSplineSet
Colour: ff00ff
EndChar

StartChar: Arabic_Single_Dot
Encoding: 1114152 -1 560
Width: 612
Flags: HMW
LayerCount: 2
Fore
SplineSet
101 206 m 257
 306 411 l 257
 511 206 l 257
 306 1 l 257
 101 206 l 257
EndSplineSet
EndChar

StartChar: uniE06E
Encoding: 57454 57454 567
Width: 0
Flags: HMW
LayerCount: 2
Fore
SplineSet
-36 1226 m 5
 20 1226 l 6
 86 1226 200 1235 200 1304 c 4
 200 1338 171 1368 132 1368 c 4
 75 1368 21 1300 -36 1226 c 5
-200 1226 m 5
 -200 1618 l 1
 -68 1618 l 1
 -68 1348 l 5
 0 1432 62 1499 161 1499 c 4
 249 1499 332 1437 332 1305 c 0
 332 1144 188 1095 20 1095 c 2
 -322 1095 l 1
 -322 1226 l 5
 -200 1226 l 5
EndSplineSet
Colour: ff00ff
EndChar

StartChar: figuredash
Encoding: 8210 8210 569
Width: 1522
Flags: HMW
LayerCount: 2
Fore
SplineSet
1462 782 m 257
 1462 505 l 257
 60 505 l 257
 60 782 l 257
 1462 782 l 257
EndSplineSet
EndChar

StartChar: uni200E
Encoding: 8206 8206 570
Width: 0
Flags: HMW
LayerCount: 2
Fore
SplineSet
303 1022 m 1
 217 1108 l 1
 380 1271 l 1
 217 1434 l 1
 303 1520 l 1
 552 1271 l 1
 303 1022 l 1
304 -311 m 1
 218 -225 l 1
 381 -62 l 1
 218 101 l 1
 304 187 l 1
 553 -62 l 1
 304 -311 l 1
60 49 m 2
 60 14 77 -3 112 -3 c 2
 224 -3 l 1
 224 -123 l 1
 112 -123 l 2
 13 -123 -60 -50 -60 49 c 2
 -60 1159 l 2
 -60 1258 13 1331 112 1331 c 2
 224 1331 l 1
 224 1211 l 1
 112 1211 l 2
 77 1211 60 1194 60 1159 c 2
 60 49 l 2
EndSplineSet
EndChar

StartChar: uni200F
Encoding: 8207 8207 571
Width: 0
Flags: HMW
LayerCount: 2
Fore
SplineSet
-303 1022 m 1
 -552 1271 l 1
 -303 1520 l 1
 -217 1434 l 1
 -380 1271 l 1
 -217 1108 l 1
 -303 1022 l 1
-304 -311 m 1
 -553 -62 l 1
 -304 187 l 1
 -218 101 l 1
 -381 -62 l 1
 -218 -225 l 1
 -304 -311 l 1
-60 49 m 2
 -60 1159 l 2
 -60 1194 -77 1211 -112 1211 c 2
 -224 1211 l 1
 -224 1331 l 1
 -112 1331 l 2
 -13 1331 60 1258 60 1159 c 2
 60 49 l 2
 60 -50 -13 -123 -112 -123 c 2
 -224 -123 l 1
 -224 -3 l 1
 -112 -3 l 2
 -77 -3 -60 14 -60 49 c 2
EndSplineSet
EndChar

StartChar: uni202A
Encoding: 8234 8234 573
Width: 0
Flags: HMW
LayerCount: 2
Fore
SplineSet
-57 966 m 1
 -143 1052 l 1
 20 1215 l 1
 -143 1378 l 1
 -57 1464 l 1
 192 1215 l 1
 -57 966 l 1
-67 853 m 25
 66 853 l 25
 66 47 l 1
 -67 47 l 25
 -67 853 l 25
EndSplineSet
EndChar

StartChar: uni202B
Encoding: 8235 8235 574
Width: 0
Flags: HMW
LayerCount: 2
Fore
SplineSet
57 966 m 1
 -192 1215 l 1
 57 1464 l 1
 143 1378 l 1
 -20 1215 l 1
 143 1052 l 1
 57 966 l 1
-66 853 m 25
 67 853 l 25
 67 47 l 25
 -66 47 l 1
 -66 853 l 25
EndSplineSet
EndChar

StartChar: uni202C
Encoding: 8236 8236 575
Width: 0
Flags: HMW
LayerCount: 2
Fore
SplineSet
-248 1134 m 1
 0 1382 l 1
 250 1134 l 1
 164 1048 l 1
 0 1210 l 1
 -162 1048 l 1
 -248 1134 l 1
-67 853 m 25
 66 853 l 25
 66 47 l 1
 -67 47 l 25
 -67 853 l 25
EndSplineSet
EndChar

StartChar: uni202D
Encoding: 8237 8237 576
Width: 0
Flags: HMW
LayerCount: 2
Fore
SplineSet
95 966 m 1
 9 1052 l 1
 172 1215 l 1
 9 1378 l 1
 95 1464 l 1
 344 1215 l 1
 95 966 l 1
-179 966 m 1
 -265 1052 l 1
 -102 1215 l 1
 -265 1378 l 1
 -179 1464 l 1
 70 1215 l 1
 -179 966 l 1
-67 853 m 25
 66 853 l 25
 66 47 l 1
 -67 47 l 25
 -67 853 l 25
EndSplineSet
EndChar

StartChar: uni202E
Encoding: 8238 8238 577
Width: 0
Flags: HMW
LayerCount: 2
Fore
SplineSet
-95 966 m 1
 -344 1215 l 1
 -95 1464 l 1
 -9 1378 l 1
 -172 1215 l 1
 -9 1052 l 1
 -95 966 l 1
179 966 m 1
 -70 1215 l 1
 179 1464 l 1
 265 1378 l 1
 102 1215 l 1
 265 1052 l 1
 179 966 l 1
-66 853 m 25
 67 853 l 25
 67 47 l 25
 -66 47 l 1
 -66 853 l 25
EndSplineSet
EndChar

StartChar: uni220E
Encoding: 8718 8718 578
Width: 1103
Flags: HMW
LayerCount: 2
Fore
SplineSet
152 1239 m 1
 953 1239 l 1
 953 0 l 1
 152 0 l 1
 152 1239 l 1
EndSplineSet
EndChar

StartChar: filledbox
Encoding: 9632 9632 579
Width: 1103
Flags: HMW
LayerCount: 2
Fore
SplineSet
152 802 m 1
 953 802 l 1
 953 0 l 1
 152 0 l 1
 152 802 l 1
EndSplineSet
EndChar

StartChar: g.alt
Encoding: 1114159 -1 580
Width: 1146
Flags: HMW
LayerCount: 2
Fore
SplineSet
879 1045 m 1
 931 1134 1050 1222 1196 1222 c 1
 1196 953 l 1
 1117 953 1075 932 1020 885 c 1
 879 1045 l 1
593 1145 m 256
 947 1145 1095 950 1095 740 c 256
 1095 530 945 333 593 333 c 256
 241 333 92 530 92 740 c 256
 92 950 239 1145 593 1145 c 256
1168 -88 m 0
 1168 -370 932 -493 585 -493 c 0
 190 -493 41 -354 41 -177 c 0
 41 -73 93 32 205 85 c 1
 421 -37 l 1
 377 -74 363 -109 363 -150 c 0
 363 -221 443 -245 592 -245 c 0
 754 -245 788 -199 788 -152 c 0
 788 -106 740 -81 596 -81 c 0
 221 -81 103 38 103 234 c 0
 103 353 155 450 273 501 c 1
 432 363 l 1
 401 341 390 324 390 298 c 0
 390 244 443 214 743 214 c 0
 1077 214 1168 116 1168 -88 c 0
593 871 m 256
 511 871 482 821 482 740 c 256
 482 659 509 609 593 609 c 256
 677 609 706 659 706 740 c 256
 706 821 675 871 593 871 c 256
EndSplineSet
EndChar

StartChar: uni0601
Encoding: 1537 1537 581
Width: 4043
Flags: HMW
LayerCount: 2
Fore
SplineSet
40 406 m 1
 350 562 l 1
 410 412 431 379 461 379 c 0
 489 379 507 408 547 501 c 0
 671 794 783 904 948 904 c 0
 1096 904 1206 815 1361 576 c 0
 1458 427 1509 380 1567 380 c 0
 1643 380 1699 460 1771 676 c 1
 1994 708 l 1
 2177 494 2408 380 2667 380 c 0
 2857 380 3023 442 3273 609 c 0
 3460 734 3570 781 3678 781 c 0
 3866 781 4003 638 4003 445 c 0
 4003 291 3916 141 3696 -84 c 1
 3470 135 l 1
 3541 190 3575 232 3575 264 c 0
 3575 287 3558 304 3540 304 c 0
 3524 304 3498 290 3451 259 c 0
 3175 76 2918 -10 2671 -10 c 0
 2428 -10 2175 73 1954 228 c 1
 1853 63 1735 -10 1569 -10 c 0
 1370 -10 1225 94 1051 373 c 0
 993 466 964 498 935 498 c 0
 903 498 879 460 841 363 c 0
 729 80 625 -10 442 -10 c 0
 260 -10 173 78 40 406 c 1
EndSplineSet
Colour: ffff00
EndChar

StartChar: uni0603
Encoding: 1539 1539 582
Width: 2061
Flags: HMW
LayerCount: 2
Fore
SplineSet
40 0 m 1
 40 390 l 1
 332 390 446 512 543 930 c 1
 923 845 l 1
 788 247 529 0 40 0 c 1
1592 499 m 0
 1592 551 1557 583 1499 583 c 0
 1410 583 1305 509 1201 372 c 1
 953 538 l 1
 1181 848 1352 966 1570 966 c 0
 1838 966 2021 774 2021 493 c 0
 2021 179 1781 0 1359 0 c 0
 1021 0 770 121 503 412 c 1
 759 712 l 1
 1014 483 1197 390 1394 390 c 0
 1521 390 1592 429 1592 499 c 0
EndSplineSet
Colour: ffff00
EndChar

StartChar: uni0604
Encoding: 1540 1540 583
Width: 2858
Flags: HMW
LayerCount: 2
Fore
SplineSet
1278 -213 m 1
 1056 -96 867 0 639 0 c 2
 40 0 l 1
 40 390 l 1
 446 390 l 2
 498 390 534 383 575 368 c 1
 568 390 565 419 565 450 c 0
 565 751 787 1013 1091 1013 c 0
 1331 1013 1455 878 1563 751 c 0
 1663 633 1715 590 1821 590 c 0
 1901 590 1946 625 1946 720 c 2
 1946 983 l 1
 2277 983 l 1
 2277 720 l 2
 2277 646 2282 590 2353 590 c 0
 2425 590 2430 634 2430 705 c 0
 2430 791 2413 910 2388 1020 c 1
 2769 1100 l 1
 2805 942 2818 848 2818 677 c 0
 2818 355 2666 200 2408 200 c 0
 2239 200 2140 272 2120 364 c 1
 2100 272 2013 200 1852 200 c 0
 1632 200 1501 331 1387 450 c 0
 1299 542 1219 622 1116 622 c 0
 1000 622 954 543 954 448 c 0
 954 343 1107 280 1246 223 c 0
 1316 194 1381 166 1449 136 c 1
 1278 -213 l 1
EndSplineSet
Colour: ffff00
EndChar

StartChar: uni060D
Encoding: 1549 1549 587
Width: 889
Flags: HMW
LayerCount: 2
Fore
SplineSet
282 -614 m 257
 -136 -614 l 257
 391 738 l 257
 808 738 l 257
 282 -614 l 257
EndSplineSet
Colour: ffff00
EndChar

StartChar: uni060E
Encoding: 1550 1550 588
Width: 2186
Flags: HMW
LayerCount: 2
Fore
SplineSet
1171 415 m 0
 1171 163 1013 -57 938 -146 c 1
 637 91 l 1
 679 136 781 255 781 376 c 0
 781 492 716 553 615 553 c 0
 511 553 429 481 429 373 c 0
 429 258 567 223 689 223 c 2
 2146 223 l 1
 2146 -165 l 1
 685 -165 l 2
 330 -165 40 -3 40 351 c 0
 40 700 320 942 615 942 c 0
 924 942 1171 733 1171 415 c 0
EndSplineSet
Colour: ffff00
EndChar

StartChar: uni060F
Encoding: 1551 1551 589
Width: 1580
Flags: HMW
LayerCount: 2
Fore
SplineSet
834 -743 m 0
 350 -743 40 -496 40 -109 c 0
 40 98 129 260 336 430 c 1
 217 512 149 654 149 818 c 0
 149 1131 397 1372 718 1372 c 0
 891 1372 1060 1301 1190 1174 c 1
 993 889 l 1
 926 945 819 983 727 983 c 0
 615 983 544 928 544 841 c 0
 544 732 656 681 895 681 c 0
 967 681 1056 686 1202 697 c 1
 1219 320 l 1
 732 302 432 150 432 -80 c 0
 432 -249 594 -353 855 -353 c 0
 1019 -353 1111 -312 1111 -238 c 0
 1111 -190 1073 -160 1013 -160 c 0
 925 -160 826 -225 757 -329 c 2
 376 -898 l 1
 102 -714 l 1
 508 -164 l 2
 679 69 903 203 1121 203 c 0
 1369 203 1540 28 1540 -225 c 0
 1540 -544 1269 -743 834 -743 c 0
EndSplineSet
Colour: ffff00
EndChar

StartChar: uni06DD
Encoding: 1757 1757 694
Width: 0
Flags: HMW
LayerCount: 2
Fore
SplineSet
1081 641 m 0
 1081 413 1092 141 1123 -124 c 0
 1123 -125 1123 -126 1123 -127 c 0
 1123 -140 1112 -152 1100 -154 c 0
 842 -201 684 -268 544 -330 c 0
 380 -402 219 -461 0 -461 c 0
 -219 -461 -380 -402 -544 -330 c 0
 -684 -268 -842 -201 -1100 -154 c 0
 -1112 -152 -1123 -140 -1123 -127 c 0
 -1123 -126 -1123 -125 -1123 -124 c 0
 -1092 141 -1081 413 -1081 641 c 0
 -1081 869 -1092 1142 -1123 1407 c 0
 -1123 1408 -1123 1409 -1123 1410 c 0
 -1123 1423 -1112 1435 -1100 1437 c 0
 -842 1484 -684 1551 -544 1613 c 0
 -380 1685 -219 1744 0 1744 c 0
 219 1744 380 1685 544 1613 c 0
 684 1551 842 1484 1100 1437 c 0
 1112 1435 1123 1423 1123 1410 c 0
 1123 1409 1123 1408 1123 1407 c 0
 1092 1142 1081 869 1081 641 c 0
0 1594 m 0
 -189 1594 -328 1544 -475 1479 c 0
 -598 1425 -743 1363 -969 1320 c 1
 -943 1084 -933 843 -933 641 c 0
 -933 439 -943 199 -969 -37 c 1
 -743 -80 -598 -142 -475 -196 c 0
 -328 -261 -189 -311 -0 -311 c 0
 189 -311 328 -261 475 -196 c 0
 598 -142 743 -80 969 -37 c 1
 943 199 933 439 933 641 c 0
 933 843 943 1084 969 1320 c 1
 743 1363 598 1425 475 1479 c 0
 328 1544 189 1594 0 1594 c 0
EndSplineSet
Colour: ffff00
EndChar

StartChar: uni06DE
Encoding: 1758 1758 695
Width: 2663
Flags: HMW
LayerCount: 2
Fore
SplineSet
1331 1485 m 0
 1371 1485 1404 1451 1404 1411 c 0
 1404 1371 1371 1337 1331 1337 c 0
 1291 1337 1257 1371 1257 1411 c 0
 1257 1451 1291 1485 1331 1485 c 0
1331 -117 m 0
 1371 -117 1405 -151 1405 -191 c 0
 1405 -231 1371 -265 1331 -265 c 0
 1291 -265 1258 -231 1258 -191 c 0
 1258 -151 1291 -117 1331 -117 c 0
530 683 m 0
 570 683 604 650 604 610 c 0
 604 570 570 536 530 536 c 0
 490 536 456 570 456 610 c 0
 456 650 490 683 530 683 c 0
2132 684 m 0
 2172 684 2206 650 2206 610 c 0
 2206 570 2172 537 2132 537 c 0
 2092 537 2058 570 2058 610 c 0
 2058 650 2092 684 2132 684 c 0
790 1224 m 0
 829 1224 864 1189 864 1150 c 0
 864 1111 829 1077 790 1077 c 0
 751 1077 717 1111 717 1150 c 0
 717 1189 751 1224 790 1224 c 0
1872 143 m 0
 1911 143 1945 109 1945 70 c 0
 1945 31 1911 -4 1872 -4 c 0
 1833 -4 1798 31 1798 70 c 0
 1798 109 1833 143 1872 143 c 0
791 143 m 0
 830 143 864 108 864 69 c 0
 864 30 830 -4 791 -4 c 0
 752 -4 717 30 717 69 c 0
 717 108 752 143 791 143 c 0
1871 1224 m 0
 1910 1224 1945 1190 1945 1151 c 0
 1945 1112 1910 1077 1871 1077 c 0
 1832 1077 1798 1112 1798 1151 c 0
 1798 1190 1832 1224 1871 1224 c 0
1332 1670 m 1
 1021 1360 l 1
 581 1360 l 1
 581 921 l 1
 271 610 l 1
 581 299 l 1
 581 -140 l 1
 1021 -140 l 1
 1332 -450 l 1
 1642 -140 l 1
 2081 -140 l 1
 2081 299 l 1
 2392 610 l 1
 2081 921 l 1
 2081 1360 l 1
 1642 1360 l 1
 1332 1670 l 1
1331 1854 m 1
 1696 1490 l 1
 2211 1490 l 1
 2211 975 l 1
 2576 610 l 1
 2211 245 l 1
 2211 -270 l 1
 1696 -270 l 1
 1331 -634 l 1
 967 -270 l 1
 451 -270 l 1
 451 246 l 1
 87 610 l 1
 451 974 l 1
 451 1490 l 1
 967 1490 l 1
 1331 1854 l 1
EndSplineSet
Refer: 333 57390 N 1 0 0 1 854 50 2
Colour: ffff00
EndChar

StartChar: uni06DF
Encoding: 1759 1759 696
Width: 0
Flags: HMW
LayerCount: 2
Fore
SplineSet
-82 1464 m 0
 -82 1509 -45 1545 0 1545 c 0
 45 1545 82 1509 82 1464 c 0
 82 1419 45 1382 0 1382 c 0
 -45 1382 -82 1419 -82 1464 c 0
EndSplineSet
Colour: ff00ff
EndChar

StartChar: uni06E0
Encoding: 1760 1760 697
Width: 0
Flags: HMW
LayerCount: 2
Fore
SplineSet
-82 1382 m 1
 -82 1545 l 1
 82 1545 l 1
 82 1382 l 1
 -82 1382 l 1
EndSplineSet
Colour: ff00ff
EndChar

StartChar: uni06E9
Encoding: 1769 1769 706
Width: 1236
Flags: HMW
LayerCount: 2
Fore
SplineSet
332 82 m 1
 332 672 l 1
 84 955 l 1
 618 1444 l 1
 1152 955 l 1
 904 672 l 1
 904 82 l 1
 1082 82 l 1
 1082 0 l 1
 154 0 l 1
 154 82 l 1
 332 82 l 1
810 713 m 1
 1025 947 l 1
 618 1316 l 1
 211 947 l 1
 426 713 l 1
 426 82 l 1
 810 82 l 1
 810 713 l 1
661 922 m 1
 661 199 l 1
 575 199 l 1
 575 922 l 1
 661 922 l 1
EndSplineSet
Colour: ffff00
EndChar

StartChar: arrowleft
Encoding: 8592 8592 795
Width: 1626
VWidth: 2825
Flags: HMW
LayerCount: 2
Fore
SplineSet
1476 504 m 1
 553 504 l 1
 480 522 l 1
 802 200 l 1
 673 70 l 1
 150 594 l 1
 673 1118 l 1
 802 988 l 1
 480 666 l 1
 553 684 l 1
 1476 684 l 1
 1476 504 l 1
EndSplineSet
Colour: ffff00
EndChar

StartChar: arrowup
Encoding: 8593 8593 796
Width: 1348
VWidth: 2829
Flags: HMW
LayerCount: 2
Fore
SplineSet
584 -78 m 1
 584 846 l 1
 602 920 l 1
 280 597 l 1
 150 726 l 1
 674 1250 l 1
 1198 726 l 1
 1068 597 l 1
 746 920 l 1
 764 846 l 1
 764 -78 l 1
 584 -78 l 1
EndSplineSet
Colour: ffff00
EndChar

StartChar: arrowright
Encoding: 8594 8594 797
Width: 1626
VWidth: 2825
Flags: HMW
LayerCount: 2
Fore
SplineSet
150 684 m 1
 1073 684 l 1
 1146 666 l 1
 824 988 l 1
 953 1118 l 1
 1476 594 l 1
 953 70 l 1
 824 200 l 1
 1146 522 l 1
 1073 504 l 1
 150 504 l 1
 150 684 l 1
EndSplineSet
Colour: ffff00
EndChar

StartChar: arrowdown
Encoding: 8595 8595 798
Width: 1348
VWidth: 2829
Flags: HMW
LayerCount: 2
Fore
SplineSet
764 1250 m 1
 764 326 l 1
 746 252 l 1
 1068 575 l 1
 1198 446 l 1
 674 -78 l 1
 150 446 l 1
 280 575 l 1
 602 252 l 1
 584 326 l 1
 584 1250 l 1
 764 1250 l 1
EndSplineSet
Colour: ffff00
EndChar

StartChar: arrowboth
Encoding: 8596 8596 799
Width: 2130
VWidth: 2825
Flags: HMW
LayerCount: 2
Fore
SplineSet
673 1118 m 1
 802 988 l 1
 480 666 l 1
 553 684 l 1
 1577 684 l 1
 1650 666 l 1
 1328 988 l 1
 1457 1118 l 1
 1980 594 l 1
 1457 70 l 1
 1328 200 l 1
 1650 522 l 1
 1577 504 l 1
 553 504 l 1
 480 522 l 1
 802 200 l 1
 673 70 l 1
 150 594 l 1
 673 1118 l 1
EndSplineSet
Colour: ffff00
EndChar

StartChar: arrowupdn
Encoding: 8597 8597 800
Width: 1348
VWidth: 2825
Flags: HMW
LayerCount: 2
Fore
SplineSet
674 1510 m 1
 1198 986 l 1
 1068 857 l 1
 746 1180 l 1
 764 1106 l 1
 764 82 l 1
 746 8 l 1
 1068 331 l 1
 1198 202 l 1
 674 -322 l 1
 150 202 l 1
 280 331 l 1
 602 8 l 1
 584 82 l 1
 584 1106 l 1
 602 1180 l 1
 280 857 l 1
 150 986 l 1
 674 1510 l 1
EndSplineSet
Colour: ffff00
EndChar

StartChar: uni2196
Encoding: 8598 8598 801
Width: 1371
VWidth: 2838
Flags: HMW
LayerCount: 2
Fore
SplineSet
1094 31 m 1
 372 754 l 1
 331 819 l 1
 331 363 l 1
 150 363 l 1
 150 1102 l 1
 889 1102 l 1
 889 921 l 1
 433 921 l 1
 498 880 l 1
 1221 158 l 1
 1094 31 l 1
EndSplineSet
Colour: ffff00
EndChar

StartChar: uni2197
Encoding: 8599 8599 802
Width: 1371
VWidth: 2838
Flags: HMW
LayerCount: 2
Fore
SplineSet
150 158 m 1
 873 880 l 1
 938 921 l 1
 482 921 l 1
 482 1102 l 1
 1221 1102 l 1
 1221 363 l 1
 1040 363 l 1
 1040 819 l 1
 999 754 l 1
 277 31 l 1
 150 158 l 1
EndSplineSet
Colour: ffff00
EndChar

StartChar: uni2198
Encoding: 8600 8600 803
Width: 1371
VWidth: 2838
Flags: HMW
LayerCount: 2
Fore
SplineSet
277 1102 m 1
 999 379 l 1
 1040 314 l 1
 1040 770 l 1
 1221 770 l 1
 1221 31 l 1
 482 31 l 1
 482 212 l 1
 938 212 l 1
 873 253 l 1
 150 975 l 1
 277 1102 l 1
EndSplineSet
Colour: ffff00
EndChar

StartChar: uni2199
Encoding: 8601 8601 804
Width: 1371
VWidth: 2838
Flags: HMW
LayerCount: 2
Fore
SplineSet
1221 975 m 1
 498 253 l 1
 433 212 l 1
 889 212 l 1
 889 31 l 1
 150 31 l 1
 150 770 l 1
 331 770 l 1
 331 314 l 1
 372 379 l 1
 1094 1102 l 1
 1221 975 l 1
EndSplineSet
Colour: ffff00
EndChar

StartChar: uni0664.urdu
Encoding: 1114160 -1 872
Width: 1252
Flags: HMW
LayerCount: 2
Fore
SplineSet
1212 1184 m 1
 1051 1091 931 993 827 873 c 1
 655 873 l 1
 489 1095 l 2
 479 1108 467 1113 457 1113 c 0
 444 1113 434 1104 434 1090 c 0
 434 1084 436 1076 441 1068 c 2
 725 608 l 2
 787 506 816 393 816 279 c 0
 816 157 784 34 725 -81 c 1
 367 72 l 1
 406 138 430 201 430 265 c 0
 430 311 418 359 389 409 c 2
 117 881 l 2
 73 958 40 1038 40 1121 c 0
 40 1342 221 1515 434 1515 c 0
 565 1515 670 1453 742 1371 c 2
 758 1353 l 1
 833 1411 939 1477 1017 1522 c 1
 1212 1184 l 1
EndSplineSet
Substitution2: "'tnum' Tabular Numbers lookup 22 subtable" uni0664.urdu.tnum
Colour: ffff00
EndChar

StartChar: uni0667.urdu
Encoding: 1114161 -1 873
Width: 1277
Flags: HMW
LayerCount: 2
Fore
SplineSet
1097 466 m 1
 1237 104 l 1
 1050 30 846 -10 638 -10 c 0
 474 -10 311 20 147 72 c 1
 40 361 l 1
 221 682 344 1113 400 1529 c 1
 787 1477 l 1
 737 1104 637 726 498 391 c 1
 548 384 597 381 644 381 c 0
 809 381 954 408 1097 466 c 1
EndSplineSet
Substitution2: "'tnum' Tabular Numbers lookup 22 subtable" uni0667.urdu.tnum
Colour: ffff00
EndChar

StartChar: uniE06F
Encoding: 57455 57455 1208
Width: 0
Flags: HMW
LayerCount: 2
Fore
SplineSet
75 1357 m 1
 101 1345 137 1335 169 1335 c 0
 229 1335 290 1358 290 1410 c 0
 290 1442 267 1462 225 1462 c 0
 174 1462 120 1421 75 1357 c 1
-60 1409 m 1
 42 1541 135 1628 239 1628 c 0
 350 1628 434 1566 434 1401 c 0
 434 1258 307 1137 159 1137 c 0
 82 1137 17 1159 -33 1182 c 0
 -70 1199 -101 1211 -126 1211 c 0
 -183 1211 -213 1171 -266 1095 c 1
 -402 1176 l 1
 -331 1319 -229 1413 -104 1413 c 0
 -88 1413 -74 1411 -60 1409 c 1
EndSplineSet
Colour: ffff
EndChar

StartChar: uniE070
Encoding: 57456 57456 1209
Width: 0
Flags: HMW
LayerCount: 2
Fore
SplineSet
230 1363 m 257
 230 1200 146 1115 0 1115 c 256
 -148 1115 -230 1201 -230 1363 c 257
 -105 1363 l 261
 -105 1276 -74 1240 0 1240 c 256
 72 1240 105 1280 105 1363 c 257
 230 1363 l 257
EndSplineSet
Colour: ffff
EndChar

StartChar: uniE071
Encoding: 57457 57457 1210
Width: 0
Flags: HMW
LayerCount: 2
Fore
SplineSet
230 1136 m 281
 -230 1136 l 281
 -230 1261 l 285
 230 1261 l 261
 230 1136 l 281
EndSplineSet
Colour: ffff
EndChar

StartChar: uniE072
Encoding: 57458 57458 1211
Width: 0
Flags: HMW
LayerCount: 2
Fore
SplineSet
-69 1519 m 0
 -99 1519 -114 1492 -114 1457 c 0
 -114 1424 -106 1392 -79 1362 c 1
 -39 1376 10 1401 10 1447 c 0
 10 1485 -32 1519 -69 1519 c 0
-85 1648 m 0
 25 1648 134 1551 134 1444 c 0
 134 1363 75 1311 21 1287 c 1
 57 1269 175 1216 242 1197 c 1
 208 1076 l 1
 18 1127 -243 1254 -243 1465 c 0
 -243 1570 -180 1648 -85 1648 c 0
EndSplineSet
Colour: ffff
EndChar

StartChar: uniE073
Encoding: 57459 57459 1212
Width: 0
Flags: HMW
LayerCount: 2
Fore
SplineSet
-180 1095 m 1
 -232 1208 l 1
 180 1404 l 1
 232 1291 l 1
 -180 1095 l 1
-195 1420 m 257
 -111 1504 l 257
 -27 1420 l 257
 -111 1337 l 257
 -195 1420 l 257
1 1063 m 257
 85 1147 l 257
 169 1063 l 257
 85 980 l 257
 1 1063 l 257
EndSplineSet
Colour: ffff
EndChar

StartChar: uniE09E
Encoding: 57502 57502 1213
Width: 1018
Flags: HMW
LayerCount: 2
Fore
SplineSet
800 217 m 0
 800 271 779 336 762 382 c 1
 888 420 l 1
 910 357 930 288 930 218 c 0
 930 -7 745 -42 509 -42 c 0
 273 -42 88 -7 88 218 c 0
 88 288 107 358 129 420 c 1
 253 383 l 1
 239 335 218 263 218 217 c 0
 218 98 347 88 509 88 c 0
 671 88 800 98 800 217 c 0
320 413 m 1
 412 505 l 1
 503 413 l 1
 412 321 l 1
 320 413 l 1
504 413 m 1
 596 505 l 1
 687 413 l 1
 596 321 l 1
 504 413 l 1
EndSplineSet
Colour: ffff
EndChar

StartChar: uniE075
Encoding: 57461 57461 1214
Width: 2230
Flags: HMW
LayerCount: 2
Fore
SplineSet
1259 1613 m 1
 1462 1283 l 1
 1175 1126 1007 1029 887 944 c 1
 1471 944 l 2
 1821 944 2190 901 2190 554 c 0
 2190 164 1765 0 1356 0 c 2
 40 0 l 25
 40 390 l 25
 1465 390 l 2
 1667 390 1780 445 1780 491 c 0
 1780 525 1724 554 1596 554 c 2
 505 554 l 1
 370 702 l 1
 415 1046 593 1233 1259 1613 c 1
EndSplineSet
Colour: ffff
EndChar

StartChar: uniE076
Encoding: 57462 57462 1215
Width: 2079
Flags: HMW
LayerCount: 2
Fore
SplineSet
912 521 m 1
 628 351 l 1
 520 321 285 244 149 183 c 1
 40 480 l 1
 221 549 422 625 606 625 c 0
 718 625 823 597 912 521 c 1
EndSplineSet
Refer: 349 57406 N 1 0 0 1 441 0 2
Colour: ffff
EndChar

StartChar: uniE077
Encoding: 57463 57463 1216
Width: 1781
Flags: HMW
LayerCount: 2
Fore
SplineSet
1283 794 m 1
 1236 976 1215 1035 1190 1035 c 0
 1174 1035 1162 1011 1154 994 c 0
 1043 765 898 572 610 506 c 0
 453 470 426 440 426 421 c 0
 426 400 453 390 617 390 c 2
 1741 390 l 1
 1741 0 l 1
 515 0 l 2
 249 0 40 117 40 387 c 0
 40 699 292 823 533 888 c 0
 679 927 745 1018 811 1150 c 0
 881 1291 980 1461 1193 1461 c 0
 1501 1461 1565 1189 1628 879 c 1
 1283 794 l 1
EndSplineSet
Colour: ffff
EndChar

StartChar: uniE078
Encoding: 57464 57464 1217
Width: 1500
Flags: HMW
LayerCount: 2
Fore
SplineSet
1071 1219 m 1
 1083 1217 1100 1216 1116 1216 c 0
 1184 1216 1272 1218 1272 1281 c 0
 1272 1314 1255 1330 1221 1330 c 0
 1163 1330 1112 1270 1071 1219 c 1
974 1255 m 1
 1033 1359 1118 1446 1228 1446 c 0
 1326 1446 1400 1383 1400 1281 c 0
 1400 1129 1264 1090 1131 1090 c 0
 1025 1090 952 1110 900 1157 c 1
 865 1110 815 1090 744 1090 c 0
 680 1090 627 1107 591 1147 c 1
 559 1107 513 1090 453 1090 c 2
 421 1090 l 2
 340 1090 230 1066 230 997 c 0
 230 977 252 974 283 974 c 2
 892 974 l 1
 892 848 l 1
 277 848 l 2
 181 848 100 888 100 988 c 0
 100 1144 265 1216 421 1216 c 2
 453 1216 l 2
 523 1216 526 1242 526 1311 c 2
 526 1632 l 1
 654 1632 l 1
 654 1314 l 2
 654 1235 655 1216 744 1216 c 0
 831 1216 834 1238 834 1323 c 2
 834 1390 l 1
 962 1390 l 1
 962 1328 l 2
 962 1278 966 1266 974 1255 c 1
EndSplineSet
Colour: ffff
EndChar

StartChar: uniE079
Encoding: 57465 57465 1218
Width: 1186
Flags: HMW
LayerCount: 2
Fore
SplineSet
854 1407 m 0
 854 1380 871 1371 903 1371 c 0
 927 1371 945 1374 965 1379 c 1
 960 1424 948 1499 904 1499 c 0
 870 1499 854 1449 854 1407 c 0
974 1271 m 1
 944 1264 915 1261 888 1261 c 0
 800 1261 736 1300 736 1396 c 0
 736 1510 784 1620 904 1620 c 0
 1055 1620 1098 1467 1098 1317 c 0
 1098 1126 968 1090 791 1090 c 2
 744 1090 l 2
 680 1090 627 1107 591 1147 c 1
 559 1107 513 1090 453 1090 c 2
 421 1090 l 2
 340 1090 230 1066 230 997 c 0
 230 977 252 974 283 974 c 2
 892 974 l 1
 892 848 l 1
 277 848 l 2
 181 848 100 888 100 988 c 0
 100 1144 265 1216 421 1216 c 2
 453 1216 l 2
 523 1216 526 1242 526 1311 c 2
 526 1632 l 1
 654 1632 l 1
 654 1314 l 2
 654 1235 655 1216 744 1216 c 2
 827 1216 l 2
 926 1216 956 1227 974 1271 c 1
1035 1731 m 1
 966 1662 l 1
 898 1731 l 1
 966 1799 l 1
 1035 1731 l 1
906 1731 m 1
 837 1662 l 1
 768 1731 l 1
 837 1799 l 1
 906 1731 l 1
EndSplineSet
Colour: ffff
EndChar

StartChar: uniE07A
Encoding: 57466 57466 1219
Width: 0
Flags: HMW
LayerCount: 2
Fore
SplineSet
-160 1477 m 1
 160 1477 l 1
 160 1331 l 1
 -160 1331 l 1
 -160 1477 l 1
EndSplineSet
Colour: ffff
EndChar

StartChar: uniE07B
Encoding: 57467 57467 1220
Width: 0
Flags: HMW
LayerCount: 2
Fore
SplineSet
-157 1307 m 1
 -252 1659 l 1
 -114 1699 l 1
 -21 1341 l 1
 -157 1307 l 1
246 1693 m 1
 246 1444 l 2
 246 1160 160 1081 -152 1081 c 2
 -248 1081 l 1
 -248 1225 l 1
 -138 1225 l 2
 69 1225 101 1253 101 1430 c 2
 101 1693 l 1
 246 1693 l 1
EndSplineSet
Colour: ffff
EndChar

StartChar: uniE07C
Encoding: 57468 57468 1221
Width: 0
Flags: HMW
LayerCount: 2
Fore
SplineSet
40 1202 m 1
 110 1132 l 1
 40 1062 l 1
 -30 1132 l 1
 40 1202 l 1
73 1383 m 1
 -3 1413 l 2
 -37 1427 -61 1433 -80 1433 c 0
 -119 1433 -140 1406 -151 1343 c 1
 -252 1361 l 1
 -233 1497 -181 1561 -92 1561 c 0
 -56 1561 -20 1551 65 1516 c 2
 258 1438 l 1
 258 1319 l 1
 2 1267 -134 1189 -134 1095 c 0
 -134 1032 -72 996 37 996 c 0
 107 996 187 1011 244 1034 c 1
 291 913 l 1
 219 877 129 857 39 857 c 0
 -146 857 -262 942 -262 1078 c 0
 -262 1212 -150 1313 73 1383 c 1
EndSplineSet
Colour: ffff
EndChar

StartChar: uniE07D
Encoding: 57469 57469 1222
Width: 0
Flags: HMW
LayerCount: 2
Fore
SplineSet
-106 1277 m 1
 -19 1189 l 1
 -106 1102 l 1
 -193 1189 l 1
 -106 1277 l 1
106 1277 m 1
 193 1189 l 1
 106 1102 l 1
 18 1189 l 1
 106 1277 l 1
-0 1452 m 1
 88 1365 l 1
 -0 1277 l 1
 -87 1365 l 1
 -0 1452 l 1
EndSplineSet
Colour: ffff
EndChar

StartChar: uniE07E
Encoding: 57470 57470 1223
Width: 0
Flags: HMW
LayerCount: 2
Fore
SplineSet
238 1149 m 1
 226 1103 183 1077 137 1077 c 0
 111 1077 90 1086 76 1099 c 1
 61 937 -60 862 -219 862 c 0
 -423 862 -518 960 -518 1132 c 0
 -518 1204 -502 1291 -473 1375 c 1
 -355 1340 l 1
 -374 1277 -392 1205 -392 1146 c 0
 -392 1048 -346 991 -220 991 c 0
 -92 991 -49 1047 -49 1133 c 0
 -49 1194 -74 1274 -98 1342 c 1
 29 1392 l 1
 63 1275 l 2
 76 1224 92 1206 126 1206 c 0
 157 1206 174 1225 178 1266 c 2
 185 1361 l 1
 298 1353 l 1
 292 1268 l 2
 292 1265 292 1262 292 1259 c 0
 292 1223 309 1206 342 1206 c 0
 375 1206 390 1224 390 1263 c 0
 390 1285 385 1325 375 1382 c 1
 501 1412 l 1
 512 1360 518 1309 518 1265 c 0
 518 1139 468 1077 365 1077 c 0
 299 1077 256 1102 238 1149 c 1
EndSplineSet
Colour: ffff
EndChar

StartChar: uniE07F
Encoding: 57471 57471 1224
Width: 0
Flags: HMW
LayerCount: 2
Fore
SplineSet
-118 1413 m 0
 -118 1478 -65 1530 0 1530 c 0
 65 1530 118 1478 118 1413 c 0
 118 1348 65 1295 0 1295 c 0
 -65 1295 -118 1348 -118 1413 c 0
EndSplineSet
Colour: ffff
EndChar

StartChar: uniE080
Encoding: 57472 57472 1225
Width: 0
Flags: HMW
LayerCount: 2
Fore
SplineSet
-122 1291 m 1
 -122 1534 l 1
 122 1534 l 1
 122 1291 l 1
 -122 1291 l 1
EndSplineSet
Colour: ffff
EndChar

StartChar: uniE081
Encoding: 57473 57473 1226
Width: 0
Flags: HMW
LayerCount: 2
Fore
SplineSet
-75 1484 m 0
 -46 1484 -13 1477 25 1462 c 2
 243 1375 l 1
 244 1290 l 1
 132 1168 -14 1100 -244 1095 c 1
 -244 1223 l 1
 -109 1223 -12 1249 68 1307 c 1
 -25 1342 l 2
 -43 1349 -57 1351 -69 1351 c 0
 -113 1351 -125 1313 -132 1276 c 1
 -234 1296 l 1
 -222 1398 -176 1484 -75 1484 c 0
EndSplineSet
Colour: ffff
EndChar

StartChar: uniE082
Encoding: 57474 57474 1227
Width: 0
Flags: HMW
LayerCount: 2
Fore
SplineSet
131 1264 m 0
 131 1303 118 1350 75 1350 c 0
 34 1350 13 1293 4 1247 c 1
 31 1239 75 1228 101 1228 c 0
 123 1228 131 1239 131 1264 c 0
-86 1130 m 0
 -108 1130 -117 1118 -117 1095 c 2
 -117 802 l 1
 -247 802 l 1
 -247 1110 l 2
 -247 1205 -193 1272 -109 1268 c 1
 -88 1392 -19 1477 79 1477 c 0
 184 1477 248 1388 248 1260 c 0
 248 1155 201 1098 113 1098 c 0
 80 1098 35 1106 -22 1119 c 0
 -54 1127 -73 1130 -86 1130 c 0
EndSplineSet
Colour: ffff
EndChar

StartChar: uniE083
Encoding: 57475 57475 1228
Width: 0
Flags: HM
LayerCount: 2
Fore
SplineSet
57 1422 m 0
 80 1422 108 1444 129 1475 c 1
 220 1418 l 1
 163 1322 126 1290 63 1290 c 0
 29 1290 4 1303 -19 1315 c 0
 -34 1323 -44 1326 -53 1326 c 0
 -77 1326 -103 1304 -123 1272 c 1
 -220 1328 l 1
 -167 1415 -123 1460 -58 1460 c 0
 -21 1460 4 1446 28 1432 c 0
 40 1425 49 1422 57 1422 c 0
EndSplineSet
Colour: ffff
EndChar

StartChar: uniE084
Encoding: 57476 57476 1229
Width: 0
Flags: HMW
LayerCount: 2
Fore
SplineSet
43 1098 m 1
 24 1096 5 1094 -16 1094 c 0
 -111 1094 -167 1149 -167 1251 c 0
 -167 1352 -115 1471 0 1471 c 0
 144 1471 181 1325 181 1161 c 0
 181 1008 81 912 -123 847 c 1
 -178 964 l 1
 -63 999 17 1044 43 1098 c 1
-54 1263 m 0
 -54 1235 -38 1223 1 1223 c 0
 23 1223 45 1226 60 1229 c 1
 53 1301 36 1346 -3 1346 c 0
 -38 1346 -54 1306 -54 1263 c 0
EndSplineSet
Colour: ffff
EndChar

StartChar: uniE085
Encoding: 57477 57477 1230
Width: 1022
Flags: HMW
LayerCount: 2
Fore
SplineSet
892 1205 m 1
 892 1076 l 1
 261 1076 l 2
 160 1076 79 1118 79 1221 c 0
 79 1342 179 1390 273 1415 c 0
 338 1432 371 1474 401 1534 c 0
 428 1588 466 1655 546 1655 c 0
 660 1655 684 1554 708 1441 c 1
 593 1413 l 1
 575 1483 565 1515 545 1515 c 0
 531 1515 522 1497 515 1483 c 0
 469 1388 409 1315 299 1289 c 0
 231 1273 207 1255 207 1232 c 0
 207 1212 227 1205 293 1205 c 2
 892 1205 l 1
EndSplineSet
Colour: ffff
EndChar

StartChar: uniE086
Encoding: 57478 57478 1231
Width: 0
Flags: HMW
LayerCount: 2
Fore
SplineSet
127 1449 m 1
 249 1508 l 1
 288 1418 314 1352 314 1246 c 0
 314 1055 176 959 0 959 c 0
 -211 959 -314 1061 -314 1239 c 0
 -314 1311 -297 1396 -268 1483 c 1
 -150 1445 l 1
 -167 1385 -186 1312 -186 1251 c 0
 -186 1151 -136 1088 0 1088 c 0
 131 1088 184 1150 184 1241 c 0
 184 1303 160 1376 127 1449 c 1
0 1424 m 1
 77 1347 l 1
 0 1270 l 1
 -77 1347 l 1
 0 1424 l 1
EndSplineSet
Colour: ffff
EndChar

StartChar: uniE087
Encoding: 57479 57479 1232
Width: 0
Flags: HM
LayerCount: 2
Fore
SplineSet
-70 1346 m 1
 0 1277 l 1
 70 1347 l 1
 0 1415 l 1
 -70 1346 l 1
-216 1346 m 1
 0 1562 l 1
 216 1347 l 1
 0 1131 l 1
 -216 1346 l 1
EndSplineSet
Colour: ffff
EndChar

StartChar: uniE088
Encoding: 57480 57480 1233
Width: 596
Flags: HMW
LayerCount: 2
Fore
SplineSet
123 378 m 1
 283 378 l 1
 283 0 l 1
 123 0 l 1
 123 378 l 1
398 378 m 1
 558 378 l 1
 558 0 l 1
 398 0 l 1
 398 378 l 1
EndSplineSet
Colour: ffff
EndChar

StartChar: uniE091
Encoding: 57489 57489 1234
Width: 1105
Flags: HMW
LayerCount: 2
Fore
SplineSet
0 390 m 1
 223 390 287 580 357 798 c 1
 696 696 l 1
 637 539 603 407 603 278 c 0
 603 192 618 108 650 18 c 1
 694 153 770 256 863 319 c 0
 931 365 1009 390 1091 390 c 2
 1105 390 l 1
 1105 0 l 1
 1091 0 l 2
 1052 0 1019 -12 990 -35 c 0
 912 -98 868 -242 838 -454 c 1
 611 -569 l 1
 387 -430 295 -247 279 87 c 1
 201 23 99 0 0 0 c 1
 -32 0 -50 38 -50 195 c 0
 -50 350 -32 390 0 390 c 1
EndSplineSet
Colour: ffff
EndChar

StartChar: uniE092
Encoding: 57490 57490 1235
Width: 1105
Flags: HMW
LayerCount: 2
Fore
SplineSet
585 1047 m 0
 813 1047 959 910 959 695 c 0
 959 587 922 478 856 390 c 1
 1105 390 l 1
 1105 0 l 1
 898 0 l 1
 955 -73 986 -161 986 -251 c 0
 986 -448 836 -577 608 -577 c 0
 267 -577 82 -289 82 245 c 0
 82 766 258 1047 585 1047 c 0
579 -188 m 0
 615 -188 632 -173 632 -140 c 0
 632 -67 550 0 462 0 c 2
 -0 0 l 2
 -36 0 -50 54 -50 194 c 0
 -50 335 -36 390 -0 390 c 2
 455 390 l 2
 542 390 622 482 622 583 c 0
 622 633 602 658 568 658 c 0
 495 658 446 545 446 388 c 2
 446 10 l 2
 446 -110 498 -188 579 -188 c 0
EndSplineSet
Colour: ffff
EndChar

StartChar: uniE093
Encoding: 57491 57491 1236
Width: 1511
Flags: HMW
LayerCount: 2
Fore
SplineSet
515 0 m 2
 249 0 40 117 40 387 c 0
 40 753 380 995 875 995 c 2
 1170 995 l 1
 1170 605 l 1
 874 605 l 2
 568 605 434 544 434 441 c 0
 434 405 460 390 511 390 c 2
 1471 390 l 1
 1471 0 l 1
 515 0 l 2
EndSplineSet
Colour: ffff
EndChar

StartChar: uniE094
Encoding: 57492 57492 1237
Width: 1320
Flags: HMW
LayerCount: 2
Fore
SplineSet
515 -605 m 2
 249 -605 40 -488 40 -218 c 0
 40 148 380 390 875 390 c 2
 1320 390 l 1
 1320 0 l 1
 874 0 l 2
 568 0 434 -61 434 -164 c 0
 434 -200 460 -215 511 -215 c 2
 861 -215 l 1
 861 -605 l 1
 515 -605 l 2
EndSplineSet
Colour: ffff
EndChar

StartChar: uniE095
Encoding: 57493 57493 1238
Width: 619
Flags: HMW
LayerCount: 2
Fore
SplineSet
106 948 m 257
 473 847 l 257
 442 718 423 618 423 549 c 0
 423 433 476 390 619 390 c 256
 650 390 669 354 669 196 c 256
 669 38 650 0 619 0 c 256
 199 0 40 196 40 496 c 0
 40 626 65 779 106 948 c 257
EndSplineSet
Colour: ffff
EndChar

StartChar: uniE096
Encoding: 57494 57494 1239
Width: 762
Flags: HMW
LayerCount: 2
Fore
SplineSet
251 1010 m 1
 409 1078 461 1098 611 1143 c 1
 662 954 l 1
 525 910 473 890 332 829 c 1
 251 1010 l 1
EndSplineSet
Colour: ffff
EndChar

StartChar: uniE097
Encoding: 57495 57495 1240
Width: 1421
Flags: HMW
LayerCount: 2
Fore
SplineSet
850 221 m 1
 849 394 788 587 734 714 c 1
 1119 860 l 257
 1195 621 l 258
 1258 423 1271 390 1420 390 c 257
 1421 390 l 257
 1421 0 l 257
 1420 0 l 258
 1343 0 1282 11 1225 44 c 1
 1215 0 1202 -43 1186 -83 c 1
 1270 -159 1351 -235 1431 -311 c 1
 1198 -543 l 1
 1136 -478 1073 -413 1010 -350 c 1
 885 -472 718 -546 528 -546 c 0
 204 -546 40 -361 40 -132 c 0
 40 152 269 324 522 324 c 0
 632 324 750 288 850 221 c 1
745 -79 m 1
 668 3 576 40 494 40 c 0
 418 40 360 4 360 -64 c 0
 360 -130 429 -155 507 -155 c 0
 614 -155 692 -127 745 -79 c 1
EndSplineSet
Colour: ffff
EndChar

StartChar: uniE098
Encoding: 57496 57496 1241
Width: 1008
Flags: HMW
LayerCount: 2
Fore
SplineSet
458 588 m 0
 405 588 379 528 379 448 c 0
 379 410 397 390 466 390 c 2
 560 390 l 1
 542 546 510 588 458 588 c 0
466 964 m 0
 758 964 902 728 920 390 c 257
 1008 390 l 257
 1008 0 l 257
 909 0 l 257
 889 -189 842 -413 750 -634 c 1
 383 -504 l 1
 456 -288 486 -161 506 0 c 1
 413 0 l 2
 174 0 40 149 40 409 c 0
 40 660 171 964 466 964 c 0
EndSplineSet
Colour: ffff
EndChar

StartChar: uniE099
Encoding: 57497 57497 1242
Width: 1098
Flags: HMW
LayerCount: 2
Fore
SplineSet
100 1505 m 257
 491 1505 l 257
 491 540 l 258
 491 427 526 390 669 390 c 258
 1098 390 l 257
 1098 0 l 257
 669 0 l 258
 318 0 100 182 100 532 c 258
 100 1505 l 257
EndSplineSet
Colour: ffff
EndChar

StartChar: uniE09A
Encoding: 57498 57498 1243
Width: 2401
Flags: HMW
LayerCount: 2
Fore
SplineSet
1259 1613 m 1
 1462 1283 l 1
 1175 1126 1007 1029 887 944 c 1
 1471 944 l 2
 1821 944 2190 901 2190 554 c 0
 2190 401 2214 390 2399 390 c 2
 2401 390 l 1
 2401 0 l 1
 2399 0 l 2
 2193 0 2065 66 1994 162 c 1
 1833 51 1583 0 1356 0 c 2
 40 0 l 25
 40 390 l 25
 1465 390 l 2
 1667 390 1780 445 1780 491 c 0
 1780 525 1724 554 1596 554 c 2
 505 554 l 1
 370 702 l 1
 415 1046 593 1233 1259 1613 c 1
EndSplineSet
Colour: ffff
EndChar

StartChar: uniE09B
Encoding: 57499 57499 1244
Width: 1960
Flags: HMW
LayerCount: 2
Fore
SplineSet
989 1613 m 1
 1192 1283 l 1
 905 1126 737 1029 617 944 c 1
 1201 944 l 2
 1551 944 1920 901 1920 554 c 0
 1920 164 1495 0 1086 0 c 2
 0 0 l 2
 -31 0 -50 38 -50 196 c 0
 -50 354 -31 390 0 390 c 2
 1195 390 l 2
 1397 390 1510 445 1510 491 c 0
 1510 525 1454 554 1326 554 c 2
 235 554 l 1
 100 702 l 1
 145 1046 323 1233 989 1613 c 1
EndSplineSet
Colour: ffff
EndChar

StartChar: uniE09C
Encoding: 57500 57500 1245
Width: 2131
Flags: HMW
LayerCount: 2
Fore
SplineSet
989 1613 m 1
 1192 1283 l 1
 905 1126 737 1029 617 944 c 1
 1201 944 l 2
 1551 944 1920 901 1920 554 c 0
 1920 401 1944 390 2129 390 c 2
 2131 390 l 1
 2131 0 l 1
 2129 0 l 2
 1923 0 1795 66 1724 162 c 1
 1563 51 1313 0 1086 0 c 2
 0 0 l 2
 -31 0 -50 38 -50 196 c 0
 -50 354 -31 390 0 390 c 2
 1195 390 l 2
 1397 390 1510 445 1510 491 c 0
 1510 525 1454 554 1326 554 c 2
 235 554 l 1
 100 702 l 1
 145 1046 323 1233 989 1613 c 1
EndSplineSet
Colour: ffff
EndChar

StartChar: uniE09D
Encoding: 57501 57501 1246
Width: 1930
Flags: HMW
LayerCount: 2
Fore
SplineSet
912 627 m 1
 628 457 l 1
 520 427 285 350 149 289 c 1
 40 586 l 1
 221 655 422 731 606 731 c 0
 718 731 823 703 912 627 c 1
EndSplineSet
Refer: 354 57411 N 1 0 0 1 395 0 2
Colour: ffff
EndChar

StartChar: uniE089
Encoding: 57481 57481 1247
Width: 753
Flags: HMW
LayerCount: 2
Fore
SplineSet
713 130 m 257
 713 0 l 257
 40 0 l 257
 40 130 l 257
 713 130 l 257
EndSplineSet
Colour: ffff
EndChar

StartChar: uniE08A
Encoding: 57482 57482 1248
Width: 589
Flags: HMW
LayerCount: 2
Fore
SplineSet
208 514 m 1
 258 390 l 2
 272 354 287 335 312 335 c 0
 336 335 354 349 359 402 c 2
 370 511 l 1
 498 503 l 1
 487 352 470 207 306 207 c 0
 303 207 302 207 296 208 c 1
 306 141 312 78 312 0 c 1
 182 0 l 1
 182 187 148 317 90 456 c 1
 208 514 l 1
EndSplineSet
Colour: ffff
EndChar

StartChar: uniE08B
Encoding: 57483 57483 1249
Width: 701
Flags: HMW
LayerCount: 2
Fore
SplineSet
211 514 m 1
 257 382 l 2
 269 348 278 341 295 341 c 0
 315 341 324 354 326 388 c 2
 333 493 l 1
 436 485 l 1
 431 441 426 394 426 371 c 0
 426 350 443 341 464 341 c 0
 486 341 500 355 500 376 c 0
 500 409 490 468 487 484 c 1
 615 506 l 1
 619 484 628 430 628 385 c 0
 628 287 570 214 469 214 c 0
 436 214 401 226 379 243 c 1
 358 226 331 216 299 215 c 1
 308 147 312 76 312 0 c 1
 182 0 l 1
 182 187 148 324 92 457 c 1
 211 514 l 1
EndSplineSet
Colour: ffff
EndChar

StartChar: uniE08C
Encoding: 57484 57484 1250
Width: 602
Flags: HMW
LayerCount: 2
Fore
SplineSet
241 532 m 0
 279 532 321 514 350 476 c 2
 357 467 l 1
 445 534 l 1
 525 427 l 1
 378 307 l 1
 330 307 l 1
 280 386 l 2
 273 397 264 401 254 401 c 0
 239 401 224 390 224 375 c 0
 224 370 226 364 229 359 c 2
 352 160 l 2
 373 128 383 88 383 47 c 0
 383 21 379 -5 370 -31 c 1
 252 17 l 1
 257 27 259 37 259 46 c 0
 259 63 252 79 242 96 c 2
 120 301 l 2
 103 330 95 358 95 385 c 0
 95 467 166 532 241 532 c 0
EndSplineSet
Colour: ffff
EndChar

StartChar: uniE08D
Encoding: 57485 57485 1251
Width: 1287
Flags: HMW
LayerCount: 2
Fore
SplineSet
850 221 m 1
 849 360 805 546 734 714 c 1
 1119 860 l 1
 1201 637 1247 416 1247 245 c 0
 1247 131 1226 19 1186 -83 c 1
 1261 -147 1340 -220 1431 -311 c 1
 1198 -543 l 1
 1136 -478 1075 -414 1010 -350 c 1
 879 -478 710 -546 521 -546 c 0
 230 -546 40 -383 40 -132 c 0
 40 128 244 324 516 324 c 0
 633 324 751 288 850 221 c 1
745 -79 m 1
 674 -3 583 40 496 40 c 0
 413 40 360 1 360 -60 c 0
 360 -122 416 -155 519 -155 c 0
 612 -155 690 -128 745 -79 c 1
EndSplineSet
Colour: ffff
EndChar

StartChar: uniE08E
Encoding: 57486 57486 1252
Width: 1757
Flags: HMW
LayerCount: 2
Fore
SplineSet
1222 472 m 1
 1281 508 1305 570 1305 632 c 0
 1305 672 1287 731 1224 731 c 0
 1159 731 1142 675 1142 632 c 0
 1142 573 1173 508 1222 472 c 1
1215 85 m 1
 1094 27 947 0 808 0 c 0
 706 0 608 15 528 43 c 0
 502 52 481 58 463 58 c 0
 441 58 434 48 434 24 c 0
 434 7 438 -17 445 -50 c 0
 457 -101 477 -163 500 -229 c 1
 131 -363 l 1
 104 -286 81 -210 64 -135 c 0
 50 -73 40 -7 40 60 c 0
 40 263 182 452 393 452 c 0
 446 452 495 439 547 424 c 0
 606 407 692 385 785 385 c 0
 810 385 836 386 862 390 c 1
 795 452 751 537 751 654 c 0
 751 920 958 1122 1224 1122 c 0
 1484 1122 1696 922 1696 660 c 0
 1696 547 1652 455 1584 390 c 1
 1622 390 1659 390 1699 390 c 1
 1757 390 l 1
 1757 0 l 1
 1648 0 l 2
 1496 0 1333 31 1215 85 c 1
EndSplineSet
Colour: ffff
EndChar

StartChar: uniE08F
Encoding: 57487 57487 1253
Width: 1200
Flags: HMW
LayerCount: 2
Fore
SplineSet
560 395 m 1
 542 551 510 588 458 588 c 0
 405 588 379 528 379 448 c 0
 379 410 397 390 466 390 c 0
 498 390 538 392 560 395 c 1
506 0 m 1
 486 0 444 0 413 0 c 0
 174 0 40 149 40 409 c 0
 40 660 171 964 466 964 c 0
 758 964 902 732 920 394 c 1
 980 400 1034 409 1090 424 c 1
 1160 90 l 1
 1079 70 994 54 914 47 c 1
 889 -189 842 -413 750 -634 c 1
 383 -504 l 1
 456 -288 486 -161 506 0 c 1
EndSplineSet
Colour: ffff
EndChar

StartChar: uniE090
Encoding: 57488 57488 1254
Width: 1298
Flags: HMW
LayerCount: 2
Fore
SplineSet
1298 390 m 1
 1298 0 l 1
 1054 0 868 117 731 230 c 0
 692 262 658 292 623 326 c 0
 595 354 576 370 561 370 c 0
 542 370 529 344 508 280 c 0
 493 230 479 166 466 97 c 0
 450 8 437 -77 426 -155 c 1
 40 -91 l 1
 52 -2 63 78 80 165 c 0
 95 245 113 323 136 396 c 0
 192 577 299 783 537 783 c 0
 622 783 693 753 747 721 c 0
 810 684 863 635 916 585 c 0
 1016 490 1126 390 1298 390 c 1
EndSplineSet
Colour: ffff
EndChar

StartChar: uniE09F
Encoding: 57503 57503 1259
Width: 769
Flags: HMW
LayerCount: 2
Fore
SplineSet
60 372 m 257
 195 507 l 257
 330 372 l 257
 195 237 l 257
 60 372 l 257
301 372 m 257
 436 507 l 257
 571 372 l 257
 436 237 l 257
 301 372 l 257
60 135 m 257
 195 270 l 257
 330 135 l 257
 195 0 l 257
 60 135 l 257
301 135 m 257
 436 270 l 257
 571 135 l 257
 436 0 l 257
 301 135 l 257
EndSplineSet
Colour: ffff
EndChar

StartChar: uniE0A0
Encoding: 57504 57504 1260
Width: 0
Flags: HMW
LayerCount: 2
Fore
SplineSet
158 1452 m 2
 89 1468 16 1444 16 1374 c 0
 16 1327 47 1298 101 1298 c 0
 125 1298 158 1306 188 1314 c 2
 241 1329 l 1
 278 1207 l 1
 53 1138 l 2
 30 1131 6 1127 -18 1127 c 0
 -47 1127 -75 1133 -99 1144 c 0
 -112 1150 -124 1155 -134 1155 c 0
 -148 1155 -159 1144 -181 1095 c 1
 -298 1149 l 1
 -252 1246 -216 1290 -145 1290 c 0
 -136 1290 -124 1288 -113 1285 c 0
 -102 1282 -90 1281 -82 1281 c 0
 -80 1281 -77 1281 -75 1281 c 1
 -98 1303 -112 1342 -112 1379 c 0
 -112 1522 34 1621 190 1577 c 2
 233 1565 l 1
 202 1442 l 1
 158 1452 l 2
EndSplineSet
Colour: ffff
EndChar

StartChar: Arabic_Single_Dot.alt
Encoding: 1114500 -1 1261
Width: 392
Flags: HMW
LayerCount: 2
Fore
SplineSet
40 156 m 257
 196 312 l 257
 352 156 l 257
 196 0 l 257
 40 156 l 257
EndSplineSet
Colour: ffff00
EndChar

StartChar: Arabic_Double_Dot_H.alt
Encoding: 1114501 -1 1262
Width: 758
Flags: HMW
LayerCount: 2
Fore
SplineSet
368 117 m 257
 495 244 l 257
 622 117 l 257
 495 -10 l 257
 368 117 l 257
127 117 m 257
 254 244 l 257
 381 117 l 257
 254 -10 l 257
 127 117 l 257
EndSplineSet
Colour: ffff00
EndChar

StartChar: uni0615.alt
Encoding: 1114502 -1 1263
Width: 740
Flags: HMW
LayerCount: 2
Fore
SplineSet
344 98 m 1
 384 98 l 2
 431 98 508 99 508 149 c 0
 508 173 492 190 464 190 c 0
 424 190 384 148 344 98 c 1
222 98 m 1
 222 408 l 1
 321 408 l 1
 321 189 l 1
 371 242 415 288 485 288 c 0
 548 288 607 244 607 150 c 0
 607 35 504 0 384 0 c 2
 133 0 l 1
 133 98 l 1
 222 98 l 1
EndSplineSet
Colour: ffff00
EndChar

StartChar: uni0652.alt
Encoding: 1114503 -1 1264
Width: 342
Flags: HMW
LayerCount: 2
Fore
SplineSet
171 182 m 256
 135 182 120 161 120 131 c 256
 120 101 136 79 171 79 c 256
 205 79 222 103 222 131 c 256
 222 159 207 182 171 182 c 256
171 261 m 256
 250 261 302 204 302 131 c 256
 302 58 250 0 171 0 c 256
 91 0 40 59 40 131 c 256
 40 203 91 261 171 261 c 256
EndSplineSet
Colour: ffff00
EndChar

StartChar: caron
Encoding: 711 711 1265
Width: 746
Flags: HMW
LayerCount: 2
Fore
SplineSet
50 1485 m 1
 278 1485 l 1
 373 1282 l 1
 468 1485 l 1
 696 1485 l 1
 569 1135 l 1
 177 1135 l 1
 50 1485 l 1
EndSplineSet
Colour: ffff00
EndChar

StartChar: circumflex
Encoding: 710 710 1266
Width: 746
Flags: HMW
LayerCount: 2
Fore
SplineSet
696 1135 m 1
 468 1135 l 1
 373 1338 l 1
 278 1135 l 1
 50 1135 l 1
 177 1485 l 1
 569 1485 l 1
 696 1135 l 1
EndSplineSet
Colour: ffff00
EndChar

StartChar: K.alt
Encoding: 1114592 -1 1355
Width: 1475
Flags: HMW
LayerCount: 2
Fore
SplineSet
1009 1505 m 257
 1466 1505 l 257
 847 750 l 257
 1466 0 l 257
 1009 0 l 257
 532 635 l 1
 507 635 l 257
 507 0 l 257
 117 0 l 257
 117 1505 l 257
 507 1505 l 257
 507 910 l 257
 532 910 l 1
 1009 1505 l 257
EndSplineSet
Substitution2: "'c2sc' Capitals to Small Capitals in Latin lookup 0 subtable" uni1D0B
EndChar

StartChar: k.alt
Encoding: 1114593 -1 1356
Width: 1325
Flags: HMW
LayerCount: 2
Fore
SplineSet
789 1135 m 257
 1277 1135 l 257
 870 620 l 257
 1317 0 l 257
 829 0 l 257
 530 488 l 1
 505 488 l 257
 505 0 l 257
 117 0 l 257
 117 1561 l 257
 505 1561 l 257
 505 709 l 257
 530 709 l 1
 789 1135 l 257
EndSplineSet
Substitution2: "'smcp' Lowercase to Small Capitals in Latin lookup 0 subtable" uni1D0B
EndChar

StartChar: Arabic_Double_Dot_V.alt
Encoding: 1114594 -1 1357
Width: 497
Flags: HMW
LayerCount: 2
Fore
SplineSet
244 241 m 257
 117 368 l 257
 244 495 l 257
 371 368 l 257
 244 241 l 257
244 0 m 257
 117 127 l 257
 244 254 l 257
 371 127 l 257
 244 0 l 257
EndSplineSet
EndChar

StartChar: uniE010
Encoding: 57360 57360 1359
Width: 1556
Flags: HMW
LayerCount: 2
Fore
SplineSet
1422 -236 m 257
 1012 -236 l 257
 845 117 l 1
 1095 266 l 1
 1422 -236 l 257
EndSplineSet
EndChar

StartChar: uniE011
Encoding: 57361 57361 1363
Width: 1166
Flags: HMW
LayerCount: 2
Fore
SplineSet
397 1561 m 257
 787 1561 l 257
 787 896 l 1
 397 896 l 1
 397 1561 l 257
397 192 m 1
 787 192 l 1
 787 -461 l 257
 397 -461 l 257
 397 192 l 1
EndSplineSet
EndChar

StartChar: uniE012
Encoding: 57362 57362 1364
Width: 1685
Flags: HMW
LayerCount: 2
Fore
SplineSet
1171 1227 m 5
 1485 1512 l 261
 1671 1316 l 261
 1249 933 l 5
 1171 1227 l 5
445 204 m 5
 202 -17 l 261
 16 179 l 261
 343 476 l 5
 445 204 l 5
EndSplineSet
EndChar

StartChar: uniE013
Encoding: 57363 57363 1365
Width: 1191
Flags: HMW
LayerCount: 2
Fore
SplineSet
772 959 m 1
 989 1242 l 257
 1174 1103 l 257
 923 776 l 1
 772 959 l 1
445 152 m 1
 223 -138 l 257
 38 1 l 257
 309 354 l 1
 445 152 l 1
EndSplineSet
EndChar

StartChar: uniE014
Encoding: 57364 57364 1367
Width: 1493
Flags: HMW
LayerCount: 2
Fore
SplineSet
345 267 m 257
 345 486 l 257
 1148 486 l 257
 1148 267 l 257
 345 267 l 257
EndSplineSet
EndChar

StartChar: kgreenlandic
Encoding: 312 312 1425
Width: 1225
VWidth: 4096
Flags: HMW
LayerCount: 2
Fore
SplineSet
100 1135 m 1
 490 1135 l 1
 490 803 l 1
 753 1135 l 1
 1204 1135 l 1
 760 562 l 1
 1205 0 l 1
 754 0 l 1
 536 291 l 1
 490 236 l 1
 490 0 l 1
 100 0 l 1
 100 1135 l 1
EndSplineSet
Colour: ffff00
EndChar

StartChar: Eng
Encoding: 330 330 1443
Width: 1515
Flags: HMW
LayerCount: 2
Fore
SplineSet
117 1505 m 257
 508 1505 l 257
 508 0 l 257
 117 0 l 257
 117 1505 l 257
909 1515 m 256
 1275 1515 1401 1275 1401 886 c 1
 1401 317 l 2
 1401 77 1223 -11 1025 -11 c 0
 928 -11 827 10 740 45 c 1
 792 297 l 1
 834 285 874 281 905 281 c 0
 972 281 1011 308 1011 363 c 2
 1011 886 l 1
 1011 1043 960 1161 774 1161 c 256
 598 1161 507 1038 507 886 c 257
 417 887 l 257
 436 1262 586 1515 909 1515 c 256
EndSplineSet
Colour: ffff00
EndChar

StartChar: eng
Encoding: 331 331 1444
Width: 1274
Flags: HMW
LayerCount: 2
Fore
SplineSet
774 23 m 1
 1165 23 l 1
 1165 -160 l 2
 1165 -400 987 -487 789 -487 c 0
 692 -487 590 -467 503 -432 c 1
 556 -180 l 1
 598 -192 638 -196 669 -196 c 0
 736 -196 774 -169 774 -114 c 2
 774 23 l 1
EndSplineSet
Refer: 138 110 N 1 0 0 1 0 0 3
Colour: ffff00
EndChar

StartChar: longs
Encoding: 383 383 1494
Width: 782
Flags: HMW
LayerCount: 2
Fore
SplineSet
819 1505 m 1
 766 1253 l 1
 724 1265 684 1269 653 1269 c 0
 586 1269 548 1242 548 1187 c 2
 548 0 l 1
 157 0 l 1
 157 1233 l 2
 157 1473 335 1560 533 1560 c 0
 630 1560 732 1540 819 1505 c 1
EndSplineSet
Refer: 1985 57366 N 1 0 0 1 -55 0 2
Colour: ffff00
EndChar

StartChar: uni018F
Encoding: 399 399 1497
Width: 1606
Flags: HMW
LayerCount: 2
Fore
SplineSet
1079 558 m 1
 516 558 l 1
 548 405 636 323 806 323 c 0
 950 323 1042 395 1079 558 c 1
1093 863 m 1
 1070 1090 966 1182 803 1182 c 0
 655 1182 564 1118 520 967 c 1
 163 1092 l 1
 249 1333 462 1515 798 1515 c 0
 1275 1515 1491 1154 1491 750 c 0
 1491 372 1297 -12 783 -12 c 0
 316 -12 50 390 124 863 c 1
 1093 863 l 1
EndSplineSet
Colour: ffff00
EndChar

StartChar: uni01B7
Encoding: 439 439 1502
Width: 1383
Flags: HMW
LayerCount: 2
Fore
SplineSet
676 -487 m 0
 344 -487 70 -313 70 51 c 1
 470 45 l 1
 470 -69 552 -155 688 -155 c 0
 848 -155 925 -51 925 158 c 0
 925 448 724 523 468 435 c 1
 316 599 l 1
 794 1170 l 1
 113 1170 l 1
 113 1505 l 1
 1243 1505 l 1
 1243 1242 l 1
 875 795 l 1
 1211 735 1313 518 1313 158 c 0
 1313 -252 1088 -487 676 -487 c 0
EndSplineSet
Colour: ffff00
EndChar

StartChar: uni0239
Encoding: 569 569 1603
Width: 1783
Flags: HMW
LayerCount: 2
Fore
SplineSet
696 1135 m 257
 1086 1135 l 257
 1086 -438 l 257
 696 -438 l 257
 696 1135 l 257
EndSplineSet
Refer: 318 57359 N -1 0 0 -1 1126 1135 2
Refer: 318 57359 N 1 -0 -0 1 658 0 2
Colour: ffff00
EndChar

StartChar: uni0240
Encoding: 576 576 1604
Width: 1113
Flags: HMW
LayerCount: 2
Fore
SplineSet
810 -280 m 0
 641 -280 568 -218 493 -151 c 0
 408 -75 319 0 86 0 c 1
 86 264 l 1
 556 802 l 1
 86 802 l 1
 86 1135 l 1
 1017 1135 l 1
 1017 871 l 1
 470 243 l 1
 544 231 593 189 640 142 c 0
 688 94 737 51 810 51 c 0
 898 51 958 116 1010 190 c 1
 1268 1 l 1
 1161 -155 1036 -280 810 -280 c 0
EndSplineSet
Colour: ffff00
EndChar

StartChar: uni0255
Encoding: 597 597 1607
Width: 1176
Flags: HMW
LayerCount: 2
Fore
SplineSet
625 300 m 0
 509 300 451 381 451 567 c 256
 451 753 509 836 609 836 c 256
 671 836 734 811 745 687 c 257
 1122 763 l 257
 1070 1012 883 1145 600 1145 c 256
 224 1145 60 887 60 567 c 256
 60 247 224 -11 605 -11 c 0
 869 -11 1079 124 1079 370 c 0
 1079 546 911 659 758 659 c 0
 447 659 201 359 20 67 c 1
 243 -83 l 1
 468 252 598 435 701 435 c 0
 744 435 758 408 758 377 c 0
 758 332 703 300 625 300 c 0
EndSplineSet
Colour: ffff00
EndChar

StartChar: uni0262
Encoding: 610 610 1609
Width: 1198
Flags: HMW
LayerCount: 2
Fore
SplineSet
403 572 m 0
 403 378 486 300 643 300 c 0
 723 300 783 327 805 366 c 1
 805 432 l 1
 552 432 l 1
 552 656 l 1
 1138 666 l 1
 1138 236 l 1
 1022 78 869 -10 640 -10 c 0
 284 -10 60 200 60 573 c 0
 60 919 263 1145 614 1145 c 0
 862 1145 1014 1003 1078 829 c 1
 808 714 l 1
 783 784 711 836 614 836 c 0
 469 836 403 737 403 572 c 0
EndSplineSet
Colour: ff0000
EndChar

StartChar: uni0274
Encoding: 628 628 1612
Width: 1380
Flags: HMW
LayerCount: 2
Fore
SplineSet
872 1135 m 257
 1263 1135 l 257
 1263 0 l 257
 901 0 l 257
 507 562 l 257
 507 0 l 257
 117 0 l 257
 117 1135 l 257
 478 1135 l 257
 872 572 l 257
 872 1135 l 257
EndSplineSet
Colour: ff0000
EndChar

StartChar: uni0280
Encoding: 640 640 1613
Width: 1213
Flags: HMW
LayerCount: 2
Fore
SplineSet
523 613 m 257
 596 613 l 258
 696 613 739 642 739 744 c 256
 739 847 693 873 596 873 c 258
 523 873 l 257
 523 613 l 257
523 352 m 257
 523 0 l 257
 133 0 l 257
 133 1135 l 257
 666 1135 l 258
 965 1135 1129 990 1129 744 c 256
 1129 496 962 352 666 352 c 258
 523 352 l 257
616 492 m 257
 954 492 l 257
 1223 0 l 257
 841 0 l 257
 616 492 l 257
EndSplineSet
Colour: ff0000
EndChar

StartChar: uni0283
Encoding: 643 643 1614
Width: 782
Flags: HMW
LayerCount: 2
Fore
SplineSet
819 1505 m 1
 766 1253 l 1
 724 1265 684 1269 653 1269 c 0
 586 1269 548 1242 548 1187 c 2
 548 -144 l 2
 548 -384 370 -471 172 -471 c 0
 75 -471 -27 -451 -114 -416 c 1
 -61 -164 l 1
 -19 -176 21 -180 52 -180 c 0
 119 -180 157 -153 157 -98 c 2
 157 1233 l 2
 157 1473 335 1560 533 1560 c 0
 630 1560 732 1540 819 1505 c 1
EndSplineSet
Colour: ffff00
EndChar

StartChar: uni028F
Encoding: 655 655 1615
Width: 1246
Flags: HMW
LayerCount: 2
Fore
SplineSet
805 1135 m 257
 1257 1135 l 257
 821 487 l 257
 821 0 l 257
 429 0 l 257
 429 487 l 257
 -11 1135 l 257
 444 1135 l 257
 625 804 l 257
 805 1135 l 257
EndSplineSet
Colour: ff0000
EndChar

StartChar: uni0291
Encoding: 657 657 1616
Width: 1652
Flags: HMW
LayerCount: 2
Fore
SplineSet
1137 331 m 0
 547 331 l 257
 1017 871 l 257
 1017 1135 l 257
 86 1135 l 257
 86 802 l 257
 556 802 l 257
 86 264 l 257
 86 0 l 257
 1118 0 l 257
 1382 0 1592 135 1592 381 c 0
 1592 557 1494 726 1249 726 c 0
 924 726 684 350 352 -182 c 1
 584 -330 l 1
 946 226 1112 443 1215 443 c 0
 1252 443 1268 421 1268 393 c 0
 1268 348 1215 331 1137 331 c 0
EndSplineSet
Colour: ffff00
EndChar

StartChar: uni0292
Encoding: 658 658 1617
Width: 1202
VWidth: 4096
Flags: HMW
LayerCount: 2
Fore
SplineSet
600 -487 m 0
 298 -487 89 -358 60 -34 c 1
 450 -9 l 1
 467 -124 517 -178 596 -178 c 0
 676 -178 751 -136 751 36 c 0
 751 269 591 283 419 218 c 1
 259 390 l 1
 581 802 l 1
 97 802 l 1
 97 1135 l 1
 1082 1135 l 1
 1082 871 l 1
 815 531 l 1
 1004 498 1142 335 1142 36 c 0
 1142 -311 948 -487 600 -487 c 0
EndSplineSet
Colour: ffff00
EndChar

StartChar: uni0293
Encoding: 659 659 1618
Width: 1210
VWidth: 4096
Flags: HMW
LayerCount: 2
Fore
SplineSet
105 802 m 1
 105 1135 l 1
 1090 1135 l 1
 1090 871 l 1
 823 531 l 1
 1012 498 1150 335 1150 36 c 0
 1150 -311 904 -488 556 -488 c 0
 284 -488 60 -361 60 -108 c 0
 60 68 228 181 381 181 c 0
 692 181 938 -119 1119 -411 c 1
 896 -561 l 1
 671 -226 541 -43 438 -43 c 0
 395 -43 381 -70 381 -101 c 0
 381 -157 470 -178 556 -178 c 0
 636 -178 759 -136 759 36 c 0
 759 269 599 283 427 218 c 1
 267 390 l 1
 589 802 l 1
 105 802 l 1
EndSplineSet
Colour: ffff00
EndChar

StartChar: uni0299
Encoding: 665 665 1619
Width: 1235
Flags: HMW
LayerCount: 2
Fore
SplineSet
133 1135 m 1
 678 1135 l 2
 970 1135 1078 986 1078 790 c 0
 1078 709 1043 638 986 596 c 1
 1077 544 1130 442 1130 335 c 0
 1130 117 997 0 763 0 c 2
 133 0 l 1
 133 1135 l 1
523 873 m 1
 523 663 l 1
 636 663 l 2
 696 663 739 687 739 769 c 0
 739 852 693 873 636 873 c 2
 523 873 l 1
523 471 m 1
 523 261 l 1
 636 261 l 2
 696 261 739 285 739 367 c 0
 739 450 693 471 636 471 c 2
 523 471 l 1
EndSplineSet
Colour: ff0000
EndChar

StartChar: uni029C
Encoding: 668 668 1620
Width: 1364
Flags: HMW
LayerCount: 2
Fore
SplineSet
857 1135 m 257
 1247 1135 l 257
 1247 0 l 257
 857 0 l 257
 857 415 l 257
 507 415 l 257
 507 0 l 257
 117 0 l 257
 117 1135 l 257
 507 1135 l 257
 507 720 l 257
 857 720 l 257
 857 1135 l 257
EndSplineSet
Colour: ff0000
EndChar

StartChar: uni029F
Encoding: 671 671 1622
Width: 982
Flags: HMW
LayerCount: 2
Fore
SplineSet
117 1135 m 257
 507 1135 l 257
 507 311 l 257
 942 311 l 257
 942 0 l 257
 117 0 l 257
 117 1135 l 257
EndSplineSet
Colour: ff0000
EndChar

StartChar: uni02C2
Encoding: 706 706 1632
Width: 672
Flags: HMW
LayerCount: 2
Fore
SplineSet
348 717 m 1
 632 433 l 1
 478 279 l 1
 40 717 l 1
 478 1155 l 1
 632 1001 l 1
 348 717 l 1
EndSplineSet
Colour: ffff00
EndChar

StartChar: uni02C3
Encoding: 707 707 1633
Width: 672
Flags: HMW
LayerCount: 2
Fore
SplineSet
324 717 m 1
 40 1001 l 1
 194 1155 l 1
 632 717 l 1
 194 279 l 1
 40 433 l 1
 324 717 l 1
EndSplineSet
Colour: ffff00
EndChar

StartChar: uni02C4
Encoding: 708 708 1634
Width: 956
Flags: HMW
LayerCount: 2
Fore
SplineSet
478 705 m 1
 194 421 l 1
 40 575 l 1
 478 1013 l 1
 916 575 l 1
 762 421 l 1
 478 705 l 1
EndSplineSet
Colour: ffff00
EndChar

StartChar: uni02C5
Encoding: 709 709 1635
Width: 956
Flags: HMW
LayerCount: 2
Fore
SplineSet
478 729 m 1
 762 1013 l 1
 916 859 l 1
 478 421 l 1
 40 859 l 1
 194 1013 l 1
 478 729 l 1
EndSplineSet
Colour: ffff00
EndChar

StartChar: uni02D2
Encoding: 722 722 1636
Width: 440
VWidth: 0
Flags: HMW
LayerCount: 2
Fore
SplineSet
60 1299 m 1
 162 1299 213 1350 213 1442 c 0
 213 1534 162 1585 60 1585 c 1
 60 1753 l 1
 252 1753 380 1644 380 1442 c 0
 380 1240 252 1131 60 1131 c 1
 60 1299 l 1
EndSplineSet
Colour: ffff00
EndChar

StartChar: uni02D3
Encoding: 723 723 1637
Width: 620
VWidth: 0
Flags: HMW
LayerCount: 2
Fore
SplineSet
470 1585 m 1
 368 1585 317 1534 317 1442 c 0
 317 1350 368 1299 470 1299 c 1
 470 1131 l 1
 278 1131 150 1240 150 1442 c 0
 150 1644 278 1753 470 1753 c 1
 470 1585 l 1
EndSplineSet
Colour: ffff00
EndChar

StartChar: breve
Encoding: 728 728 1638
Width: 742
VWidth: 0
Flags: HMW
LayerCount: 2
Fore
SplineSet
682 1455 m 1
 682 1253 573 1135 371 1135 c 0
 169 1135 60 1253 60 1455 c 1
 238 1455 l 1
 238 1350 285 1307 371 1307 c 0
 457 1307 504 1350 504 1455 c 1
 682 1455 l 1
EndSplineSet
Colour: ffff00
EndChar

StartChar: dotaccent
Encoding: 729 729 1639
Width: 425
VWidth: 4096
Flags: HMW
LayerCount: 2
Fore
SplineSet
60 1286 m 256
 60 1368 131 1432 213 1432 c 256
 295 1432 365 1368 365 1286 c 256
 365 1204 295 1135 213 1135 c 256
 131 1135 60 1204 60 1286 c 256
EndSplineSet
Colour: ffff00
EndChar

StartChar: ring
Encoding: 730 730 1640
Width: 679
VWidth: 0
Flags: HMW
LayerCount: 2
Fore
SplineSet
339 1544 m 256
 265 1544 211 1488 211 1414 c 256
 211 1340 265 1285 339 1285 c 256
 413 1285 470 1340 470 1414 c 256
 470 1488 413 1544 339 1544 c 256
339 1693 m 256
 494 1693 619 1569 619 1414 c 256
 619 1259 494 1135 339 1135 c 256
 184 1135 60 1259 60 1414 c 256
 60 1569 184 1693 339 1693 c 256
EndSplineSet
Colour: ffff00
EndChar

StartChar: ogonek
Encoding: 731 731 1641
Width: 664
VWidth: 4096
Flags: HMW
LayerCount: 2
Fore
SplineSet
330 -537 m 0
 164 -537 60 -441 60 -288 c 0
 60 -229 75 -174 105 -122 c 2
 175 0 l 1
 175 1 l 1
 383 1 l 1
 383 0 l 1
 262 -211 l 2
 249 -234 241 -262 241 -287 c 0
 241 -336 270 -361 328 -361 c 0
 390 -361 423 -333 423 -280 c 1
 604 -280 l 1
 604 -438 499 -537 330 -537 c 0
EndSplineSet
Colour: ffff00
EndChar

StartChar: uni1D00
Encoding: 7424 7424 1646
Width: 1160
Flags: HMW
LayerCount: 2
Fore
SplineSet
760 216 m 257
 410 216 l 257
 483 442 l 257
 689 442 l 257
 760 216 l 257
387 0 m 257
 -11 0 l 257
 355 1135 l 257
 799 1135 l 257
 1171 0 l 257
 773 0 l 257
 578 757 l 257
 387 0 l 257
EndSplineSet
Colour: ff0000
EndChar

StartChar: uni1D04
Encoding: 7428 7428 1647
Width: 1103
Flags: HMW
LayerCount: 2
Fore
SplineSet
571 1145 m 0
 885 1145 1078 941 1078 677 c 1
 737 677 l 1
 719 783 664 836 582 836 c 0
 473 836 416 744 416 567 c 0
 416 391 472 298 577 298 c 0
 663 298 718 350 737 457 c 1
 1078 457 l 1
 1078 194 886 -11 577 -11 c 0
 241 -11 61 192 61 567 c 0
 61 942 241 1145 571 1145 c 0
EndSplineSet
Colour: ff0000
EndChar

StartChar: uni1D05
Encoding: 7429 7429 1648
Width: 1178
Flags: HMW
LayerCount: 2
Fore
SplineSet
100 1135 m 257
 588 1135 l 258
 946 1135 1098 903 1098 567 c 256
 1098 231 946 0 588 0 c 258
 100 0 l 257
 100 1135 l 257
490 873 m 257
 490 277 l 257
 548 277 l 258
 664 277 724 329 724 567 c 256
 724 804 664 873 548 873 c 258
 490 873 l 257
EndSplineSet
Colour: ff0000
EndChar

StartChar: uni1D07
Encoding: 7431 7431 1649
Width: 942
Flags: HMW
LayerCount: 2
Fore
SplineSet
892 311 m 257
 892 0 l 257
 100 0 l 257
 100 1135 l 257
 892 1135 l 257
 892 821 l 257
 490 821 l 257
 490 688 l 257
 836 688 l 257
 836 444 l 257
 490 444 l 257
 490 311 l 257
 892 311 l 257
EndSplineSet
Colour: ff0000
EndChar

StartChar: uni1D0A
Encoding: 7434 7434 1650
Width: 791
Flags: HMW
LayerCount: 2
Fore
SplineSet
30 45 m 1
 82 297 l 1
 124 285 164 281 195 281 c 0
 262 281 301 308 301 363 c 2
 301 1135 l 1
 691 1135 l 1
 691 317 l 2
 691 77 513 -11 315 -11 c 0
 218 -11 117 10 30 45 c 1
EndSplineSet
Colour: ff0000
EndChar

StartChar: uni1D0B
Encoding: 7435 7435 1651
Width: 1215
VWidth: 4096
Flags: HMW
LayerCount: 2
Fore
SplineSet
100 1135 m 1
 490 1135 l 1
 490 803 l 1
 753 1135 l 1
 1204 1135 l 1
 760 562 l 1
 1205 0 l 1
 754 0 l 1
 536 291 l 1
 490 236 l 1
 490 0 l 1
 100 0 l 1
 100 1135 l 1
EndSplineSet
Colour: ff0000
EndChar

StartChar: uni1D0D
Encoding: 7437 7437 1652
Width: 1595
Flags: HMW
LayerCount: 2
Fore
SplineSet
490 0 m 257
 100 0 l 257
 100 1135 l 257
 543 1135 l 257
 795 391 l 257
 1049 1135 l 257
 1495 1135 l 257
 1495 0 l 257
 1104 0 l 257
 1104 527 l 257
 914 0 l 257
 676 0 l 257
 490 528 l 257
 490 0 l 257
EndSplineSet
Colour: ff0000
EndChar

StartChar: uni1D18
Encoding: 7448 7448 1653
Width: 1156
Flags: HMW
LayerCount: 2
Fore
SplineSet
490 0 m 257
 100 0 l 257
 100 1135 l 257
 633 1135 l 258
 932 1135 1096 990 1096 744 c 256
 1096 496 929 352 633 352 c 258
 490 352 l 257
 490 0 l 257
490 873 m 257
 490 613 l 257
 563 613 l 258
 663 613 706 642 706 744 c 256
 706 847 660 873 563 873 c 258
 490 873 l 257
EndSplineSet
Colour: ff0000
EndChar

StartChar: uni1D1B
Encoding: 7451 7451 1654
Width: 1072
Flags: HMW
LayerCount: 2
Fore
SplineSet
732 0 m 257
 341 0 l 257
 341 801 l 257
 20 801 l 257
 20 1135 l 257
 1052 1135 l 257
 1052 801 l 257
 732 801 l 257
 732 0 l 257
EndSplineSet
Colour: ff0000
EndChar

StartChar: uni1D1C
Encoding: 7452 7452 1655
Width: 1243
Flags: HMW
LayerCount: 2
Fore
SplineSet
790 1135 m 257
 1153 1135 l 257
 1153 463 l 258
 1153 141 942 -8 622 -8 c 256
 302 -8 90 141 90 463 c 258
 90 1135 l 257
 452 1135 l 257
 452 494 l 258
 452 376 471 307 622 307 c 256
 773 307 790 376 790 494 c 258
 790 1135 l 257
EndSplineSet
Colour: ff0000
EndChar

StartChar: uni1D20
Encoding: 7456 7456 1656
Width: 1160
Flags: HMW
LayerCount: 2
Fore
SplineSet
387 1135 m 257
 582 378 l 257
 773 1135 l 257
 1171 1135 l 257
 805 0 l 257
 361 0 l 257
 -11 1135 l 257
 387 1135 l 257
EndSplineSet
Colour: ff0000
EndChar

StartChar: uni1D21
Encoding: 7457 7457 1657
Width: 1692
Flags: HMW
LayerCount: 2
Fore
SplineSet
20 1135 m 1
 384 1135 l 1
 521 489 l 1
 704 1135 l 1
 987 1135 l 1
 1172 489 l 1
 1308 1135 l 1
 1672 1135 l 1
 1407 0 l 1
 1023 0 l 1
 846 558 l 1
 669 0 l 1
 285 0 l 1
 20 1135 l 1
EndSplineSet
Colour: ff0000
EndChar

StartChar: uni1D22
Encoding: 7458 7458 1658
Width: 1063
Flags: HMW
LayerCount: 2
Fore
SplineSet
86 1135 m 257
 967 1135 l 257
 967 901 l 257
 527 331 l 257
 967 331 l 257
 967 0 l 257
 86 0 l 257
 86 234 l 257
 526 802 l 257
 86 802 l 257
 86 1135 l 257
EndSplineSet
Colour: ff0000
EndChar

StartChar: uni1E9E
Encoding: 7838 7838 1818
Width: 1387
Flags: HMW
LayerCount: 2
Fore
SplineSet
110 0 m 1
 110 1038 l 2
 110 1373 298 1614 670 1614 c 0
 962 1614 1204 1460 1204 1182 c 0
 1204 986 1115 897 974 857 c 1
 1188 809 1327 688 1327 403 c 0
 1327 111 1149 -10 902 -10 c 0
 649 -10 532 134 532 389 c 1
 759 389 l 1
 759 333 784 302 843 302 c 0
 917 302 940 372 940 452 c 0
 940 652 797 711 639 711 c 1
 639 1020 l 1
 775 1020 817 1081 817 1150 c 0
 817 1254 751 1292 671 1292 c 0
 547 1292 501 1199 501 1096 c 2
 501 0 l 1
 110 0 l 1
EndSplineSet
Colour: ffff00
EndChar

StartChar: emdash
Encoding: 8212 8212 1911
Width: 2048
Flags: HMW
LayerCount: 2
Fore
SplineSet
1988 782 m 257
 1988 505 l 257
 60 505 l 257
 60 782 l 257
 1988 782 l 257
EndSplineSet
Colour: ffff00
EndChar

StartChar: dagger
Encoding: 8224 8224 1917
Width: 1519
Flags: HMW
LayerCount: 2
Fore
SplineSet
200 850 m 257
 200 1189 l 257
 1319 1189 l 257
 1319 850 l 257
 200 850 l 257
590 1505 m 257
 929 1505 l 257
 929 -461 l 257
 590 -461 l 257
 590 1505 l 257
EndSplineSet
Colour: ffff00
EndChar

StartChar: daggerdbl
Encoding: 8225 8225 1918
Width: 1519
Flags: HMW
LayerCount: 2
Fore
SplineSet
200 -145 m 257
 200 194 l 257
 1319 194 l 257
 1319 -145 l 257
 200 -145 l 257
200 850 m 257
 200 1189 l 257
 1319 1189 l 257
 1319 850 l 257
 200 850 l 257
590 1505 m 257
 929 1505 l 257
 929 -461 l 257
 590 -461 l 257
 590 1505 l 257
EndSplineSet
Colour: ffff00
EndChar

StartChar: bullet
Encoding: 8226 8226 1919
Width: 634
Flags: HMW
LayerCount: 2
Fore
SplineSet
100 688 m 0
 100 808 197 905 317 905 c 0
 437 905 534 808 534 688 c 0
 534 568 437 471 317 471 c 0
 197 471 100 568 100 688 c 0
EndSplineSet
Colour: ffff00
EndChar

StartChar: uni2070
Encoding: 8304 8304 1922
Width: 734
Flags: HMW
LayerCount: 2
Fore
SplineSet
368 1672 m 256
 301 1672 264 1641 264 1484 c 256
 264 1327 301 1294 368 1294 c 256
 435 1294 470 1327 470 1484 c 256
 470 1641 435 1672 368 1672 c 256
368 1842 m 256
 637 1842 654 1611 654 1484 c 256
 654 1357 637 1125 368 1125 c 256
 99 1125 80 1357 80 1484 c 256
 80 1611 99 1842 368 1842 c 256
EndSplineSet
Colour: ffff00
EndChar

StartChar: uni2074
Encoding: 8308 8308 1923
Width: 741
Flags: HMW
LayerCount: 2
Fore
SplineSet
384 1388 m 257
 384 1600 l 257
 230 1388 l 257
 384 1388 l 257
384 1248 m 257
 80 1248 l 257
 80 1384 l 257
 402 1830 l 257
 568 1830 l 257
 568 1388 l 257
 661 1388 l 257
 661 1248 l 257
 568 1248 l 257
 568 1135 l 257
 384 1135 l 257
 384 1248 l 257
EndSplineSet
Colour: ffff00
EndChar

StartChar: uni2075
Encoding: 8309 8309 1924
Width: 667
Flags: HMW
LayerCount: 2
Fore
SplineSet
80 1358 m 257
 261 1358 l 257
 261 1302 277 1277 330 1277 c 256
 391 1277 408 1305 408 1384 c 256
 408 1455 371 1474 315 1474 c 256
 263 1474 224 1436 195 1402 c 257
 83 1467 l 257
 117 1830 l 257
 571 1830 l 257
 571 1685 l 257
 268 1685 l 257
 259 1599 l 257
 296 1612 333 1618 366 1618 c 0
 496 1618 587 1539 587 1399 c 256
 587 1219 496 1125 319 1125 c 256
 162 1125 80 1209 80 1358 c 257
EndSplineSet
Colour: ffff00
EndChar

StartChar: uni2076
Encoding: 8310 8310 1925
Width: 668
Flags: HMW
LayerCount: 2
Fore
SplineSet
356 1840 m 0
 478 1840 583 1773 583 1632 c 1
 432 1632 l 1
 432 1672 404 1689 350 1689 c 0
 286 1689 253 1657 253 1569 c 1
 295 1603 327 1608 378 1608 c 0
 495 1608 588 1522 588 1383 c 0
 588 1232 496 1125 338 1125 c 0
 144 1125 80 1254 80 1462 c 0
 80 1722 182 1840 356 1840 c 0
338 1448 m 0
 316 1448 285 1443 258 1428 c 1
 258 1306 287 1281 335 1281 c 0
 375 1281 407 1311 407 1369 c 0
 407 1424 377 1448 338 1448 c 0
EndSplineSet
Colour: ffff00
EndChar

StartChar: uni2077
Encoding: 8311 8311 1926
Width: 644
Flags: HMW
LayerCount: 2
Fore
SplineSet
564 1673 m 257
 407 1512 333 1349 333 1135 c 257
 159 1135 l 257
 159 1332 226 1520 353 1669 c 257
 80 1669 l 257
 80 1830 l 257
 533 1830 l 257
 564 1673 l 257
EndSplineSet
Colour: ffff00
EndChar

StartChar: uni2078
Encoding: 8312 8312 1927
Width: 678
Flags: HMW
LayerCount: 2
Fore
SplineSet
339 1840 m 0
 490 1840 578 1747 578 1648 c 0
 578 1595 553 1541 500 1501 c 1
 566 1453 598 1389 598 1328 c 0
 598 1223 506 1125 339 1125 c 0
 172 1125 80 1223 80 1328 c 0
 80 1389 112 1453 178 1501 c 1
 125 1541 100 1595 100 1648 c 0
 100 1747 187 1840 339 1840 c 0
339 1698 m 0
 301 1698 280 1676 280 1632 c 0
 280 1587 302 1563 339 1563 c 0
 376 1563 397 1587 397 1632 c 0
 397 1676 377 1698 339 1698 c 0
337 1427 m 0
 293 1427 267 1400 267 1354 c 0
 267 1307 295 1277 339 1277 c 0
 382 1277 409 1305 409 1352 c 0
 409 1399 383 1427 337 1427 c 0
EndSplineSet
Colour: ffff00
EndChar

StartChar: uni2079
Encoding: 8313 8313 1928
Width: 668
Flags: HMW
LayerCount: 2
Fore
SplineSet
410 1537 m 1
 410 1659 381 1684 333 1684 c 0
 293 1684 261 1654 261 1596 c 0
 261 1541 291 1517 330 1517 c 0
 352 1517 383 1522 410 1537 c 1
415 1396 m 1
 373 1362 341 1357 290 1357 c 0
 173 1357 80 1443 80 1582 c 0
 80 1733 172 1840 330 1840 c 0
 524 1840 588 1711 588 1503 c 0
 588 1243 486 1125 312 1125 c 0
 190 1125 85 1192 85 1333 c 1
 236 1333 l 1
 236 1293 264 1276 318 1276 c 0
 382 1276 415 1308 415 1396 c 1
EndSplineSet
Colour: ffff00
EndChar

StartChar: uni25CC
Encoding: 9676 9676 1958
Width: 1702
Flags: HMW
LayerCount: 2
Fore
SplineSet
773 91 m 0
 773 149 793 169 851 169 c 0
 909 169 929 149 929 91 c 0
 929 33 909 13 851 13 c 0
 793 13 773 33 773 91 c 0
773 1447 m 0
 773 1505 793 1525 851 1525 c 0
 909 1525 929 1505 929 1447 c 0
 929 1389 909 1369 851 1369 c 0
 793 1369 773 1389 773 1447 c 0
1529 691 m 0
 1471 691 1451 711 1451 769 c 0
 1451 827 1471 847 1529 847 c 0
 1587 847 1607 827 1607 769 c 0
 1607 711 1587 691 1529 691 c 0
173 691 m 0
 115 691 95 711 95 769 c 0
 95 827 115 847 173 847 c 0
 231 847 251 827 251 769 c 0
 251 711 231 691 173 691 c 0
1252 290 m 0
 1252 348 1272 368 1330 368 c 0
 1388 368 1408 348 1408 290 c 0
 1408 232 1388 212 1330 212 c 0
 1272 212 1252 232 1252 290 c 0
294 1248 m 0
 294 1306 314 1326 372 1326 c 0
 430 1326 450 1306 450 1248 c 0
 450 1190 430 1170 372 1170 c 0
 314 1170 294 1190 294 1248 c 0
1330 1170 m 0
 1272 1170 1252 1190 1252 1248 c 0
 1252 1306 1272 1326 1330 1326 c 0
 1388 1326 1408 1306 1408 1248 c 0
 1408 1190 1388 1170 1330 1170 c 0
372 212 m 0
 314 212 294 232 294 290 c 0
 294 348 314 368 372 368 c 0
 430 368 450 348 450 290 c 0
 450 232 430 212 372 212 c 0
514 143 m 0
 514 201 534 220 592 220 c 0
 650 220 670 201 670 143 c 0
 670 85 650 64 592 64 c 0
 534 64 514 85 514 143 c 0
1110 1474 m 0
 1168 1474 1188 1453 1188 1395 c 0
 1188 1337 1168 1318 1110 1318 c 0
 1052 1318 1032 1337 1032 1395 c 0
 1032 1453 1052 1474 1110 1474 c 0
1477 432 m 0
 1419 432 1400 452 1400 510 c 0
 1400 568 1419 588 1477 588 c 0
 1535 588 1556 568 1556 510 c 0
 1556 452 1535 432 1477 432 c 0
146 1028 m 0
 146 1086 167 1106 225 1106 c 0
 283 1106 302 1086 302 1028 c 0
 302 970 283 950 225 950 c 0
 167 950 146 970 146 1028 c 0
1032 143 m 0
 1032 201 1052 220 1110 220 c 0
 1168 220 1188 201 1188 143 c 0
 1188 85 1168 64 1110 64 c 0
 1052 64 1032 85 1032 143 c 0
514 1395 m 0
 514 1453 534 1474 592 1474 c 0
 650 1474 670 1453 670 1395 c 0
 670 1337 650 1318 592 1318 c 0
 534 1318 514 1337 514 1395 c 0
1477 950 m 0
 1419 950 1400 970 1400 1028 c 0
 1400 1086 1419 1106 1477 1106 c 0
 1535 1106 1556 1086 1556 1028 c 0
 1556 970 1535 950 1477 950 c 0
225 432 m 0
 167 432 146 452 146 510 c 0
 146 568 167 588 225 588 c 0
 283 588 302 568 302 510 c 0
 302 452 283 432 225 432 c 0
EndSplineSet
Colour: ffff00
EndChar

StartChar: uniA729
Encoding: 42793 42793 1960
Width: 1981
Flags: HMW
LayerCount: 2
Fore
SplineSet
771 297 m 1
 825 45 l 1
 738 10 637 -11 540 -11 c 0
 342 -11 163 77 163 317 c 2
 163 1425 l 1
 553 1425 l 1
 553 363 l 2
 553 308 593 281 660 281 c 0
 691 281 729 285 771 297 c 1
EndSplineSet
Refer: 313 57354 N 1 0 0 1 -24 381 2
Refer: 1617 658 N 1 0 0 1 779 0 2
Colour: ffff00
EndChar

StartChar: uniA730
Encoding: 42800 42800 1961
Width: 932
Flags: HMW
LayerCount: 2
Fore
SplineSet
100 0 m 257
 100 1135 l 257
 892 1135 l 257
 892 821 l 257
 490 821 l 257
 490 634 l 257
 836 634 l 257
 836 390 l 257
 490 390 l 257
 490 0 l 257
 100 0 l 257
EndSplineSet
Colour: ff0000
EndChar

StartChar: uniA731
Encoding: 42801 42801 1962
Width: 1023
Flags: HMW
LayerCount: 2
Fore
SplineSet
60 400 m 1
 397 400 l 1
 397 318 432 291 526 291 c 0
 579 291 625 303 625 342 c 0
 625 390 552 411 459 438 c 0
 301 483 87 545 87 787 c 0
 87 1012 263 1145 490 1145 c 0
 762 1145 951 1016 951 759 c 1
 614 762 l 1
 614 815 574 843 517 843 c 0
 458 843 425 824 425 786 c 0
 425 743 494 724 582 700 c 0
 741 657 963 594 963 348 c 0
 963 112 772 -10 538 -10 c 0
 248 -10 60 117 60 400 c 1
EndSplineSet
Colour: ff0000
EndChar

StartChar: uniA733
Encoding: 42803 42803 1964
Width: 1825
Flags: HMW
LayerCount: 2
Fore
SplineSet
573 1146 m 0
 923 1146 1079 973 1079 742 c 2
 1079 313 l 2
 689 317 l 2
 689 742 l 2
 689 812 654 844 553 844 c 0
 453 844 417 814 417 742 c 1
 87 742 l 1
 68 986 228 1146 573 1146 c 0
1235 1146 m 0
 1585 1146 1741 973 1741 742 c 2
 1741 313 l 1
 1741 258 1760 231 1819 231 c 1
 1819 -1 l 1
 1564 -46 1351 35 1351 317 c 2
 1351 742 l 2
 1351 812 1316 844 1215 844 c 0
 1115 844 1079 814 1079 742 c 1
 749 742 l 1
 730 986 890 1146 1235 1146 c 0
EndSplineSet
Refer: 314 57355 N 1 0 0 1 676 0 2
Refer: 314 57355 N 1 0 0 1 -14 0 2
Colour: ffff00
EndChar

StartChar: uniA735
Encoding: 42805 42805 1966
Width: 1839
Flags: HMW
LayerCount: 2
Fore
SplineSet
688 317 m 25
 688 742 l 2
 688 812 653 844 552 844 c 0
 452 844 416 814 416 742 c 1
 86 742 l 1
 67 986 227 1146 572 1146 c 0
 922 1146 1078 973 1078 742 c 2
 1078 313 l 1
 688 317 l 25
65 298 m 256
 65 552 302 660 535 660 c 258
 1035 660 l 257
 1035 454 l 257
 562 454 l 258
 486 454 406 420 406 347 c 256
 406 312 434 274 504 274 c 256
 591 274 648 303 688 349 c 257
 799 349 l 257
 752 209 671 -21 376 -21 c 256
 167 -21 65 100 65 298 c 256
EndSplineSet
Refer: 142 111 N 1 0 0 1 628 0 2
Colour: ffff00
EndChar

StartChar: uniA736
Encoding: 42806 42806 1967
Width: 2253
Flags: HMW
LayerCount: 2
Fore
SplineSet
1743 1516 m 257
 2133 1516 l 257
 2133 628 l 258
 2133 239 1917 0 1491 0 c 265
 1343 354 l 1
 1491 354 l 258
 1692 354 1743 472 1743 629 c 258
 1743 1516 l 257
EndSplineSet
Refer: 0 65 N 1 0 0 1 0 0 2
Colour: ffff00
EndChar

StartChar: uniA737
Encoding: 42807 42807 1968
Width: 1850
Flags: HMW
LayerCount: 2
Fore
SplineSet
86 742 m 1
 67 986 227 1146 572 1146 c 0
 922 1146 1078 973 1078 742 c 1
 1078 497 l 258
 1078 434 1128 380 1219 380 c 0
 1309 380 1360 433 1360 497 c 1
 1410 351 l 1
 1410 148 1275 -10 1049 -10 c 0
 823 -10 688 150 688 351 c 258
 688 742 l 257
 688 812 653 844 552 844 c 0
 452 844 416 814 416 742 c 1
 86 742 l 1
1360 1135 m 257
 1750 1135 l 257
 1750 0 l 257
 1380 0 l 257
 1360 250 l 1
 1360 1135 l 257
1035 660 m 257
 1035 454 l 257
 562 454 l 258
 486 454 406 420 406 347 c 256
 406 312 434 274 504 274 c 256
 591 274 648 303 688 349 c 257
 799 349 l 257
 752 209 671 -21 376 -21 c 256
 167 -21 65 100 65 298 c 256
 65 552 302 660 535 660 c 258
 1035 660 l 257
EndSplineSet
Colour: ffff00
EndChar

StartChar: uniA738
Encoding: 42808 42808 1969
Width: 2023
Flags: HMW
LayerCount: 2
Fore
SplineSet
604 616 m 1
 879 616 l 1
 742 1048 l 1
 604 616 l 1
507 314 m 1
 407 0 l 1
 -11 0 l 1
 532 1505 l 1
 950 1505 l 1
 1283 456 l 1
 1617 1505 l 1
 2034 1505 l 1
 1492 0 l 1
 1074 0 l 1
 974 314 l 1
 507 314 l 1
EndSplineSet
Colour: ffff00
EndChar

StartChar: uniA739
Encoding: 42809 42809 1970
Width: 1789
Flags: HMW
LayerCount: 2
Back
SplineSet
779 799 m 2
 740 899 629 947 499 947 c 0
 337 947 204 875 204 715 c 1
 145 715 l 1
 145 908 304 999 499 999 c 0
 655 999 787 941 835 819 c 2
 1140 42 l 257
 1502 990 l 257
 1562 990 l 257
 1187 0 l 257
 1091 0 l 257
 779 799 l 2
117 258 m 256
 117 468 272 543 482 543 c 2
 912 543 l 1
 912 490 l 257
 482 491 l 2
 302 491 178 425 178 262 c 256
 178 126 244 42 422 42 c 0
 630 42 775 217 807 272 c 257
 840 251 l 257
 805 177 638 -11 405 -11 c 0
 232 -11 117 82 117 258 c 256
EndSplineSet
Fore
SplineSet
86 742 m 1
 67 986 227 1146 572 1146 c 0
 859 1146 1007 1027 1056 858 c 2
 1181 428 l 257
 1382 1135 l 257
 1800 1135 l 257
 1404 0 l 257
 960 0 l 257
 688 770 l 2
 668 826 625 844 552 844 c 0
 452 844 416 814 416 742 c 1
 86 742 l 1
815 660 m 257
 815 454 l 257
 562 454 l 258
 486 454 406 420 406 347 c 256
 406 312 434 274 504 274 c 256
 591 274 648 303 688 349 c 257
 799 349 l 257
 752 209 671 -21 376 -21 c 256
 167 -21 65 100 65 298 c 256
 65 552 302 660 535 660 c 258
 815 660 l 257
EndSplineSet
Colour: ffff00
EndChar

StartChar: uniA73A
Encoding: 42810 42810 1971
Width: 2023
Flags: HMW
LayerCount: 2
Fore
SplineSet
980 1191 m 1
 1596 1191 l 1
 1596 889 l 1
 980 889 l 1
 980 1191 l 1
604 616 m 1
 879 616 l 1
 742 1048 l 1
 604 616 l 1
507 314 m 1
 407 0 l 1
 -11 0 l 1
 532 1505 l 1
 950 1505 l 1
 1283 456 l 1
 1617 1505 l 1
 2034 1505 l 1
 1492 0 l 1
 1074 0 l 1
 974 314 l 1
 507 314 l 1
EndSplineSet
Colour: ffff00
EndChar

StartChar: uniA73B
Encoding: 42811 42811 1972
Width: 1789
Flags: HMW
LayerCount: 2
Fore
SplineSet
982 944 m 265
 1333 944 l 257
 1333 738 l 257
 1050 738 l 273
 982 944 l 265
86 742 m 1
 67 986 227 1146 572 1146 c 0
 859 1146 1007 1027 1056 858 c 2
 1181 428 l 257
 1382 1135 l 257
 1800 1135 l 257
 1404 0 l 257
 960 0 l 257
 688 770 l 2
 668 826 625 844 552 844 c 0
 452 844 416 814 416 742 c 1
 86 742 l 1
815 660 m 257
 815 454 l 257
 562 454 l 258
 486 454 406 420 406 347 c 256
 406 312 434 274 504 274 c 256
 591 274 648 303 688 349 c 257
 799 349 l 257
 752 209 671 -21 376 -21 c 256
 167 -21 65 100 65 298 c 256
 65 552 302 660 535 660 c 258
 815 660 l 257
EndSplineSet
Colour: ffff00
EndChar

StartChar: uniA73C
Encoding: 42812 42812 1973
Width: 2023
Flags: HMW
LayerCount: 2
Fore
SplineSet
772 1142 m 1
 604 616 l 1
 1094 616 l 1
 1094 654 l 1
 772 1142 l 1
532 1505 m 1
 987 1505 l 1
 1290 971 l 1
 1592 1505 l 1
 2044 1505 l 1
 1486 654 l 1
 1486 0 l 1
 1094 0 l 1
 1094 314 l 1
 507 314 l 1
 407 0 l 1
 -11 0 l 1
 532 1505 l 1
EndSplineSet
Colour: ffff00
EndChar

StartChar: uniA73D
Encoding: 42813 42813 1974
Width: 1789
Flags: HMW
LayerCount: 2
Fore
SplineSet
86 742 m 1
 67 986 227 1146 572 1146 c 0
 859 1146 1007 1027 1056 858 c 2
 1181 428 l 257
 1382 1135 l 257
 1800 1135 l 257
 1241 -461 l 257
 802 -461 l 1
 990 0 l 257
 688 770 l 2
 668 826 625 844 552 844 c 0
 452 844 416 814 416 742 c 1
 86 742 l 1
815 660 m 257
 815 454 l 257
 562 454 l 258
 486 454 406 420 406 347 c 256
 406 312 434 274 504 274 c 256
 591 274 648 303 688 349 c 257
 799 349 l 257
 752 209 671 -21 376 -21 c 256
 167 -21 65 100 65 298 c 256
 65 552 302 660 535 660 c 258
 815 660 l 257
EndSplineSet
Colour: ffff00
EndChar

StartChar: uniA760
Encoding: 42848 42848 1977
Width: 2565
Flags: HMW
LayerCount: 2
Fore
SplineSet
2134 1505 m 1
 2586 1505 l 1
 2028 654 l 1
 2028 0 l 1
 1636 0 l 1
 1636 654 l 1
 1344 1096 l 1
 949 0 l 1
 531 0 l 1
 -11 1505 l 1
 407 1505 l 1
 740 456 l 1
 1074 1505 l 1
 1529 1505 l 1
 1832 971 l 1
 2134 1505 l 1
EndSplineSet
Colour: ffff00
EndChar

StartChar: uniA761
Encoding: 42849 42849 1978
Width: 2044
Flags: HMW
LayerCount: 2
Fore
SplineSet
1233 1135 m 1
 1436 428 l 1
 1637 1135 l 1
 2055 1135 l 1
 1496 -461 l 1
 1057 -461 l 1
 1245 0 l 1
 1031 562 l 1
 835 0 l 1
 391 0 l 1
 -11 1135 l 1
 407 1135 l 1
 612 428 l 1
 813 1135 l 1
 1233 1135 l 1
EndSplineSet
Colour: ffff00
EndChar

StartChar: uniAB50
Encoding: 43856 43856 1981
Width: 1944
Flags: HMW
LayerCount: 2
Fore
SplineSet
782 646 m 257
 1172 646 l 1
 1172 497 l 258
 1172 434 1222 380 1313 380 c 0
 1403 380 1454 433 1454 497 c 1
 1504 351 l 1
 1504 148 1369 -10 1143 -10 c 0
 917 -10 782 150 782 351 c 258
 782 646 l 257
1454 1135 m 257
 1844 1135 l 257
 1844 0 l 257
 1474 0 l 257
 1454 250 l 1
 1454 1135 l 257
EndSplineSet
Refer: 316 57357 N -1 0 0 -1 1195 1136 2
Refer: 160 46 N 1 0 0 1 685 785 2
Colour: ffff00
EndChar

StartChar: uniE015
Encoding: 57365 57365 1982
Width: 1594
VWidth: 4096
Flags: HMW
LayerCount: 2
Fore
SplineSet
1554 1079 m 257
 1554 969 l 257
 40 969 l 257
 40 1079 l 257
 1554 1079 l 257
EndSplineSet
EndChar

StartChar: uni031B
Encoding: 795 795 1983
Width: 747
VWidth: 4096
Flags: HMW
LayerCount: 2
Fore
SplineSet
539 1638 m 1
 566 1552 597 1450 597 1360 c 0
 597 1217 495 1135 334 1135 c 2
 150 1135 l 1
 150 1308 l 1
 344 1308 l 2
 403 1308 420 1316 420 1361 c 0
 420 1407 393 1511 372 1577 c 1
 539 1638 l 1
EndSplineSet
EndChar

StartChar: uni1D0F
Encoding: 7439 7439 1984
Width: 1161
Flags: HMW
LayerCount: 2
Fore
SplineSet
581 1145 m 256
 955 1145 1101 908 1101 567 c 256
 1101 226 953 -11 581 -11 c 256
 209 -11 60 226 60 567 c 256
 60 908 207 1145 581 1145 c 256
581 836 m 256
 485 836 416 764 416 567 c 256
 416 370 483 297 581 297 c 256
 679 297 746 370 746 567 c 256
 746 764 677 836 581 836 c 256
EndSplineSet
Colour: ff0000
EndChar

StartChar: uniE016
Encoding: 57366 57366 1985
Width: 420
Flags: HMW
LayerCount: 2
Fore
SplineSet
60 883 m 257
 60 1065 l 257
 360 1065 l 1
 360 883 l 1
 60 883 l 257
EndSplineSet
EndChar

